<svg xmlns="http://www.w3.org/2000/svg" version="1.1" viewBox="-5.0 -10.0 110.0 135.0" fill="White">
 <path d="m81.656 22.41-2.5977-1.6758c-0.56641-0.36328-1.3125-0.25391-1.7461 0.25781-14.543 17.148-28.891 29.402-47.047 39.84 15.516-11.68 30.027-24.074 44.367-41.156 0.51953-0.61719 0.375-1.5508-0.30078-1.9883l-2.2695-1.4648 11.023-6.5586zm-26.617 35.363c0 1.7891 1.4531 3.2383 3.2422 3.2383 1.7852 0 3.2383-1.4531 3.2383-3.2383 0-1.7852-1.4531-3.2383-3.2383-3.2383-1.7891 0-3.2422 1.4531-3.2422 3.2383zm12.207-21.863c-7.0156 7.0039-14.23 13.102-22.066 18.613 0.59375 0.80859 0.99219 1.7227 1.1172 2.1523l1.1133 3.8359 5.7266 0.48828 0.17188-0.019531c-2.5312-3.9102 0.27734-9.1289 4.9688-9.1289 2.0859 0 3.9219 1.082 4.9727 2.7188l3.3047-6.5352 1.207-9.8008zm6.7148-5.0664c0.027343-0.32422-0.14453-1.0234-0.35547-1.582-1.3711 1.5-2.7422 2.957-4.1211 4.3828l0.94922 4.2383c0.035156 0.14844 0.039062 0.30469 0.023437 0.45703l-1.2656 10.262c-0.019531 0.15234-0.0625 0.30469-0.13281 0.44141l-4.9531 9.793c-0.5 2.7617-2.918 4.8594-5.8242 4.8594-0.73438 0-1.4375-0.13281-2.0859-0.37891-0.15625-0.019531-2.7266 0.41016-3.1367 0.375l-6.7852-0.58203c-0.55078-0.046875-1.0156-0.42969-1.1719-0.96094l-1.3711-4.7188c-0.12109-0.41797-0.44922-0.98828-0.74609-1.3789-2.0625 1.4023-4.1719 2.7656-6.3281 4.1016-0.035156 0.24609-0.039062 0.41406-0.03125 0.50391 0.17969 0.16797 0.60156 0.14844 0.85547 0.12109l3.875-0.45312c0.65625-0.078125 1.2695 0.33203 1.4453 0.96875l0.96484 3.4492c0.17578 0.63672 0.65234 1.0625 1.3047 1.1719l6.3398 1.0625c1.6328 0.27344 2.1953 1.6797 2.5664 2.6133l1.4414 3.6133c0.21094 0.52734 0.066406 1.1289-0.35938 1.5l-16.445 14.438c-0.17578 0.15234-0.38672 0.25781-0.61328 0.30469l-5.1992 1.0781c-0.17188 0.03125-0.27734 0.16406-0.27734 0.33594 0 0.22656-0.0625 0.66016 0.34766 0.66016h7.0391l19.141-12.688c0.29688-0.19531 0.65625-0.26562 1.0039-0.19531l9.1719 1.8477c1.6094 0.32422 2.7305 1.6953 2.7305 3.332v6.1875c0 0.5 0.41016 0.90625 0.91016 0.90625h5.3398c0.26953 0 0.48828-0.1875 0.52734-0.45312 0.078125-0.51953 0.10156-1.1992-0.57812-1.3047l-1.8398-0.28906c-0.65625-0.10156-1.1367-0.66797-1.1328-1.332l0.054687-8.7891c0.003907-0.89453-0.51562-1.6328-1.3594-1.9297l-6.8711-2.418c-0.44531-0.15625-0.77344-0.53516-0.86719-0.99609l-1-4.9258c-0.046875-0.23828-0.03125-0.48438 0.050781-0.71875l6.8164-19.141 0.20703-12.5c0.003906-0.14062 0.027344-0.28125 0.074218-0.41406zm-46.305 10.59v18.004c2.9609-2.2188 5.8867-4.4609 8.7773-6.75l0.003906-12.164h-7.8672c-0.50391 0-0.91406 0.41016-0.91406 0.91016zm12.367-14.512c-0.5 0-0.91016 0.41016-0.91016 0.91016v22.711c2.957-2.3945 5.8789-4.8477 8.7773-7.3945l0.003906-16.227zm11.461-13.602c-0.5 0-0.91016 0.41016-0.91016 0.91016v26.527c2.9492-2.668 5.8711-5.4414 8.7773-8.3516v-18.176c0-0.50391-0.40625-0.91016-0.91016-0.91016zm33.961-7.3086c-0.42578-0.28125-0.97266-0.28125-1.4102-0.023438l-15.195 9.0391c-0.85156 0.50781-0.875 1.7383-0.042969 2.2773l2.8047 1.8086c-3.1758 3.7305-6.3633 7.2383-9.5703 10.562v-15.445c0-1.9805-1.6094-3.5938-3.5898-3.5938h-6.957c-1.9805 0-3.5898 1.6133-3.5898 3.5938v10.012h-7.8672c-1.9805 0-3.5898 1.6094-3.5898 3.5898v10.012h-7.8672c-1.9805 0-3.5898 1.6094-3.5898 3.5898v20c-3.4375 2.543-6.9258 5.0625-10.477 7.6094-1.0547 0.75781-0.51562 2.4258 0.78125 2.4258 0.19141 0 0.38672-0.039062 0.57031-0.12891 6.5391-3.0859 12.59-6.2773 18.277-9.6641 0.039063 0.09375 0.082032 0.18359 0.13281 0.26953 0.38672 0.66406 1.3633 1.7383 3.5234 1.4844l2.7383-0.32031 0.65625 2.3477c0.45312 1.6289 1.7734 2.8164 3.4414 3.0938l6.3398 1.0625c0.14453 0.023438 0.36719 0.58984 0.51562 0.96484l1.0898 2.7383-15.461 13.578-4.8516 1.0039c-1.4141 0.29297-2.4062 1.5039-2.4141 2.9492v0.3125c-0.007812 1.6836 1.3438 3.0391 3.0273 3.0391h7.4414c0.26172 0 0.51953-0.078125 0.74219-0.21875l19.012-12.605 8.6289 1.7344c0.34766 0.070313 0.57813 0.35547 0.57813 0.71094v6.1875c0 1.9805 1.6094 3.5859 3.5898 3.5859h5.3398c1.6016 0 2.9375-1.1484 3.1797-2.7344 0.058594-0.37891 0.078126-0.76562 0.058594-1.1445-0.074218-1.6367-1.2578-2.957-2.875-3.207l-0.69922-0.10937 0.046874-7.6328c0.011719-2.043-1.2227-3.8008-3.1484-4.4766l-6.1523-2.168-0.77344-3.8164 6.7695-19c0.050781-0.13672 0.074219-0.28125 0.078125-0.42969l0.20703-12.508 1.6211-4.7031c0.41797-1.2109-0.30078-3.5078-0.98438-4.5312 1.0234-1.1484 2.043-2.3164 3.0664-3.5078l3.4297 2.2109c0.83203 0.53906 1.9453 0.007812 2.0586-0.97656l1.9648-17.57c0.054688-0.50781-0.17969-1.0039-0.60547-1.2773z" fill-rule="evenodd"/>
</svg>