<svg xmlns="http://www.w3.org/2000/svg" version="1.1" viewBox="-5.0 -10.0 110.0 135.0" fill="White">
 <path d="m82.516 39.234c-1.4883 0-2.7344 1.0039-3.1328 2.3633h-4.2539c-0.29297 0-0.57422 0.12891-0.76172 0.35547l-3.3359 3.9766h-5.4531v-4.25h3.4023c0.26953 0 0.52734-0.10938 0.71875-0.30469l4.6797-4.8555c0.43359 0.21094 0.91406 0.34375 1.4297 0.34375 1.8086 0 3.2773-1.4688 3.2773-3.2773 0-1.8086-1.4727-3.2773-3.2773-3.2773-1.8086 0-3.2773 1.4688-3.2773 3.2773 0 0.56641 0.15625 1.0898 0.41016 1.5586l-4.3828 4.5469h-2.9766v-1.9688c0-1.5352-1.25-2.7852-2.7852-2.7852h-2.4805v-2.9922l4.5469-4.3828c0.46484 0.25391 0.99219 0.41016 1.5586 0.41016 1.8086 0 3.2773-1.4688 3.2773-3.2773 0-1.8086-1.4727-3.2812-3.2773-3.2812-1.8086 0-3.2773 1.4688-3.2773 3.2812 0 0.51563 0.12891 0.99609 0.34375 1.4297l-4.8555 4.6797c-0.19531 0.1875-0.30469 0.44531-0.30469 0.71875v3.4141h-4.25l-0.007813-5.4688 3.9766-3.3359c0.22656-0.1875 0.35547-0.46875 0.35547-0.76172v-4.2539c1.3594-0.39844 2.3633-1.6445 2.3633-3.1328 0-1.8086-1.4727-3.2773-3.2773-3.2773-1.8086 0-3.2773 1.4688-3.2773 3.2773 0 1.4297 0.92578 2.6328 2.2031 3.082v3.8398l-3.9805 3.3359c-0.22656 0.1875-0.35547 0.46875-0.35547 0.76172v5.9297h-4.25v-10.441c1.3203-0.42578 2.2812-1.6484 2.2812-3.1055 0-1.8086-1.4727-3.2773-3.2773-3.2773-1.8086 0-3.2773 1.4688-3.2773 3.2773 0 1.457 0.96484 2.6836 2.2812 3.1055v10.441h-4.2656v-3.4141c0-0.26953-0.10937-0.52734-0.30469-0.71875l-4.6641-4.4922c0.16797-0.39453 0.26563-0.82812 0.26563-1.2852 0-1.8086-1.4727-3.2773-3.2773-3.2773-1.8086 0-3.2773 1.4688-3.2773 3.2773 0 1.8086 1.4727 3.2773 3.2773 3.2773 0.625 0 1.2031-0.18359 1.7031-0.49219l4.2891 4.1367v2.9922h-2.3711c-1.5352 0-2.7852 1.25-2.7852 2.7852v1.9688h-2.9766l-4.3828-4.5469c0.25391-0.46484 0.41016-0.99219 0.41016-1.5586 0-1.8086-1.4727-3.2773-3.2773-3.2773-1.8086 0-3.2773 1.4688-3.2773 3.2773 0 1.8086 1.4727 3.2773 3.2773 3.2773 0.51562 0 0.99609-0.12891 1.4297-0.34375l4.6797 4.8555c0.1875 0.19531 0.44531 0.30469 0.71875 0.30469h3.4023v4.25h-5.4609l-3.3359-3.9766c-0.1875-0.22656-0.46875-0.35547-0.76172-0.35547h-4.2539c-0.39844-1.3594-1.6445-2.3633-3.1328-2.3633-1.8086 0-3.2773 1.4688-3.2773 3.2773 0 1.8086 1.4727 3.2812 3.2773 3.2812 1.4297 0 2.6328-0.92578 3.082-2.2031h3.8398l3.3359 3.9766c0.1875 0.22656 0.46875 0.35547 0.76172 0.35547h5.918v4.25h-10.43c-0.42578-1.3203-1.6484-2.2812-3.1055-2.2812-1.8086 0-3.2773 1.4688-3.2773 3.2773 0 1.8086 1.4727 3.2773 3.2773 3.2773 1.457 0 2.6836-0.96484 3.1055-2.2812h10.43v4.2656h-3.4023c-0.26953 0-0.52734 0.10937-0.71875 0.30469l-4.4961 4.668c-0.39453-0.16797-0.82813-0.26172-1.2852-0.26172-1.8086 0-3.2773 1.4688-3.2773 3.2773 0 1.8086 1.4727 3.2773 3.2773 3.2773 1.8086 0 3.2773-1.4688 3.2773-3.2773 0-0.625-0.1875-1.207-0.49219-1.7031l4.1367-4.2891h2.9766v1.8594c0 1.5352 1.25 2.7852 2.7852 2.7852h2.3711v2.9922l-4.2891 4.1367c-0.49609-0.30469-1.0781-0.49219-1.7031-0.49219-1.8086 0-3.2773 1.4688-3.2773 3.2773s1.4727 3.2773 3.2773 3.2773c1.8086 0 3.2773-1.4688 3.2773-3.2773 0-0.45703-0.09375-0.89062-0.26562-1.2852l4.6641-4.4961c0.19531-0.1875 0.30469-0.44531 0.30469-0.71875v-3.4141h4.2656v10.441c-1.3203 0.42578-2.2812 1.6484-2.2812 3.1055 0 1.8086 1.4688 3.2773 3.2773 3.2773 1.8086 0 3.2773-1.4688 3.2773-3.2773 0-1.457-0.96484-2.6836-2.2812-3.1055v-10.441h4.25v5.9297c0 0.29297 0.12891 0.57422 0.35547 0.76172l3.9766 3.3359v3.8398c-1.2773 0.44922-2.2031 1.6523-2.2031 3.082 0 1.8086 1.4727 3.2773 3.2773 3.2773 1.8086 0 3.2773-1.4688 3.2773-3.2773 0-1.4883-1.0039-2.7344-2.3633-3.1328v-4.2539c0-0.29297-0.12891-0.57422-0.35547-0.76172l-3.9766-3.3359v-5.4648h4.25v3.4141c0 0.26953 0.10938 0.52734 0.30469 0.71875l4.8555 4.6797c-0.21094 0.43359-0.34375 0.91406-0.34375 1.4297 0 1.8086 1.4727 3.2812 3.2773 3.2812 1.8086 0 3.2773-1.4688 3.2773-3.2812 0-1.8086-1.4727-3.2773-3.2773-3.2773-0.56641 0-1.0898 0.15625-1.5586 0.41016l-4.5469-4.3828v-2.9922h2.4805c1.5352 0 2.7852-1.25 2.7852-2.7852v-1.8594h2.9766l4.1367 4.2891c-0.30469 0.49609-0.49219 1.0781-0.49219 1.7031 0 1.8086 1.4727 3.2773 3.2773 3.2773 1.8086 0 3.2773-1.4688 3.2773-3.2773 0-1.8086-1.4727-3.2773-3.2773-3.2773-0.45703 0-0.89063 0.09375-1.2852 0.26172l-4.4961-4.668c-0.1875-0.19531-0.44531-0.30469-0.71875-0.30469h-3.4023v-4.2656h10.43c0.42578 1.3203 1.6484 2.2812 3.1055 2.2812 1.8086 0 3.2773-1.4688 3.2773-3.2773 0-1.8086-1.4727-3.2773-3.2773-3.2773-1.457 0-2.6836 0.96484-3.1055 2.2812h-10.43v-4.25h5.918c0.29297 0 0.57422-0.12891 0.76172-0.35547l3.3359-3.9766h3.8398c0.44922 1.2773 1.6523 2.2031 3.082 2.2031 1.8086 0 3.2773-1.4727 3.2773-3.2812 0.019531-1.8086-1.4492-3.2773-3.2578-3.2773zm-6.7109-6.9375c0.71094 0 1.2852 0.57812 1.2852 1.2852 0 0.71094-0.57812 1.2852-1.2852 1.2852-0.71094 0-1.2852-0.57813-1.2852-1.2852s0.57422-1.2852 1.2852-1.2852zm-9.3906-8.8906c0.71094 0 1.2852 0.57812 1.2852 1.2891 0 0.71094-0.57812 1.2852-1.2852 1.2852-0.71094 0-1.2852-0.57812-1.2852-1.2852 0-0.71094 0.57812-1.2891 1.2852-1.2891zm-10.215-5.4219c0-0.71094 0.57812-1.2852 1.2852-1.2852 0.71094 0 1.2852 0.57812 1.2852 1.2852 0 0.71094-0.57812 1.2852-1.2852 1.2852-0.70703 0.003907-1.2852-0.57422-1.2852-1.2852zm-22.613 8.3242c-0.71094 0-1.2852-0.57812-1.2852-1.2852 0-0.71094 0.57812-1.2852 1.2852-1.2852 0.71094 0 1.2852 0.57812 1.2852 1.2852 0 0.70703-0.57812 1.2852-1.2852 1.2852zm-9.3906 8.5625c-0.71094 0-1.2852-0.57812-1.2852-1.2852 0-0.71094 0.57812-1.2852 1.2852-1.2852 0.71094 0 1.2852 0.57812 1.2852 1.2852 0 0.70703-0.57422 1.2852-1.2852 1.2852zm-6.7109 8.9297c-0.71094 0-1.2852-0.57812-1.2852-1.2891 0-0.71094 0.57812-1.2852 1.2852-1.2852 0.71094 0 1.2852 0.57813 1.2852 1.2852 0.003907 0.71094-0.57422 1.2891-1.2852 1.2891zm3.4023 10.656c-0.71094 0-1.2852-0.57812-1.2852-1.2852 0-0.71094 0.57813-1.2852 1.2852-1.2852 0.71094 0 1.2852 0.57812 1.2852 1.2852s-0.57422 1.2852-1.2852 1.2852zm3.6328 13.246c-0.71094 0-1.2852-0.57812-1.2852-1.2852 0-0.71094 0.57812-1.2852 1.2852-1.2852 0.71094 0 1.2852 0.57813 1.2852 1.2852 0.003906 0.70703-0.57422 1.2852-1.2852 1.2852zm9.0664 8.5625c-0.71094 0-1.2852-0.57812-1.2852-1.2852 0-0.71094 0.57812-1.2852 1.2852-1.2852 0.71094 0 1.2852 0.57813 1.2852 1.2852s-0.57812 1.2852-1.2852 1.2852zm23.902 4.4609c0.71094 0 1.2852 0.57813 1.2852 1.2852 0 0.71094-0.57813 1.2852-1.2852 1.2852-0.71094 0-1.2852-0.57812-1.2852-1.2852-0.003906-0.70703 0.57422-1.2852 1.2852-1.2852zm8.9258-6.707c0.71094 0 1.2852 0.57812 1.2852 1.2852 0 0.71094-0.57812 1.2891-1.2852 1.2891-0.71094 0-1.2852-0.57812-1.2852-1.2891 0-0.71094 0.57812-1.2852 1.2852-1.2852zm-20.871-52.633c0-0.71094 0.57812-1.2852 1.2852-1.2852 0.71094 0 1.2852 0.57813 1.2852 1.2852 0 0.71094-0.57812 1.2852-1.2852 1.2852s-1.2852-0.57422-1.2852-1.2852zm2.5742 57.227c0 0.71094-0.57813 1.2852-1.2852 1.2852-0.71094 0-1.2852-0.57813-1.2852-1.2852 0-0.71094 0.57812-1.2852 1.2852-1.2852s1.2852 0.57422 1.2852 1.2852zm15.469-16.332c0 0.4375-0.35547 0.79297-0.79688 0.79297h-25.582c-0.4375 0-0.79688-0.35547-0.79688-0.79297v-24.559c0-0.4375 0.35547-0.79297 0.79688-0.79297h25.582c0.4375 0 0.79688 0.35547 0.79688 0.79297zm11.895 2.8477c0.71094 0 1.2852 0.57812 1.2852 1.2852 0 0.71094-0.57812 1.2852-1.2852 1.2852-0.71094 0-1.2852-0.57812-1.2852-1.2852-0.003906-0.70703 0.57422-1.2852 1.2852-1.2852zm3.6328-13.246c0.71094 0 1.2852 0.57813 1.2852 1.2852 0 0.71094-0.57813 1.2852-1.2852 1.2852-0.71094 0-1.2852-0.57812-1.2852-1.2852s0.57422-1.2852 1.2852-1.2852zm3.4023-8.082c-0.71094 0-1.2852-0.57812-1.2852-1.2891 0-0.71094 0.57812-1.2852 1.2852-1.2852 0.71094 0 1.2852 0.57813 1.2852 1.2852 0 0.71094-0.57422 1.2891-1.2852 1.2891z"/>
 <path d="m55.664 45.902h-1.7891v-1.3281c0-2.1367-1.7383-3.875-3.875-3.875s-3.875 1.7383-3.875 3.875v1.3281h-1.7891c-0.88672 0-1.6055 0.71875-1.6055 1.6055v10.191c0 0.88672 0.71875 1.6055 1.6055 1.6055h11.328c0.88672 0 1.6055-0.71875 1.6055-1.6055v-10.191c0-0.88672-0.71875-1.6055-1.6055-1.6055zm-7.5469-1.332c0-1.0391 0.84375-1.8828 1.8828-1.8828s1.8828 0.84375 1.8828 1.8828v1.3281h-3.7695zm7.1602 12.742h-10.555v-9.4219h10.555z"/>
 <path d="m49.004 53.098v1.8164c0 0.55078 0.44531 0.99609 0.99609 0.99609s0.99609-0.44531 0.99609-0.99609v-1.8164c0.61719-0.35156 1.043-1.0078 1.043-1.7656 0-1.1211-0.91406-2.0391-2.0391-2.0391s-2.0391 0.91406-2.0391 2.0391c0 0.75781 0.42578 1.4141 1.043 1.7656z"/>
</svg>