<svg xmlns="http://www.w3.org/2000/svg" version="1.1" viewBox="-5.0 -10.0 110.0 135.0" fill="White">
 <path d="m46.875 79.219c1.2344-0.011719 2.3945-0.60547 3.125-1.6055 1.0039 1.3711 2.7773 1.9414 4.3945 1.4102 1.6133-0.53125 2.7031-2.043 2.6992-3.7422v-7.3867h0.19922c0.42969-0.003906 0.77344-0.35156 0.78125-0.78125v-4.0195c0.67578 0.53125 1.5117 0.82031 2.375 0.82422 2.1719-0.007813 3.9297-1.7656 3.9375-3.9375v-6.4375c-0.03125-1.707-1.4219-3.0742-3.125-3.0742h-22.562c-1.707 0-3.0977 1.3672-3.125 3.0742v6.4375c0 1.0547 0.42578 2.0664 1.1797 2.8047 0.75391 0.74219 1.7734 1.1484 2.8281 1.1328 0.86328-0.003907 1.6992-0.29297 2.375-0.82422v4.0195c0.007813 0.42969 0.35156 0.77734 0.78125 0.78125h0.19922v7.3867c0 2.1758 1.7617 3.9375 3.9375 3.9375zm0-1.5625c-1.3125 0-2.375-1.0625-2.375-2.375v-7.3867h4.75v7.3867c0 1.3125-1.0625 2.375-2.375 2.375zm8.6875-2.375c0 1.3125-1.0625 2.375-2.375 2.375s-2.375-1.0625-2.375-2.375v-7.3867h4.75zm7.293-21.738v6.4375c0 1.3086-1.0664 2.375-2.375 2.375-1.3125 0-2.375-1.0664-2.375-2.375v-7.8984h3.2305-0.003907c0.80859 0.011719 1.4648 0.65234 1.4922 1.4609zm-6.3125 6.4375v6.3555l-13.055-0.003907v-14.25h13.02zm-16.961 2.375c-1.3086-0.007813-2.3672-1.0664-2.375-2.375v-6.4375c0.027344-0.80859 0.68359-1.4492 1.4922-1.4609h3.2305v7.9492h-0.003907c-0.03125 1.2773-1.0664 2.3008-2.3438 2.3242zm18.75-31.043c-0.36328-0.20312-0.82031-0.082031-1.0391 0.26953l-2.5508 4.293h-0.003907c-2.7969-2.0195-6.5742-2.0195-9.375 0l-2.5508-4.293c-0.23047-0.33984-0.6875-0.44531-1.043-0.23438-0.35547 0.20703-0.48828 0.66016-0.30078 1.0273l2.6992 4.543c-1.418 1.4922-2.2109 3.4727-2.2109 5.5312v3.2617-0.003907c0.007813 0.42969 0.35156 0.77734 0.78125 0.78125h14.555c0.42969-0.003906 0.77344-0.35156 0.78125-0.78125v-3.2578c0-2.0586-0.79297-4.0391-2.2109-5.5312l2.6992-4.543c0.22266-0.35938 0.12109-0.82812-0.23047-1.0625zm-1.8203 13.613h-13.023v-2.4766c0-3.5977 2.918-6.5117 6.5117-6.5117s6.5117 2.9141 6.5117 6.5117zm22.25 40.406v-70.664c-0.007813-3.3086-2.6836-5.9844-5.9922-5.9922h-45.539c-3.3086 0.007813-5.9844 2.6836-5.9922 5.9922v70.664c0.007813 3.3086 2.6836 5.9844 5.9922 5.9922h45.539c3.3086-0.007813 5.9844-2.6836 5.9922-5.9922zm-5.9883 4.4258-45.543 0.003907c-2.4453 0-4.4297-1.9844-4.4297-4.4297v-70.664c0-2.4453 1.9844-4.4297 4.4297-4.4297h45.539c2.4453 0 4.4297 1.9844 4.4297 4.4297v70.664c0 2.4453-1.9844 4.4297-4.4297 4.4297zm0.78125-75.094-0.003907 70.668c0 0.43359-0.34766 0.78125-0.78125 0.78125h-45.539c-0.43359 0-0.78125-0.34766-0.78125-0.78125v-70.664c0-0.43359 0.34766-0.78125 0.78125-0.78125 0.42969 0 0.78125 0.34766 0.78125 0.78125v69.883h43.977v-69.883c0-0.43359 0.35156-0.78125 0.78125-0.78125 0.43359 0 0.78125 0.34766 0.78125 0.78125zm-35.012 5.3359h22.914c0.84375 0.050781 1.668-0.25 2.2812-0.82812s0.96094-1.3867 0.96094-2.2305-0.34766-1.6484-0.96094-2.2266-1.4375-0.87891-2.2812-0.82812h-22.914c-0.84375-0.050781-1.668 0.25-2.2812 0.82812s-0.96094 1.3828-0.96094 2.2266 0.34766 1.6523 0.96094 2.2305 1.4375 0.87891 2.2812 0.82812zm0-4.5508h22.914c0.41797-0.035157 0.83203 0.10547 1.1406 0.39062 0.30859 0.28125 0.48438 0.68359 0.48438 1.1016 0 0.42188-0.17578 0.82031-0.48438 1.1055s-0.72266 0.42578-1.1406 0.39062h-22.914c-0.41797 0.035156-0.83203-0.10547-1.1406-0.39062s-0.48438-0.68359-0.48438-1.1055c0-0.41797 0.17578-0.82031 0.48438-1.1016 0.30859-0.28516 0.72266-0.42578 1.1406-0.39062z"/>
</svg>