<svg xmlns="http://www.w3.org/2000/svg" data-name="Layer 1" viewBox="0 0 128 160" x="0px" y="0px" fill="White"><title>miscellaneous 37 solid</title><path d="M67.24,35.69a8.74,8.74,0,0,1-6.11.41l-.84-.29a9.21,9.21,0,0,0-3.7-.79,6.88,6.88,0,0,0-4.23,2.17A8.79,8.79,0,0,0,50.17,42H71.39a9.32,9.32,0,0,1,2.87-5.52,6.17,6.17,0,0,0-5-1.38A14,14,0,0,0,67.24,35.69Z"/><path d="M77.65,38.83l-.1.09A5.55,5.55,0,0,0,75.46,42H96a32,32,0,0,0-64,0H46.15a13,13,0,0,1,3.32-7.57A10.86,10.86,0,0,1,56.22,31a12.49,12.49,0,0,1,5.4,1l.79.27c1.12.38,2,.12,3.54-.41a17.61,17.61,0,0,1,2.65-.74,10.36,10.36,0,0,1,9.23,3.16,3.36,3.36,0,0,1,1,2.43,2.35,2.35,0,0,1-.79,1.72Zm-13-11.23a.5.5,0,0,1-.6-.56A8,8,0,0,1,70,19c.31-.09.59.15.59.53C70.51,21.38,69.93,26.4,64.68,27.6Z"/><path d="M23,22A18,18,0,0,1,41,4H87a18,18,0,0,1,18,18V42h4V22A22,22,0,0,0,87,0H41A22,22,0,0,0,19,22V42h4Z"/><path d="M14,50H114a2,2,0,0,0,0-4H14a2,2,0,0,0,0,4Z"/><rect x="14" y="54" width="22" height="22" rx="6" ry="6"/><path d="M46,76H56a6,6,0,0,0,6-6V60a6,6,0,0,0-6-6H46a6,6,0,0,0-6,6V70A6,6,0,0,0,46,76ZM44,60a2,2,0,0,1,2-2H56a2,2,0,0,1,2,2V70a2,2,0,0,1-2,2H46a2,2,0,0,1-2-2Z"/><rect x="66" y="54" width="22" height="22" rx="6" ry="6"/><path d="M98,76h10a6,6,0,0,0,6-6V60a6,6,0,0,0-6-6H98a6,6,0,0,0-6,6V70A6,6,0,0,0,98,76ZM96,60a2,2,0,0,1,2-2h10a2,2,0,0,1,2,2V70a2,2,0,0,1-2,2H98a2,2,0,0,1-2-2Z"/><path d="M36,86a6,6,0,0,0-6-6H20a6,6,0,0,0-6,6V96a6,6,0,0,0,6,6H30a6,6,0,0,0,6-6ZM32,96a2,2,0,0,1-2,2H20a2,2,0,0,1-2-2V86a2,2,0,0,1,2-2H30a2,2,0,0,1,2,2Z"/><rect x="40" y="80" width="22" height="22" rx="6" ry="6"/><path d="M66,96a6,6,0,0,0,6,6H82a6,6,0,0,0,6-6V86a6,6,0,0,0-6-6H72a6,6,0,0,0-6,6Zm4-10a2,2,0,0,1,2-2H82a2,2,0,0,1,2,2V96a2,2,0,0,1-2,2H72a2,2,0,0,1-2-2Z"/><rect x="92" y="80" width="22" height="22" rx="6" ry="6"/><rect x="14" y="106" width="22" height="22" rx="6" ry="6"/><path d="M40,122a6,6,0,0,0,6,6H56a6,6,0,0,0,6-6V112a6,6,0,0,0-6-6H46a6,6,0,0,0-6,6Zm4-10a2,2,0,0,1,2-2H56a2,2,0,0,1,2,2v10a2,2,0,0,1-2,2H46a2,2,0,0,1-2-2Z"/><rect x="66" y="106" width="22" height="22" rx="6" ry="6"/><path d="M92,122a6,6,0,0,0,6,6h10a6,6,0,0,0,6-6V112a6,6,0,0,0-6-6H98a6,6,0,0,0-6,6Zm4-10a2,2,0,0,1,2-2h10a2,2,0,0,1,2,2v10a2,2,0,0,1-2,2H98a2,2,0,0,1-2-2Z"/><path d="M122,50h4a2,2,0,0,0,0-4h-4a2,2,0,0,0,0,4Z"/><path d="M2,50H6a2,2,0,0,0,0-4H2a2,2,0,0,0,0,4Z"/></svg>