<svg xmlns="http://www.w3.org/2000/svg" xmlns:xlink="http://www.w3.org/1999/xlink" version="1.1" x="0px" y="0px" viewBox="0 0 96 120" style="enable-background:new 0 0 96 96;" xml:space="preserve"><style type="text/css">
	.st0{fill-rule:evenodd;clip-rule:evenodd;}
</style><path d="M86.543,4.526H11.099c-4.104,0-7.443,3.339-7.443,7.443v49.468c0,4.104,3.339,7.443,7.443,7.443h24.479  c-0.049,4.812-1.217,9.679-2.52,12.549h-5.2c-2.769,0-5.023,2.253-5.023,5.023c0,2.769,2.253,5.023,5.023,5.023h40.286  c2.769,0,5.022-2.253,5.022-5.023c0-2.769-2.253-5.023-5.022-5.023h-5.214c-1.363-2.921-2.606-7.807-2.698-12.549h24.67  c4.104,0,7.443-3.339,7.443-7.443V10.328C92.345,7.129,89.742,4.526,86.543,4.526z M11.099,7.039h75.445  c1.813,0,3.288,1.475,3.288,3.289v43.732H6.169V11.969C6.169,9.251,8.38,7.039,11.099,7.039z M70.652,86.451  c0,1.384-1.125,2.509-2.509,2.509H27.857c-1.383,0-2.509-1.126-2.509-2.509c0-1.384,1.126-2.509,2.509-2.509h40.286  C69.526,83.942,70.652,85.068,70.652,86.451z M60.186,81.429H35.787c1.377-3.503,2.258-8.253,2.303-12.549h19.628  C57.799,73.123,58.742,77.876,60.186,81.429z M84.901,66.367H11.099c-2.718,0-4.93-2.211-4.93-4.93v-4.863h83.662v4.863  C89.831,64.155,87.62,66.367,84.901,66.367z M52.658,61.47c0,0.694-0.563,1.257-1.257,1.257h-6.802  c-0.694,0-1.257-0.563-1.257-1.257c0-0.694,0.563-1.257,1.257-1.257h6.802C52.095,60.214,52.658,60.776,52.658,61.47z   M58.692,35.456h7.298c0.694,0,1.257-0.563,1.257-1.257v-7.298c0-0.694-0.563-1.257-1.257-1.257h-7.298  c-0.694,0-1.257,0.563-1.257,1.257v7.298C57.435,34.893,57.998,35.456,58.692,35.456z M59.948,28.158h4.785v4.785h-4.785V28.158z   M58.692,49.797h7.298c0.694,0,1.257-0.563,1.257-1.257v-7.298c0-0.694-0.563-1.257-1.257-1.257h-7.298  c-0.694,0-1.257,0.563-1.257,1.257v7.298C57.435,49.234,57.998,49.797,58.692,49.797z M59.948,42.499h4.785v4.785h-4.785V42.499z   M30.01,35.456h7.298c0.694,0,1.257-0.563,1.257-1.257v-7.298c0-0.694-0.563-1.257-1.257-1.257H30.01  c-0.694,0-1.257,0.563-1.257,1.257v7.298C28.754,34.893,29.316,35.456,30.01,35.456z M31.267,28.158h4.785v4.785h-4.785V28.158z   M57.435,16.209c0-0.694,0.563-1.257,1.257-1.257h2.392V12.56c0-0.694,0.563-1.257,1.257-1.257s1.257,0.563,1.257,1.257v2.392h2.392  c0.694,0,1.257,0.563,1.257,1.257s-0.563,1.257-1.257,1.257h-2.392v2.392c0,0.694-0.563,1.257-1.257,1.257s-1.257-0.563-1.257-1.257  v-2.392h-2.392C57.998,17.466,57.435,16.903,57.435,16.209z M30.01,21.115h7.298c0.694,0,1.257-0.563,1.257-1.257V12.56  c0-0.694-0.563-1.257-1.257-1.257H30.01c-0.694,0-1.257,0.563-1.257,1.257v7.298C28.754,20.552,29.316,21.115,30.01,21.115z   M31.267,13.817h4.785v4.785h-4.785V13.817z M30.01,49.797h7.298c0.694,0,1.257-0.563,1.257-1.257v-7.298  c0-0.694-0.563-1.257-1.257-1.257H30.01c-0.694,0-1.257,0.563-1.257,1.257v7.298C28.754,49.234,29.316,49.797,30.01,49.797z   M31.267,42.499h4.785v4.785h-4.785V42.499z M44.351,35.456h7.298c0.694,0,1.257-0.563,1.257-1.257v-7.298  c0-0.694-0.563-1.257-1.257-1.257h-7.298c-0.694,0-1.257,0.563-1.257,1.257v7.298C43.094,34.893,43.657,35.456,44.351,35.456z   M45.608,28.158h4.785v4.785h-4.785V28.158z M44.351,21.115h7.298c0.694,0,1.257-0.563,1.257-1.257V12.56  c0-0.694-0.563-1.257-1.257-1.257h-7.298c-0.694,0-1.257,0.563-1.257,1.257v7.298C43.094,20.552,43.657,21.115,44.351,21.115z   M45.608,13.817h4.785v4.785h-4.785V13.817z M44.351,49.797h7.298c0.694,0,1.257-0.563,1.257-1.257v-7.298  c0-0.694-0.563-1.257-1.257-1.257h-7.298c-0.694,0-1.257,0.563-1.257,1.257v7.298C43.094,49.234,43.657,49.797,44.351,49.797z   M45.608,42.499h4.785v4.785h-4.785V42.499z"/></svg>