<svg fill="white"  xmlns="http://www.w3.org/2000/svg" version="1.1" viewBox="-5.0 -10.0 110.0 135.0">
 <path d="m30.121 79.398 4.5508-3.2617c2.4102 1.4609 4.9883 2.5586 7.6992 3.2812l0.89844 5.4414c0.089844 0.57031 0.58984 1 1.1797 1h11.102c0.57812 0 1.0781-0.42188 1.1797-1l0.89844-5.4414c2.7109-0.71875 5.3008-1.8203 7.6992-3.2812l4.5508 3.2617c0.46875 0.33984 1.1211 0.28906 1.5391-0.12891l7.8516-7.8516c0.41016-0.41016 0.46875-1.0586 0.12891-1.5391l-3.4414-4.8008c1.2812-2.3203 2.2383-4.7891 2.8594-7.3594l6.0195-1c0.57812-0.089844 1-0.58984 1-1.1797v-11.102c0-0.57812-0.42188-1.0781-1-1.1797l-6.4492-1.0703c-0.69922-2.3203-1.6797-4.5391-2.9219-6.6211l3.9219-5.4688c0.33984-0.46875 0.28906-1.1211-0.12891-1.5391l-7.8516-7.8516c-0.41016-0.41016-1.0586-0.46875-1.5391-0.12891l-5.7188 4.1016c-1.9883-1.0898-4.1016-1.9414-6.2812-2.5391l-1.1602-7.0117c-0.089843-0.57031-0.58984-1-1.1797-1h-11.102c-0.57812 0-1.0781 0.42188-1.1797 1l-1.1602 7.0117c-2.1797 0.60156-4.2891 1.4492-6.2812 2.5391l-5.7188-4.1016c-0.46875-0.33984-1.1211-0.28906-1.5391 0.12891l-7.8516 7.8516c-0.41016 0.41016-0.46875 1.0586-0.12891 1.5391l3.9219 5.4688c-1.2383 2.0781-2.2188 4.3086-2.9219 6.6211l-6.4492 1.0703c-0.57813 0.089844-1 0.58984-1 1.1797v11.102c0 0.57813 0.42187 1.0781 1 1.1797l6.0195 1c0.62109 2.5703 1.5781 5.0391 2.8711 7.3594l-3.4414 4.8008c-0.33984 0.46875-0.28906 1.1211 0.12891 1.5391l7.8516 7.8516c0.44141 0.41016 1.0938 0.46875 1.5742 0.12891zm-3.6992-13.547c0.26953-0.37891 0.30078-0.89062 0.058594-1.3008-1.4883-2.5312-2.5508-5.2617-3.1484-8.1211-0.10156-0.48047-0.48828-0.85156-0.96875-0.92969l-5.8086-0.96094v-9.0781l6.1914-1.0195c0.46094-0.078125 0.82812-0.41016 0.96094-0.85938 0.71094-2.6094 1.8086-5.1016 3.2695-7.3984 0.26172-0.41016 0.25-0.94141-0.039062-1.3281l-3.7891-5.2891 6.4219-6.4219 5.5117 3.9492c0.37891 0.26953 0.89062 0.30078 1.2891 0.058594 2.2188-1.2891 4.6094-2.25 7.0898-2.8594 0.46094-0.10938 0.80859-0.48828 0.89062-0.96094l1.1211-6.7812h9.0781l1.1211 6.7812c0.078125 0.46875 0.42969 0.85156 0.89062 0.96094 2.4805 0.60938 4.8711 1.5781 7.0898 2.8594 0.41016 0.23047 0.91016 0.21094 1.2891-0.058594l5.5117-3.9492 6.4219 6.4219-3.7891 5.2891c-0.28125 0.39062-0.30078 0.92188-0.039063 1.3281 1.4609 2.3008 2.5586 4.7891 3.2695 7.3984 0.12109 0.44922 0.5 0.78906 0.96094 0.85938l6.1914 1.0195v9.0781l-5.8203 0.96094c-0.48047 0.078125-0.87109 0.44922-0.96875 0.92969-0.60938 2.8594-1.6719 5.5898-3.1484 8.1211-0.23828 0.41016-0.21875 0.91016 0.058594 1.3008l3.2891 4.6016-6.4219 6.4219-4.3789-3.1406c-0.39844-0.28125-0.92969-0.30078-1.3398-0.03125-2.6016 1.6719-5.4297 2.8789-8.4297 3.5898-0.46875 0.10938-0.82031 0.48828-0.89844 0.96094l-0.85938 5.2109h-9.0781l-0.85938-5.2109c-0.078125-0.46875-0.42969-0.85156-0.89844-0.96094-2.9883-0.71094-5.8281-1.9102-8.4297-3.5898-0.41016-0.26172-0.94141-0.25-1.3398 0.03125l-4.3789 3.1406-6.4219-6.4219zm23.578 2.3984c10.059 0 18.25-8.1914 18.25-18.25s-8.1914-18.25-18.25-18.25-18.25 8.1914-18.25 18.25 8.1914 18.25 18.25 18.25zm0-34.121c8.75 0 15.871 7.1211 15.871 15.871s-7.1211 15.871-15.871 15.871-15.871-7.1211-15.871-15.871 7.1211-15.871 15.871-15.871zm47.84 15.871c0 12.781-4.9805 24.789-14.012 33.828-9.0391 9.043-21.047 14.012-33.828 14.012-9.0586 0-17.781-2.5117-25.391-7.2812l0.98047 5.1484c0.12109 0.64844-0.30078 1.2695-0.94922 1.3906-0.078125 0.011719-0.14844 0.019532-0.21875 0.019532-0.55859 0-1.0586-0.39844-1.1719-0.96875l-1.5117-7.9414c-0.058593-0.30859 0.011719-0.62891 0.19141-0.89062 0.17969-0.26172 0.44922-0.44141 0.76172-0.5l7.9414-1.5117c0.64844-0.12109 1.2695 0.30078 1.3906 0.94922 0.12109 0.64844-0.30078 1.2695-0.94922 1.3906l-5.0898 0.96875c7.1992 4.4883 15.441 6.8516 24.012 6.8516 25.07 0 45.461-20.391 45.461-45.461 0-9.5391-2.9219-18.66-8.4414-26.398-0.37891-0.53906-0.26172-1.2812 0.28125-1.6602 0.53906-0.37891 1.2812-0.26172 1.6602 0.28125 5.8125 8.1328 8.8828 17.734 8.8828 27.773zm-84.859 26.398c0.37891 0.53906 0.26172 1.2812-0.28125 1.6602-0.21094 0.14844-0.44922 0.21875-0.69141 0.21875-0.37109 0-0.73828-0.17188-0.96875-0.5-5.8086-8.1367-8.8789-17.738-8.8789-27.777 0-12.781 4.9805-24.789 14.012-33.828 9.0391-9.043 21.047-14.012 33.828-14.012 9.0703 0 17.781 2.5117 25.391 7.2812l-0.98047-5.1484c-0.12109-0.64844 0.30078-1.2695 0.94922-1.3906s1.2695 0.30078 1.3906 0.94922l1.5117 7.9414c0.058593 0.30859-0.011719 0.62891-0.19141 0.89062-0.17969 0.26172-0.44922 0.44141-0.76172 0.5l-7.9414 1.5117c-0.078126 0.011719-0.14844 0.019532-0.21875 0.019532-0.55859 0-1.0586-0.39844-1.1719-0.96875-0.12109-0.64844 0.30078-1.2695 0.94922-1.3906l5.0781-0.96875c-7.1953-4.4883-15.434-6.8477-24.004-6.8477-25.07 0-45.461 20.391-45.461 45.461 0 9.5391 2.9219 18.66 8.4414 26.398zm31.668-16.199c0.17187 0.089843 0.35937 0.14062 0.55078 0.14062 0.23828 0 0.48047-0.070313 0.67969-0.21094l13.148-9.1406c0.32031-0.21875 0.51172-0.58984 0.51172-0.98047 0-0.39062-0.19141-0.76172-0.51172-0.98047l-13.148-9.1406c-0.35938-0.25-0.83984-0.28125-1.2305-0.078125-0.39063 0.21094-0.64063 0.60938-0.64063 1.0586v18.281c0.003907 0.42969 0.25391 0.83984 0.64063 1.0508zm1.75-17.059 9.8711 6.8594-9.8711 6.8594z"/>
</svg>