<svg fill="white"  xmlns="http://www.w3.org/2000/svg" xmlns:xlink="http://www.w3.org/1999/xlink" version="1.1" x="0px" y="0px" viewBox="0 0 504 630.0287500000001" style="enable-background:new 0 0 504 504.023;" xml:space="preserve"><path d="M488.138,266.702l-151.511-134.83l9.469-9.426c5.286-5.262,6.142-13.351,2.572-19.549  c41.444-40.557,88.763-69.303,133.573-81.073c1.621-0.426,2.805-1.817,2.965-3.486c0.161-1.668-0.736-3.26-2.246-3.987  C454.091,0.454,422.443-3.376,388.895,2.974c-31.587,5.978-63.503,20.727-94.911,43.803c-2.529-1.646-5.467-2.55-8.551-2.571  c-0.037-0.001-0.074-0.001-0.111-0.001c-4.241,0-8.233,1.651-11.252,4.656l-6.938,6.907l-15.707-8.771  c-7.15-3.992-16.205-2.737-22.02,3.05l-19.809,19.719c-5.793,5.767-7.158,14.847-3.318,22.082l8.507,16.029l-6.975,6.944  c-5.462,5.437-6.21,13.9-2.215,20.169c-36.86,49.997-52.664,101.278-45.867,148.858h-37.651V157.301c0-2.209-1.791-4-4-4H52.83  v-52.442c0-2.209-1.791-4-4-4H4c-2.209,0-4,1.791-4,4s1.791,4,4,4h40.83v52.442c0,2.209,1.791,4,4,4h65.246v126.546  c0,2.209,1.791,4,4,4H255.25v122.499c0,2.209,1.791,4,4,4h57.192v77.677H4c-2.209,0-4,1.791-4,4s1.791,4,4,4h316.442  c2.209,0,4-1.791,4-4v-85.677c0-2.209-1.791-4-4-4H263.25V287.847c0-2.209-1.791-4-4-4h-65.312  c15.199-32.13,38.043-64.108,66.47-93.058c2.417,1.451,5.174,2.252,8.062,2.272c0.038,0,0.075,0,0.113,0  c4.241,0,8.233-1.651,11.252-4.656l10.207-10.161l131.472,154.676c8.438,9.928,20.709,15.931,33.665,16.47  c0.671,0.028,1.34,0.042,2.006,0.042c12.384,0,23.989-4.798,32.866-13.634c9.353-9.311,14.299-21.732,13.929-34.979  C503.611,287.58,497.984,275.464,488.138,266.702z M469.461,17.207c-42.728,13.583-86.964,41.488-126.014,79.602l-43.49-44.494  C358.636,9.637,418.249-2.647,469.461,17.207z M213.344,88.098c-2.204-4.151-1.424-9.358,1.895-12.662l19.809-19.719  c3.297-3.282,8.428-3.994,12.477-1.735l13.711,7.656l-40.524,40.34L213.344,88.098z M167.826,283.847  c-6.847-45.357,8.04-94.543,43.222-142.785l43.389,44.39c-29.929,30.537-53.796,64.411-69.308,98.395H167.826z M274.192,182.735  c-1.509,1.502-3.499,2.326-5.611,2.326c-0.019,0-0.037,0-0.056,0c-2.132-0.015-4.133-0.868-5.634-2.404l-49.516-50.658  c-3.123-3.194-3.087-8.357,0.077-11.508l66.26-65.959c1.508-1.501,3.499-2.326,5.61-2.326c0.019,0,0.037,0,0.055,0  c2.133,0.015,4.134,0.869,5.636,2.404l49.516,50.659c3.122,3.194,3.087,8.356-0.078,11.507L274.192,182.735z M484.409,330.127  c-7.755,7.72-18.011,11.715-28.896,11.27c-10.892-0.454-20.801-5.305-27.902-13.659L295.73,172.582l35.216-35.056l151.873,135.152  c8.182,7.28,12.857,17.354,13.165,28.363C496.292,312.06,492.182,322.39,484.409,330.127z M271.05,217.152  c-1.064,0.08-2.052,0.581-2.745,1.393l-22.363,26.209c-1.425,1.67-1.238,4.176,0.419,5.616l25.971,22.567  c0.73,0.635,1.663,0.98,2.624,0.98c0.099,0,0.198-0.004,0.298-0.011c1.064-0.08,2.052-0.581,2.745-1.393l22.362-26.209  c1.425-1.67,1.238-4.176-0.419-5.616l-25.97-22.567C273.167,217.421,272.119,217.082,271.05,217.152z M274.533,264.25  l-19.932-17.319l17.17-20.123l19.932,17.319L274.533,264.25z M152.129,34.586c-0.53-0.926-1.407-1.602-2.437-1.877  c-1.029-0.277-2.127-0.129-3.049,0.407L104.96,57.403c-1.898,1.105-2.549,3.535-1.458,5.442l24.065,42.065  c0.53,0.926,1.407,1.602,2.437,1.877c0.34,0.092,0.688,0.137,1.035,0.137c0.701,0,1.397-0.185,2.014-0.544l41.684-24.286  c1.898-1.105,2.549-3.535,1.458-5.442L152.129,34.586z M132.509,97.439l-20.093-35.122l34.771-20.259L167.28,77.18L132.509,97.439z   M148.301,113.412c-0.899,0.568-1.535,1.472-1.767,2.51l-6.277,28.086c-0.48,2.149,0.868,4.283,3.016,4.772l27.831,6.334  c0.293,0.066,0.591,0.1,0.888,0.1c0.75,0,1.492-0.211,2.137-0.618c0.899-0.568,1.535-1.472,1.767-2.51l6.277-28.086  c0.48-2.149-0.868-4.283-3.016-4.772l-27.831-6.334C150.289,112.659,149.2,112.843,148.301,113.412z M173.496,126.143l-4.532,20.279  l-20.03-4.559l4.532-20.279L173.496,126.143z"/></svg>