<svg fill="white"  xmlns="http://www.w3.org/2000/svg" version="1.1" viewBox="-5.0 -10.0 110.0 135.0">
 <path d="m92.078 25.559h-1.0195v-12.078c0-1.0312-0.85156-1.8711-1.8906-1.8711h-9.8516v-3.6914c0-1.0586-0.82031-1.9297-1.8203-1.9297h-10.051c-1 0-1.8203 0.85938-1.8203 1.9297v5.3516c-6.3984-4.6992-14.191-7.2812-22.18-7.2812-20.637 0.011719-37.445 16.84-37.445 37.531 0 4.8516 0.92188 9.5781 2.7305 14.051 0.96875 2.4297 2.2109 4.7617 3.6602 6.8984 0.71875 1.0781 1.4883 2.1211 2.2891 3.0703 0.12109 0.14844 0.23828 0.30078 0.37109 0.44141l0.23828 0.28125c2.5703 2.9102 3.9883 6.4883 3.9883 10.059v8.1406c0 2.0117 0.80078 3.9102 2.25 5.3398 1.4414 1.4219 3.3594 2.2109 5.4102 2.2109h24.75c4.2305 0 7.6719-3.3906 7.6719-7.5508v-2.2109h14.078c3.2305-0.011719 5.8594-2.5508 5.8594-5.6719v-12.18c0-1.0312 0.71094-1.9297 1.7812-2.2383l4.5312-1.3398c1.0195-0.30859 1.8398-1.0391 2.25-2 0.39844-0.94141 0.37109-2-0.10938-2.9297l-6.3203-12.02c-0.30859-0.57812-0.48047-1.2305-0.48047-1.8906v-0.46094c0-4.1602-0.67969-8.2188-2-12.102h13.141c1.0586 0 1.9219-0.85938 1.9219-1.9219v-2.0312c0-1.0586-0.85938-1.9219-1.9219-1.9219zm-12.75-11.988h9.7812v11.988h-9.7812zm-11.73-5.6094h9.7695l0.003906 17.598h-9.7812v-17.598zm11.391 35.559v0.46094c0 0.98047 0.25 1.9609 0.71094 2.8086l6.3086 11.988c0.21094 0.39844 0.21875 0.85156 0.039063 1.2695-0.17969 0.42969-0.55078 0.76172-1.0117 0.89062l-4.5195 1.3398c-1.9102 0.55078-3.1914 2.2109-3.1914 4.1211v12.18c0 2.0391-1.75 3.6992-3.8984 3.6992l-20.191 0.019531c-2.7109 0-5.2891-0.78125-7.4609-2.1484l20.031-17.809c1.0391-0.92969 1.6406-2.2617 1.6406-3.6602v-12.34c2.7695-0.46875 4.8906-2.8789 4.8906-5.7812 0-3.2383-2.6289-5.8711-5.8711-5.8711-3.2383 0-5.8711 2.6289-5.8711 5.8711 0 2.8984 2.1211 5.3086 4.8906 5.7812v12.34c0 0.26953-0.050781 0.53125-0.12109 0.78906h-11.23c-0.46875-2.7695-2.8789-4.8906-5.7812-4.8906-3.2383 0-5.8711 2.6289-5.8711 5.8711 0 3.2383 2.6289 5.8711 5.8711 5.8711 2.8984 0 5.3086-2.1211 5.7812-4.8906h9.7617l-19.719 17.539c-1.3203-1.1406-2.4102-2.5391-3.1719-4.1406-0.12891-0.26172-0.23828-0.53125-0.35156-0.80859-1.25-3.1992-3.0703-5.75-5.4219-7.6211l-0.12109-0.089844v-20.859h6.1797c0.46875 2.7695 2.8789 4.8906 5.7812 4.8906 3.2383 0 5.8711-2.6289 5.8711-5.8711 0-3.2383-2.6289-5.8711-5.8711-5.8711-2.8984 0-5.3086 2.1211-5.7812 4.8906h-6.1797v-13.781c2.7695-0.46875 4.8906-2.8789 4.8906-5.7812 0-3.2383-2.6289-5.8711-5.8711-5.8711-3.2383 0-5.8711 2.6289-5.8711 5.8711 0 2.8984 2.1211 5.3086 4.8906 5.7812v35.18l-11.051-7.9883c-0.76172-0.53906-1.2109-1.4297-1.2109-2.3789v-11.77c2.7695-0.46875 4.8789-2.8789 4.8789-5.7812 0-3.2383-2.6289-5.8711-5.8711-5.8711-3.2383 0-5.8711 2.6289-5.8711 5.8711 0 2.8984 2.1211 5.3086 4.8906 5.7812v11.77c0 1.5781 0.76172 3.0586 2.0312 3.9688l12.57 9.0703 0.5 0.37891c2.0703 1.6406 3.6797 3.9219 4.8008 6.7812 0.12891 0.32812 0.26953 0.64844 0.41016 0.94922 2.4805 5.2188 7.9688 8.6016 13.988 8.6016h4.1602v2.1992c0 3.0781-2.5586 5.5898-5.7109 5.5898h-24.734c-1.5312 0-2.9688-0.57812-4.0391-1.6484-1.0781-1.0586-1.6719-2.4609-1.6719-3.9492v-8.1406c0-4.0508-1.5898-8.0781-4.4609-11.328l-0.23828-0.28125c-0.10938-0.12109-0.21094-0.25-0.32812-0.39844-0.76953-0.92188-1.5-1.8984-2.1797-2.9219-1.3789-2.0312-2.5508-4.2305-3.4688-6.5312-1.7188-4.2383-2.5898-8.7188-2.5898-13.32 0.007813-19.629 15.938-35.578 35.516-35.578 8.0586 0 15.91 2.7695 22.18 7.7891v0.51172h-9.8516c-1.0391 0-1.8906 0.82812-1.8906 1.8594v7.4414h-1.0195c-1.0586 0-1.9219 0.85938-1.9219 1.9219v2.0312c0 1.0586 0.85938 1.9219 1.9219 1.9219h23.969c1.3984 3.8594 2.1211 7.9219 2.1211 12.102zm-16.441-2.9688c0-2.1602 1.75-3.9102 3.9102-3.9102 2.1602 0 3.9102 1.75 3.9102 3.9102 0 2.1602-1.75 3.9102-3.9102 3.9102-2.1602 0-3.9102-1.75-3.9102-3.9102zm-10.281 19.879c0 2.1602-1.75 3.9102-3.9102 3.9102-2.1602 0-3.9102-1.75-3.9102-3.9102 0-2.1602 1.75-3.9102 3.9102-3.9102 2.1602 0 3.9102 1.75 3.9102 3.9102zm-18.125-32.59c-2.1602 0-3.9102-1.75-3.9102-3.9102 0-2.1602 1.75-3.9102 3.9102-3.9102s3.9102 1.75 3.9102 3.9102c0 2.1602-1.75 3.9102-3.9102 3.9102zm9.0195 16.621c0-2.1602 1.75-3.9102 3.9102-3.9102 2.1602 0 3.9102 1.75 3.9102 3.9102 0 2.1602-1.75 3.9102-3.9102 3.9102-2.1602 0-3.9102-1.75-3.9102-3.9102zm-23.25-3.5781c-2.1602 0-3.9102-1.75-3.9102-3.9102s1.75-3.9102 3.9102-3.9102 3.9102 1.75 3.9102 3.9102-1.75 3.9102-3.9102 3.9102zm45.73-22.66v7.3398h-9.7812v-7.3398zm-12.711 11.289-0.039063-1.9883h39.148l0.039063 1.9609-39.148 0.039063z"/>
</svg>