<svg fill="white"  xmlns="http://www.w3.org/2000/svg" data-name="Layer 1" viewBox="0 0 95 118.75" x="0px" y="0px"><defs><style>.cls-1{fill-rule:evenodd;}</style></defs><title>a</title><path class="cls-1" d="M63.515,53.521,58.2,49.875a1.057,1.057,0,0,0-.6-.185H56.011V39.477a1.055,1.055,0,0,0-1.055-1.055H41.1V34.07H63.515V53.521ZM53.9,49.69V40.532H41.1V49.69Zm0,6.462V51.8H40.043a1.055,1.055,0,0,1-1.055-1.055V40.532h-7.5V59.983L36.8,56.337a1.056,1.056,0,0,1,.6-.185ZM64.57,31.961H40.043a1.055,1.055,0,0,0-1.055,1.054v5.407H30.43a1.056,1.056,0,0,0-1.055,1.055V61.985a1.054,1.054,0,0,0,1.651.87l6.7-4.593H54.956a1.055,1.055,0,0,0,1.055-1.055V51.8h1.264l6.7,4.593a1.054,1.054,0,0,0,.6.185,1.041,1.041,0,0,0,.491-.122,1.055,1.055,0,0,0,.564-.933V33.015a1.055,1.055,0,0,0-1.055-1.054ZM87.635,44.744A2.756,2.756,0,1,1,84.88,47.5a2.759,2.759,0,0,1,2.755-2.756Zm2.756,32.494a2.756,2.756,0,1,1-2.756-2.755,2.758,2.758,0,0,1,2.756,2.755Zm-18.547-7.68V25.443a2.288,2.288,0,0,0-2.285-2.286H25.442a2.288,2.288,0,0,0-2.285,2.286V69.558a2.288,2.288,0,0,0,2.285,2.285H69.559a2.288,2.288,0,0,0,2.285-2.285Zm5.4,15.321a2.756,2.756,0,1,1-2.756,2.756,2.758,2.758,0,0,1,2.756-2.756ZM50.256,87.635A2.756,2.756,0,1,1,47.5,84.879a2.759,2.759,0,0,1,2.756,2.756ZM17.762,90.391a2.756,2.756,0,1,1,2.756-2.756,2.758,2.758,0,0,1-2.756,2.756Zm-10.4-10.4a2.755,2.755,0,1,1,2.756-2.755,2.759,2.759,0,0,1-2.756,2.755Zm0-29.737A2.756,2.756,0,1,1,10.121,47.5a2.76,2.76,0,0,1-2.756,2.756ZM4.609,17.763a2.756,2.756,0,1,1,2.756,2.755,2.759,2.759,0,0,1-2.756-2.755Zm13.153-7.642a2.756,2.756,0,1,1,2.756-2.756,2.758,2.758,0,0,1-2.756,2.756ZM44.744,7.365A2.756,2.756,0,1,1,47.5,10.121a2.76,2.76,0,0,1-2.756-2.756Zm32.5-2.756a2.756,2.756,0,1,1-2.756,2.756,2.759,2.759,0,0,1,2.756-2.756Zm10.4,10.4a2.756,2.756,0,1,1-2.755,2.756,2.759,2.759,0,0,1,2.755-2.756ZM80.327,30.6a1.055,1.055,0,0,0,.915-.527l4.517-7.825a4.874,4.874,0,1,0-1.728-1.224L79.719,28.5H73.953V25.443a4.4,4.4,0,0,0-4.394-4.4H66.505V15.281l7.47-4.312a4.844,4.844,0,1,0-1.226-1.728l-7.826,4.517a1.061,1.061,0,0,0-.527.914v6.376H48.554V12.114a4.865,4.865,0,1,0-2.109,0v8.934H30.6V14.672a1.057,1.057,0,0,0-.527-.914L22.25,9.241a4.876,4.876,0,1,0-1.224,1.728l7.468,4.312v5.767H25.442a4.4,4.4,0,0,0-4.394,4.4V28.5H15.281l-4.312-7.468A4.862,4.862,0,1,0,9.24,22.251l4.518,7.825a1.054,1.054,0,0,0,.914.527h6.376V46.446H12.114a4.865,4.865,0,1,0,0,2.109h8.934V64.4H14.672a1.057,1.057,0,0,0-.914.527L9.24,72.75a4.875,4.875,0,1,0,1.729,1.224l4.312-7.468h5.767v3.052a4.4,4.4,0,0,0,4.394,4.395h3.052v5.766l-7.468,4.312A4.862,4.862,0,1,0,22.25,85.76l7.826-4.519a1.052,1.052,0,0,0,.527-.913V73.953H46.445v8.933a4.866,4.866,0,1,0,2.109,0V73.953H64.4v6.375a1.056,1.056,0,0,0,.527.913l7.826,4.519a4.882,4.882,0,1,0,1.226-1.729l-7.47-4.312V73.953h3.054a4.4,4.4,0,0,0,4.394-4.395V66.506h5.766l4.312,7.468a4.858,4.858,0,1,0,1.728-1.224l-4.517-7.826a1.057,1.057,0,0,0-.915-.527H73.953V48.555h8.933a4.866,4.866,0,1,0,0-2.109H73.953V30.6Z"/></svg>