<svg xmlns="http://www.w3.org/2000/svg" version="1.1" viewBox="-5.0 -10.0 110.0 135.0">
 <path d="m97.727 56.363v-0.015625-8.3164c0-3.3477-2.7109-6.0625-6.0625-6.0625h-7.2422l-11.953-10.258 3.2891-3.8164c0.36328 0.10547 0.74219 0.18359 1.1367 0.18359 1.0469 0 2.0898-0.41016 2.8789-1.2422l12.227-12.926c0.074219-0.089844 0.15234-0.16797 0.22656-0.25781 2.4531-2.8477 2.1367-7.1836-0.72656-9.6367-1.4375-1.2266-3.2578-1.8047-5.1367-1.6211-1.8789 0.18359-3.5625 1.1055-4.7109 2.5898l-10.969 14.047c-0.9375 1.2109-1.0625 2.8047-0.45312 4.1211l-3.2891 3.8164-10.168-8.7852c-1.3047-1.1211-3.0469-1.4375-4.6523-0.87891-1.6055 0.5625-2.7734 1.9102-3.0898 3.5742l-5.2891 27.773h-8.1953v-2.5c0-2.3164-1.8945-4.2109-4.2109-4.2109l-23.004-0.003906c-3.3477 0-6.0625 2.7109-6.0625 6.0625v8.4688 0.015625 13.289 0.015624 13.438 0.015626 7.9688c0 3.5469 2.8789 6.4375 6.4375 6.4375h82.59c3.5469 0 6.4375-2.8789 6.4375-6.4375v-21.41-0.015625l0.007813-13.422zm-31.016 12.348v-11.137h28.816v11.137zm-2.2734 13.32h-18.5v-0.03125-11.09h8.1953v0.87891c0 1.668 0.65234 3.2422 1.832 4.4258 1.1953 1.1953 2.7734 1.8477 4.4375 1.8477 1.5312 0 2.9258-0.57422 4.0156-1.4844l0.007812 5.4531zm-10.301-13.32h-8.1953l-0.003906-1.8945c0-1.1055 0.42578-2.1367 1.1953-2.9102 0.75781-0.77344 1.8047-1.1953 2.8945-1.1953 2.2734 0 4.1055 1.8477 4.1055 4.1055zm12.5 13.32s0.074219-9.9844 0.074219-10.258v-0.86328h28.816v11.137h-28.891zm28.895-34.016v7.2578h-28.82v-5.5c0-0.15234-0.03125-0.28906-0.074219-0.41016v-3.1953c0-1.1211 0.91016-2.0312 2.0312-2.0312h23c2.1367 0 3.8633 1.7422 3.8633 3.8789zm-25.395-16.953-0.03125 0.03125c-0.015625 0.015625-0.015625 0.03125-0.015625 0.03125l-6.6367 7.7109c-0.51562 0.60547-1.4375 0.68359-2.0469 0.15234-0.60547-0.53125-0.68359-1.4375-0.15234-2.0469l10.438-12.137 0.074219 0.0625 2.1367 1.832zm2.2891-10.715 10.969-14.047c0.77344-0.99609 1.9219-1.6328 3.1953-1.7539 0.15234-0.015625 0.31641-0.03125 0.46875-0.03125 1.1055 0 2.168 0.39453 3.0156 1.1211 1.9375 1.668 2.168 4.6055 0.5 6.5625l-12.391 13.105c-0.65234 0.68359-1.7266 0.74219-2.4375 0.12109l-1.5156-1.3047-1.5625-1.3477c-0.73047-0.60547-0.83594-1.6836-0.24219-2.4258zm-21.242 0.95703c0.16797-0.91016 0.78906-1.6211 1.668-1.9258 0.87891-0.30469 1.8164-0.13672 2.5156 0.46875l10.184 8.7578-5.9531 6.9258c-1.3047 1.5156-1.1367 3.8164 0.39453 5.1367 0.68359 0.58984 1.5312 0.87891 2.3633 0.87891 1.0312 0 2.0469-0.42578 2.7578-1.2578l5.9531-6.9102 9.9844 8.5898h-12.379c-2.3164 0-4.2109 1.8945-4.2109 4.2109v2.5l-18.492 0.003906zm13.27 29.543v5.6367c0 0.15234 0.03125 0.28906 0.074219 0.41016l-0.074219 15.695c-0.37891 1.8633-2.0469 3.2891-4.0312 3.2891-1.0898 0-2.1211-0.42578-2.8945-1.2109-0.77344-0.77344-1.1953-1.7891-1.1953-2.8789v-4.9727c0-3.4688-2.8164-6.3047-6.3047-6.3047-1.668 0-3.2891 0.68359-4.4375 1.8477-1.1836 1.1836-1.832 2.7578-1.832 4.4375v15.18c0 0.27344-0.046874 0.58984-0.10547 0.91016-0.41016 1.832-2.0469 3.1953-4 3.1953-1.0898 0-2.1211-0.42578-2.8945-1.2109-0.5625-0.54688-0.92578-1.2422-1.0898-1.9844-0.0625-0.31641-0.10547-0.62109-0.10547-0.89453v-31.164l28.891 0.003906zm-60 20.047h21.074 0.015625 7.8047v11.137h-28.895zm28.91-2.1836h-6.7109v-11.137h6.7109zm-8.9102-11.137v11.137h-19.984v-11.137zm-16.121-13.438h23c1.1211 0 2.0312 0.91016 2.0312 2.0312v9.0898h-7.8047-0.03125-21.074v-7.2578c0-2.1211 1.7422-3.8633 3.8789-3.8633zm-3.8633 47.09v-6.8945h20v11.137h-15.758c-2.3477 0.015625-4.2422-1.8945-4.2422-4.2422zm22.184-6.8789h7.168c0.31641 0.78906 0.77344 1.5 1.3945 2.1055 1.1836 1.1953 2.7578 1.8477 4.4375 1.8477 2.6523 0 4.9102-1.6523 5.832-3.9688h10.074v11.137h-28.906zm64.637 11.137h-33.562v-11.137h37.805v6.8945c0 2.332-1.8945 4.2422-4.2422 4.2422z"/>
</svg>