<svg xmlns="http://www.w3.org/2000/svg" version="1.1" viewBox="-5.0 -10.0 110.0 135.0" fill="black">
 <path d="m93.094 47.055c-0.41016-0.29297-0.9375-0.36719-1.4141-0.20313l-28.586 9.832v-4.4883-3.0469c3.7734 0.88281 7.6445-1.0391 9.2227-4.582 1.5781-3.5391 0.41797-7.7031-2.7617-9.9219 0.19141-0.69141 0.28906-1.4102 0.29297-2.1289-0.019531-2.6914-1.3359-5.2109-3.5352-6.7617-2.2031-1.5508-5.0156-1.9453-7.5586-1.0586-3.668-2.9609-8.9102-2.9492-12.566 0.027344-3.3164-1.4883-7.2266-0.34766-9.2227 2.6953-2.8086-1.6406-6.2383-1.8086-9.1953-0.45312-2.957 1.3555-5.0664 4.0664-5.6562 7.2656-0.58984 3.1953 0.41406 6.4805 2.6914 8.8047 2.2812 2.3203 5.5469 3.3867 8.7539 2.8594-0.007813 3.4922 0.007812 10.758 0 14.285v6.668l-26.254 9.0234c-0.63281 0.21875-1.0547 0.8125-1.0547 1.4805v9.4883c0 0.41406 0.16406 0.8125 0.45703 1.1055 0.29297 0.29297 0.69141 0.45703 1.1055 0.45703h84.375c0.41406 0 0.8125-0.16406 1.1055-0.45703 0.29297-0.29297 0.45703-0.69141 0.45703-1.1055v-38.512c0-0.50391-0.24219-0.97656-0.65625-1.2734zm-35.77 11.613c-0.066407-0.015625-0.12891-0.03125-0.19531-0.039063h-6.4375v-4.8477h9.2773v3.9766zm-15.746-20.016c1.7656 0.39062 3.6133 0.11328 5.1836-0.78125v3.9688h-6.6914c0.69141-0.96484 1.2031-2.043 1.5078-3.1875zm13.375-1.0898c0.57031 0.75 1.2695 1.4023 2.0586 1.918-0.19531 0.76953-0.25 1.5703-0.16406 2.3594h-6.9609v-4.2031c1.625 0.69531 3.4648 0.66797 5.0664-0.074219zm-12.043 13.094v-5.6914h10.98v5.6914zm14.105-5.6914h0.69922c0.54297 1.0508 1.3125 1.9688 2.2539 2.6875v3.0039h-2.9531zm-17.23 0v5.6914h-3.1016v-5.6914zm-3.1016 8.8164h10.883v4.8477h-10.883zm11.672 7.9727-5.4453 1.8711v-1.8711zm-23.281-25.719c0.035156-2.6953 1.6367-5.1289 4.1016-6.2266 2.4648-1.0977 5.3438-0.66016 7.3711 1.1211 0.61328 0.51953 1.5195 0.48828 2.0938-0.074219 0.1875-0.18359 0.33203-0.41016 0.42188-0.65625 0.55078-1.7891 2.1992-3.0117 4.0742-3.0195 1.4844-0.12891 2.2773 1.0117 3.418 0.98437 0.37109-0.046874 0.71875-0.20703 0.99219-0.45703 1.2852-1.3164 3.0391-2.0703 4.8789-2.0859 1.8398-0.015625 3.6133 0.70312 4.918 2 0.32031 0.27734 0.73047 0.4375 1.1562 0.44531 0.96875-0.38281 1.9883-0.63281 3.0312-0.73438 1.7539 0.011719 3.3906 0.90625 4.3398 2.3867 0.95312 1.4766 1.0938 3.332 0.375 4.9375-0.15234 0.38281-0.17578 0.80469-0.058594 1.2031 0.16016 0.37109 0.44141 0.67969 0.79297 0.87891 1.8125 0.83594 2.9531 2.6758 2.8906 4.6719-0.058594 1.9961-1.3086 3.7617-3.168 4.4844-1.8633 0.72266-3.9766 0.26172-5.3672-1.168-1.3906-1.4297-1.793-3.5547-1.0195-5.3945 0.33594-0.79297-0.03125-1.7109-0.82422-2.0508-1.207-0.54688-2.1797-1.4961-2.7539-2.6875-0.32812-0.52344-0.94531-0.78906-1.5508-0.67188-0.27734 0.042969-0.53516 0.15625-0.75781 0.32812-1.293 1.0781-3.1992 0.97656-4.3711-0.23438-0.40234-0.48828-0.60547-1.1289-1.3047-1.2773-0.69922-0.20703-1.4492 0.078125-1.8398 0.69531-1.1406 2.082-3.7422 2.8594-5.8398 1.7461-0.25-0.12109-0.52734-0.17188-0.80859-0.15234-0.53906 0.023437-1.0273 0.33203-1.2852 0.80859-0.67188 9.2422-13.336 9.4844-13.906 0.19922zm11.609 25.719h3.1016v2.9492l-3.1016 1.0664zm53.941-11.234v4.2344l-81.25 27.438v-3.7266zm-80.617 34.758 80.617-27.223v9.0859h-13.145c-0.85156 0.015625-1.5312 0.71094-1.5312 1.5625s0.67969 1.543 1.5312 1.5625h13.145v6.3359l-9.7695-0.003906c-0.85156 0.019532-1.5352 0.71094-1.5352 1.5625 0 0.85156 0.68359 1.5469 1.5352 1.5625h9.7695v5.5508z"/>
 <path d="m69.508 70.266h2.9141c0.85156-0.019531 1.5312-0.71484 1.5312-1.5664 0-0.84766-0.67969-1.543-1.5312-1.5586h-2.9141c-0.85156 0.015625-1.5312 0.71094-1.5312 1.5625 0 0.84766 0.67969 1.543 1.5312 1.5625z"/>
 <path d="m75.027 76.598h-25.027c-0.85156 0.019532-1.5312 0.71094-1.5312 1.5625 0 0.85156 0.67969 1.5469 1.5312 1.5625h25.027c0.85156-0.015625 1.5312-0.71094 1.5312-1.5625 0-0.85156-0.67969-1.543-1.5312-1.5625z"/>
 <path d="m11.949 56.203c0.027343 2.3281 1.9219 4.1992 4.2461 4.1992 2.3281 0 4.2227-1.8711 4.2461-4.1992-0.023437-2.3242-1.918-4.1992-4.2461-4.1992-2.3242 0-4.2188 1.875-4.2461 4.1992zm4.2461-1.1211v0.003907c0.61328 0.011718 1.1016 0.50781 1.1016 1.1172 0 0.61328-0.48828 1.1094-1.1016 1.1211-0.60937-0.011719-1.0977-0.50781-1.0977-1.1211 0-0.60938 0.48828-1.1055 1.0977-1.1172z"/>
 <path d="m22.215 25.316c2.3281-0.027344 4.1992-1.918 4.1992-4.2461 0-2.3242-1.875-4.2188-4.1992-4.2461-2.3242 0.027343-4.1953 1.9219-4.1953 4.2461 0 2.3281 1.8711 4.2188 4.1953 4.2461zm0-5.3672c0.60938 0.015625 1.0977 0.51172 1.0977 1.1211 0 0.61328-0.48828 1.1094-1.0977 1.1211-0.60938-0.011718-1.0977-0.50781-1.0977-1.1211 0-0.60937 0.48828-1.1055 1.0977-1.1211z"/>
 <path d="m45.586 18.398c0.85156-0.019532 1.5352-0.71484 1.5352-1.5664 0-0.85547-0.68359-1.5508-1.5352-1.5703-0.85547 0.019531-1.5352 0.71484-1.5352 1.5703 0 0.85156 0.67969 1.5469 1.5352 1.5664z"/>
 <path d="m12.164 37.609c0.85156-0.019531 1.5352-0.71484 1.5352-1.5664 0-0.85547-0.68359-1.5508-1.5352-1.5703-0.85547 0.019532-1.5391 0.71484-1.5391 1.5703 0 0.85156 0.68359 1.5469 1.5391 1.5664z"/>
 <path d="m30.594 53.523c-0.015625-0.85547-0.71094-1.5391-1.5664-1.5391-0.85156 0-1.5508 0.68359-1.5664 1.5391 0.015624 0.85156 0.71484 1.5352 1.5664 1.5352 0.85547 0 1.5508-0.68359 1.5664-1.5352z"/>
 <path d="m79.016 25.32c0.85156-0.015624 1.5352-0.71094 1.5352-1.5664 0-0.85547-0.68359-1.5508-1.5352-1.5664-0.85547 0.015625-1.5391 0.71484-1.5391 1.5664 0 0.85547 0.68359 1.5508 1.5391 1.5664z"/>
 <path d="m22.215 67.383c0.85547-0.015624 1.5352-0.71484 1.5352-1.5664 0-0.85547-0.67969-1.5508-1.5352-1.5664-0.85156 0.015625-1.5352 0.71094-1.5352 1.5664 0 0.85156 0.68359 1.5508 1.5352 1.5664z"/>
 <path d="m67.316 20.09c2.3242-0.027344 4.1953-1.918 4.1953-4.2461 0-2.3242-1.8711-4.2188-4.1953-4.2461-2.3281 0.027344-4.1992 1.9219-4.1992 4.2461 0 2.3281 1.8711 4.2188 4.1992 4.2461zm0-5.3672c0.60938 0.011719 1.0977 0.51172 1.0977 1.1211s-0.48828 1.1094-1.0977 1.1211c-0.60938-0.011719-1.0977-0.51172-1.0977-1.1211s0.48828-1.1094 1.0977-1.1211z"/>
 <path d="m84.836 41.512c2.3242-0.023438 4.1992-1.918 4.1992-4.2461 0-2.3242-1.875-4.2188-4.1992-4.2422-2.3281 0.023437-4.1992 1.918-4.1992 4.2422 0 2.3281 1.8711 4.2227 4.1992 4.2461zm0-5.3672v0.003907c0.60937 0.011718 1.0977 0.50781 1.0977 1.1172 0 0.61328-0.48828 1.1094-1.0977 1.1211-0.61328-0.011719-1.1016-0.50781-1.1016-1.1211 0-0.60938 0.48828-1.1055 1.1016-1.1172z"/>
</svg>