<svg xmlns="http://www.w3.org/2000/svg" version="1.1" viewBox="-5.0 -10.0 110.0 135.0">
 <path d="m19.508 29.867c-6.8359 0-12.398 5.5625-12.398 12.398s5.5625 12.398 12.398 12.398c6.8359 0 12.398-5.5625 12.398-12.398 0.003906-6.8359-5.5586-12.398-12.398-12.398zm0 22.367c-5.4961 0-9.9648-4.4688-9.9648-9.9648 0-5.4961 4.4688-9.9648 9.9648-9.9648 5.4961 0 9.9648 4.4688 9.9648 9.9648 0 5.4922-4.4688 9.9648-9.9648 9.9648zm32.484 14.594h-17.047c-2.3086-6.4688-8.5273-10.914-15.438-10.914-9.0312 0-16.383 7.3477-16.383 16.383v17.984c0 3.543 2.8828 6.4297 6.4297 6.4297h24.391l11.539 0.054687h0.007813c0.56641 0 1.0547-0.38672 1.1836-0.9375l6.5039-27.5c0.085937-0.36328 0-0.74219-0.23047-1.0352-0.23047-0.29688-0.58203-0.46484-0.95703-0.46484zm-42.438 27.445c-2.2031 0-3.9961-1.793-3.9961-3.9961v-17.98c0-7.6914 6.2578-13.949 13.949-13.949 5.5859 0 10.645 3.4141 12.824 8.4805h-1.9258c-0.56641 0-1.0547 0.38672-1.1836 0.9375l-3.8047 16.086h-9.1836l2.2422-11.883c0.125-0.66016-0.30859-1.2969-0.97266-1.4219-0.66016-0.125-1.2969 0.30859-1.4219 0.97266l-2.5078 13.305v0.003906l-0.003907 0.015625c-0.003906 0.011719-0.003906 0.027344-0.003906 0.039062-0.003906 0.023438-0.007812 0.050782-0.011718 0.074219-0.003907 0.023438-0.003907 0.046875-0.003907 0.074219 0 0.011719-0.003906 0.027344-0.003906 0.039062v0.007813c0 0.027344 0.003906 0.058594 0.003906 0.085937 0 0.011719 0 0.023438 0.003907 0.035157 0.003906 0.027343 0.007812 0.050781 0.011718 0.078125 0.003906 0.011718 0.003906 0.027344 0.007813 0.042968 0.003906 0.019532 0.011719 0.042969 0.015625 0.0625 0.003906 0.019532 0.007812 0.035157 0.015625 0.054688 0.003906 0.015625 0.011719 0.027344 0.015625 0.042969 0.007812 0.023437 0.015625 0.046875 0.023437 0.066406 0.003907 0.011719 0.007813 0.019531 0.015625 0.027344 0.011719 0.027343 0.023438 0.050781 0.039063 0.074219 0.003906 0.007812 0.011719 0.015624 0.015625 0.023437 0.015625 0.023437 0.027344 0.050781 0.046875 0.074219 0.007812 0.011718 0.019531 0.023437 0.027343 0.035156 0.011719 0.019531 0.027344 0.039062 0.042969 0.054688 0.015625 0.019531 0.03125 0.035156 0.046875 0.050781 0.011719 0.011719 0.019532 0.023437 0.03125 0.035156 0.019532 0.019531 0.039063 0.039063 0.0625 0.054687 0.007813 0.007813 0.015625 0.015626 0.023438 0.023438 0.023437 0.019531 0.042968 0.035156 0.066406 0.050781 0.007812 0.007813 0.019531 0.011719 0.027344 0.019531 0.019531 0.011719 0.039062 0.023438 0.058594 0.035157 0.011718 0.007812 0.027343 0.015625 0.042968 0.023437 0.015625 0.007813 0.035156 0.015625 0.050782 0.023438 0.019531 0.007812 0.039062 0.019531 0.058593 0.027344 0.011719 0.003906 0.027344 0.007812 0.039063 0.015624 0.023437 0.007813 0.050781 0.019532 0.078125 0.027344 0.011719 0.003906 0.023437 0.003906 0.035156 0.007813 0.027344 0.007812 0.054687 0.015625 0.085937 0.019531 0.003907 0 0.003907 0 0.007813 0.003906h0.011719c0.070312 0.011719 0.14062 0.019532 0.21484 0.019532h0.003906 0.003906 19.18c2.2031 0 3.9961 1.793 3.9961 3.9961s-1.793 3.9961-3.9961 3.9961zm34.973 0.050781-5.5625-0.027344c0.88281-1.1016 1.4141-2.5 1.4141-4.0195 0-3.5469-2.8828-6.4297-6.4297-6.4297h-6.0273l3.4492-14.586h2.6719 0.003906 16.406zm35.965-64.402c-6.8359 0-12.398 5.5625-12.398 12.398 0 6.8359 5.5625 12.398 12.398 12.398 6.8359 0 12.398-5.5625 12.398-12.398 0-6.8359-5.5625-12.398-12.398-12.398zm0 22.363c-5.4961 0-9.9648-4.4688-9.9648-9.9648 0-5.4961 4.4688-9.9648 9.9648-9.9648 5.4961 0 9.9648 4.4688 9.9648 9.9648 0 5.4961-4.4688 9.9648-9.9648 9.9648zm0 3.6797c-9.0352 0-16.383 7.3516-16.383 16.383v11.855c-2.5977 0.82422-4.4883 3.2617-4.4883 6.1289 0 3.1133 2.2266 5.7188 5.1719 6.3047 0.16016 0.078125 0.33984 0.125 0.53516 0.125h25.121c3.543 0 6.4297-2.8828 6.4297-6.4297l-0.003906-17.98c0-9.0352-7.3516-16.387-16.383-16.387zm9.9531 38.363h-24.395c-2.2031 0-3.9961-1.793-3.9961-3.9961s1.793-3.9961 3.9961-3.9961h19.18 0.003906 0.003906c0.074219 0 0.14453-0.007813 0.21484-0.019532h0.011719c0.003906 0 0.003906 0 0.007812-0.003906 0.027344-0.003906 0.054688-0.011719 0.082032-0.019531 0.011718-0.003907 0.023437-0.003907 0.035156-0.007813 0.023437-0.007812 0.050781-0.015625 0.074218-0.027344 0.011719-0.003906 0.027344-0.007812 0.039063-0.015624 0.019531-0.007813 0.039063-0.019532 0.058594-0.027344 0.015625-0.007813 0.035156-0.015625 0.050781-0.023438 0.011719-0.007812 0.027344-0.015625 0.039062-0.023437 0.019532-0.011719 0.042969-0.023438 0.0625-0.039063 0.007813-0.003906 0.015626-0.011718 0.023438-0.019531 0.023438-0.015625 0.046875-0.035156 0.070312-0.050781l0.019532-0.019532c0.023437-0.019531 0.042968-0.039062 0.066406-0.058593 0.011719-0.011719 0.019531-0.023438 0.03125-0.035157 0.015625-0.019531 0.03125-0.035156 0.046875-0.050781 0.015625-0.019531 0.027344-0.039062 0.042969-0.054687 0.007812-0.011719 0.019531-0.023438 0.027344-0.035156 0.015624-0.023438 0.03125-0.050782 0.042968-0.074219 0.003906-0.007813 0.011719-0.015625 0.015625-0.027344 0.011719-0.023437 0.027344-0.050781 0.039063-0.078125 0.003906-0.007812 0.007812-0.019531 0.011718-0.027344 0.007813-0.023437 0.019532-0.046875 0.027344-0.070312 0.003906-0.015625 0.011719-0.027344 0.015625-0.042969 0.003907-0.019531 0.011719-0.035156 0.015625-0.054687 0.003906-0.019532 0.011719-0.039063 0.015625-0.0625 0.003907-0.015626 0.003907-0.027344 0.007813-0.042969 0.003906-0.027344 0.007812-0.050781 0.011718-0.078125 0-0.011719 0-0.023438 0.003907-0.035156 0.003906-0.027344 0.003906-0.058594 0.003906-0.085938v-0.007812c0-0.011719-0.003906-0.027344-0.003906-0.039063 0-0.023437 0-0.046875-0.003907-0.074219-0.003906-0.023437-0.007812-0.046875-0.011718-0.070312-0.003906-0.011719-0.003906-0.027344-0.003906-0.039063l-0.003907-0.019531v-0.003906l-2.5078-13.301c-0.125-0.66016-0.76172-1.0977-1.4219-0.97266s-1.0977 0.76172-0.97266 1.4219l2.2422 11.883h-17.223v-11.551c0-7.6914 6.2578-13.949 13.949-13.949 7.6914 0 13.949 6.2578 13.949 13.949v17.984c0 2.1992-1.793 3.9922-3.9961 3.9922zm-81.504-66.055h22.039v4.6172c0 0.45703 0.25781 0.875 0.66406 1.0859 0.17578 0.089844 0.36328 0.13281 0.55469 0.13281 0.25391 0 0.50391-0.078125 0.71484-0.23047l7.7539-5.6055h2.4219c2.0547 0 3.7305-1.6719 3.7305-3.7305l-0.007812-17.578c0-2.0547-1.6719-3.7305-3.7305-3.7305l-34.141 0.003906c-2.0547 0-3.7305 1.6719-3.7305 3.7305v17.578c0 2.0547 1.6719 3.7266 3.7305 3.7266zm-1.2969-21.309c0-0.71484 0.58203-1.293 1.293-1.293h34.145c0.71484 0 1.293 0.58203 1.293 1.293v17.578c0 0.71484-0.58203 1.293-1.293 1.293h-2.8164-0.019531c-0.023438 0-0.046875 0.003906-0.070313 0.003906-0.015625 0-0.035156 0.003906-0.050781 0.003906-0.023438 0.003906-0.042969 0.007812-0.066406 0.011719-0.019532 0.003906-0.035156 0.003906-0.050782 0.007812-0.019531 0.003907-0.039062 0.011719-0.058593 0.015625s-0.039063 0.007813-0.054688 0.015625c-0.019531 0.007813-0.035156 0.011719-0.054687 0.019531-0.019532 0.007813-0.039063 0.015626-0.058594 0.023438-0.015625 0.007812-0.03125 0.015625-0.046875 0.023438-0.019531 0.011718-0.039063 0.019531-0.058594 0.03125-0.015625 0.007812-0.027343 0.019531-0.042969 0.027343-0.019531 0.011719-0.039062 0.023438-0.058593 0.039063-0.003907 0.003906-0.011719 0.007812-0.015625 0.007812l-6.1406 4.4414v-3.4531c0-0.67188-0.54297-1.2188-1.2188-1.2188h-23.258c-0.71484 0-1.293-0.58203-1.293-1.293zm59.445 26.914c0.21094 0.15234 0.46094 0.23047 0.71484 0.23047 0.19141 0 0.37891-0.042969 0.55469-0.13281 0.40625-0.20703 0.66406-0.62891 0.66406-1.0859v-4.6172h22.039c2.0547 0 3.7305-1.6719 3.7305-3.7305l-0.003907-17.578c0-2.0547-1.6719-3.7305-3.7305-3.7305l-34.141 0.003906c-2.0547 0-3.7305 1.6719-3.7305 3.7305v17.578c0 2.0547 1.6719 3.7305 3.7305 3.7305h2.4219zm-11.469-9.3359v-17.578c0-0.71484 0.58203-1.293 1.293-1.293h34.145c0.71484 0 1.293 0.58203 1.293 1.293v17.578c0 0.71484-0.58203 1.293-1.293 1.293l-23.254 0.003906c-0.67188 0-1.2188 0.54297-1.2188 1.2188v3.4531l-6.1406-4.4414c-0.003906-0.003906-0.011718-0.007812-0.015624-0.011718-0.019532-0.011719-0.039063-0.023438-0.058594-0.039063-0.015625-0.007812-0.027344-0.019531-0.042969-0.027343-0.019531-0.011719-0.039063-0.019532-0.058594-0.03125-0.015625-0.007813-0.03125-0.015626-0.050781-0.023438s-0.039062-0.015625-0.058594-0.023438c-0.019531-0.007812-0.035156-0.015624-0.054687-0.019531-0.019531-0.007812-0.035157-0.011719-0.054688-0.015625s-0.039062-0.011718-0.0625-0.015625c-0.015625-0.003906-0.035156-0.007812-0.050781-0.007812-0.023438-0.003907-0.042969-0.007813-0.066406-0.011719-0.015625-0.003906-0.035156-0.003906-0.050782-0.003906-0.023437-0.003906-0.046874-0.003906-0.070312-0.003906h-0.019531l-2.8125 0.003906c-0.71484 0-1.2969-0.58203-1.2969-1.2969z"/>
</svg>