<svg xmlns="http://www.w3.org/2000/svg" version="1.1" viewBox="-5.0 -10.0 110.0 135.0">
 <path d="m48.305 70.484h13.305v26.391h-13.305zm-13.68-62.449c3.2969 0 5.9727 2.6719 5.9727 5.9727 0 3.2969-2.6719 5.9727-5.9727 5.9727-3.2969 0-5.9727-2.6719-5.9727-5.9727 0.003906-3.3008 2.6758-5.9727 5.9727-5.9727zm-17.16 41.375c1.5703 0.28906 3.0898-0.75391 3.3828-2.3242l1.668-9.0039c0.49219-2.6484 2.7109-4.0469 4.6914-5.5898 0.0625-0.050782 0.14453-0.058594 0.21484-0.023438 0.074219 0.035156 0.11719 0.10156 0.12109 0.18359l0.77344 26.879c0.011719 0.38672-0.015625 0.71875-0.085937 1.1016l-3.2422 17.48c-0.21094 1.1445 0.070313 2.2109 0.82031 3.1016 0.75 0.88672 1.7578 1.3477 2.918 1.332l0.39844-0.003906c1.7617-0.023438 3.2344-1.2266 3.6133-2.9492l3.4414-15.723c0.14062-0.64062 0.21094-1.1992 0.23437-1.8516l0.42188-11.738c0.003906-0.078125 0.046874-0.14453 0.11719-0.17969 0.070313-0.035156 0.14844-0.027343 0.21484 0.019532l5.9648 4.2695c0.57031 0.40625 0.94141 0.91797 1.1562 1.5859l3.2734 10.184c0.50781 1.5859 1.9297 2.6133 3.5977 2.6016h0.14844c1.1992-0.007813 2.2305-0.52344 2.957-1.4805s0.94922-2.0859 0.63281-3.2461l-3.6211-13.41c-0.375-1.3867-1.1016-2.4727-2.2461-3.3398l-6.6367-5.0547v-11.449c0-0.074219 0.039063-0.14062 0.10156-0.17969 0.066406-0.039062 0.14062-0.039062 0.20703 0l4.5039 2.543c4.5352 2.5625 12.23-3.3789 16.574-5.7383 1.4023-0.76172 1.9258-2.5312 1.1641-3.9336-0.76172-1.4023-2.5312-1.9258-3.9336-1.1641l-6.7617 3.6758c-4.1484 2.2539-8.5703-4.3633-15.359-4.3633h-6c-6.4688 0-14.434 6.5312-15.578 12.711l-2.168 11.699c-0.29297 1.5664 0.75391 3.0859 2.3203 3.3789zm44.066-28.793 1.6914-0.007813c0.73828-0.125 1.3203-0.45703 1.3203-1.0352 0-0.27734-0.007813-0.54297-0.007813-0.80469h-4.3516c-0.003906 0.25781-0.007813 0.52734-0.007813 0.80469 0 0.58594 0.59766 0.92188 1.3555 1.043zm-0.003906-16.66c0-0.46094 0.37109-0.83203 0.83203-0.83203s0.83203 0.37109 0.83203 0.83203v0.63281c0 0.46094-0.37109 0.83203-0.83203 0.83203s-0.83203-0.37109-0.83203-0.83203zm5.9805 1.7891c0.32422-0.32422 0.85156-0.32422 1.1797 0 0.32422 0.32422 0.32422 0.85156 0 1.1797l-0.44922 0.44531c-0.32422 0.32422-0.85156 0.32422-1.1797 0-0.32422-0.32422-0.32422-0.85156 0-1.1797zm2.9648 5.4961c0.46094 0 0.83203 0.37109 0.83203 0.83203 0 0.46094-0.37109 0.83203-0.83203 0.83203h-0.63281c-0.46094 0-0.83203-0.37109-0.83203-0.83203 0-0.46094 0.37109-0.83203 0.83203-0.83203zm-16.23 1.6641c-0.46094 0-0.83203-0.37109-0.83203-0.83203 0-0.46094 0.37109-0.83203 0.83203-0.83203h0.63281c0.46094 0 0.83203 0.37109 0.83203 0.83203 0 0.46094-0.37109 0.83203-0.83203 0.83203zm1.7891-5.9805c-0.32422-0.32422-0.32422-0.85156 0-1.1797 0.32422-0.32422 0.85156-0.32422 1.1797 0l0.44531 0.44531c0.32422 0.32422 0.32422 0.85156 0 1.1797-0.32422 0.32422-0.85156 0.32422-1.1797 0zm4.8594 1.9883c0.26562-0.10547 0.57031 0.023438 0.67578 0.28906 0.10547 0.26562-0.023437 0.57031-0.28906 0.67578-0.24609 0.10156-0.48047 0.26953-0.66406 0.48828-0.17578 0.20703-0.30469 0.45703-0.36328 0.72656-0.058594 0.28125-0.33594 0.46094-0.61719 0.39844-0.28125-0.058594-0.46094-0.33594-0.39844-0.61719 0.097656-0.44141 0.30469-0.84375 0.58984-1.1758 0.28906-0.35156 0.66406-0.625 1.0664-0.78516zm3.6797 8.8164c0.082032-0.73047 0.33203-1.4023 1.0391-2.0391 1.0703-0.96875 1.6758-2.3516 1.5898-3.7891-0.15625-2.6484-2.1641-4.6484-4.8398-4.6484s-4.6836 1.9961-4.8398 4.6484c-0.085937 1.4414 0.51953 2.8203 1.5898 3.7891 0.70703 0.63672 0.95312 1.3086 1.0391 2.0391h1.6914v-2.7109c0-0.28906 0.23438-0.51953 0.51953-0.51953 0.28906 0 0.51953 0.23438 0.51953 0.51953v2.7109zm-42.602 66.492h13.305v12.508h-13.305zm49.633-35.348h13.305v47.855l-13.305 0.003906z" fill-rule="evenodd"/>
</svg>