<svg xmlns="http://www.w3.org/2000/svg" xmlns:xlink="http://www.w3.org/1999/xlink" version="1.1" x="0px" y="0px" viewBox="0 0 100 125" style="enable-background:new 0 0 100 125;" xml:space="preserve" ><style type="text/css">
	.st0{fill-rule:evenodd;clip-rule:evenodd;stroke-width:4;}
</style><path stroke-width="4" class="st0" d="M54.0671158,41.6062508h-49.1819c-0.8136001,0-1.5555,0.334301-2.0961001,0.8745995  c-0.5374999,0.5388985-0.8707999,1.280201-0.8707999,2.0920982v6.7801018  c-0.0014,1.6250992,1.3400999,2.9682999,2.9668999,2.9667015h0.1224999v8.2361984v9.184597v9.1847992v9.1847v0.0004044  c0,0.5235977,0.4247003,0.9485016,0.9485002,0.9485016h23.5198002h23.5203991c0.5236015,0,0.9483986-0.4249039,0.9483986-0.9485016  v-0.0004044v-9.1847v-9.1847992v-9.184597v-8.2361984h0.122303c1.624897,0.0016975,2.9680977-1.3402023,2.9667969-2.9667015  v-6.7801018C57.035614,42.9480515,55.6935158,41.6046486,54.0671158,41.6062508z M40.2875137,54.3197517v7.2876968H29.4760151  H18.6646137v-7.2876968H40.2875137z M17.716114,63.5045509h10.8115005v7.2875023H17.716114H6.9046144v-7.2875023H17.716114z   M52.0478134,72.6891479v7.2877045h-9.8633995v-7.2877045H52.0478134z M40.2875137,79.9768524H29.4760151H18.6646137v-7.2877045  h10.8114014h10.8114986V79.9768524z M6.9046144,79.9768524v-7.2877045h9.8630991v7.2877045H6.9046144z M6.9046144,89.1616516  V81.873848H17.716114h10.8115005v7.2878036H6.9046144z M52.0478134,89.1616516H30.4245148V81.873848h10.8115005h10.8117981  V89.1616516z M52.0478134,70.7920532H41.2360153H30.4245148v-7.2875023h10.8115005h10.8117981V70.7920532z M16.7677135,61.6074486  H6.9046144v-7.2876968h9.8630991V61.6074486z M52.0478134,61.6074486h-9.8633995v-7.2876968h9.8633995V61.6074486z   M55.1367149,51.3530502c0,0.2953987-0.1192017,0.5626984-0.3111992,0.7546005  c-0.1923027,0.1941986-0.4609032,0.3148003-0.7584,0.3149986h-1.0707016H41.2360153H17.716114H5.9562144H4.8852143  c-0.5931001-0.0009995-1.0689001-0.4764977-1.0697999-1.0695992v-6.7801018c0-0.2972984,0.1206999-0.5660973,0.3151999-0.7585983  c0.1917-0.1917,0.4591002-0.3111,0.7546-0.3111h49.1819c0.5928993,0.0009995,1.0687981,0.4766998,1.0695992,1.0696983V51.3530502z   M98.5514145,8.9410496h-6.7067032c-0.5235977,0-0.9483948,0.4248009-0.9483948,0.9485006v10.8380003H67.678215V9.8895502  c0-0.5236998-0.4250031-0.9485006-0.9486008-0.9485006h-6.7067986c-0.5239029,0-0.9487,0.4248009-0.9487,0.9485006v80.2209015  c0,0.5235977,0.4247971,0.9485016,0.9487,0.9485016h6.7067986c0.5235977,0,0.9486008-0.4249039,0.9486008-0.9485016v-4.3207016  h23.2181015v4.3207016c0,0.5235977,0.4247971,0.9485016,0.9483948,0.9485016h6.7067032  c0.5236969,0,0.9486008-0.4249039,0.9486008-0.9485016V9.8895502C99.5000153,9.3658504,99.0751114,8.9410496,98.5514145,8.9410496z   M90.8963165,46.2537498H67.678215v-4.8097992h23.2181015V46.2537498z M67.678215,48.1508484h23.2181015v10.2157021H67.678215  V48.1508484z M67.678215,60.2635498h23.2181015v4.8095016H67.678215V60.2635498z M90.8963165,39.5468483H67.678215V29.3311501  h23.2181015V39.5468483z M67.678215,66.9701538h23.2181015v10.2156982H67.678215V66.9701538z M90.8963165,22.6245499v4.8096008  H67.678215v-4.8096008H90.8963165z M65.7812119,89.16185h-4.8098984V10.8379498h4.8098984v10.8381004v6.7066994v12.1126003  v6.7069016V59.314949v6.706604v12.1126938v6.7069016V89.16185z M67.678215,83.8927536v-4.809906h23.2181015v4.809906H67.678215z   M97.6029129,89.16185h-4.8097v-4.3207016v-6.7069016V66.021553v-6.706604V47.2022514v-6.7069016V28.3827496v-6.7066994V10.8379498  h4.8097V89.16185z M53.5131149,25.7543507H19.3816147c-0.5237999,0-0.9486008,0.424799-0.9486008,0.9483986v1.7070999  c-1.6252003,0-5.1051998,0-8.5035992,0l2.7716999-2.7716999c0.8751001-0.8830986-0.4637003-2.2122002-1.3413-1.3414001  l-2.7716007,2.7716007v-3.9197006c-0.0056-1.2433987-1.8922997-1.2364998-1.8971996,0v3.9197006l-2.7716-2.7716007  c-0.8831-0.8751984-2.2122998,0.4637012-1.3415,1.3414001l2.7718,2.7716999c-2.2814999,0-3.9196,0-3.9196,0  c-1.2451999,0.0056-1.2349999,1.892601-0.0003999,1.8971004c0,0,1.6381999,0,3.9198003,0l-2.7716002,2.7715988  c-0.8750999,0.8830032,0.4636002,2.2123032,1.3415,1.3415031l2.7716-2.7716007v3.9196987  c0.0054998,1.2433014,1.8922997,1.2363014,1.8971996,0v-3.9196987l2.7716007,2.7716007  c0.8829994,0.8751984,2.2121-0.4639015,1.3413-1.3415031l-2.7716007-2.7715988c3.3985004,0,6.8785,0,8.5035,0v1.7069016  c0,0.5237999,0.4248009,0.948597,0.9486008,0.948597c0,0,34.1315002,0,34.1310997-0.0000992  c3.1328011,0.1043015,4.8046989-4.0470982,2.5457993-6.1501999C55.3953133,26.1619492,54.5036125,25.7533493,53.5131149,25.7543507z   M54.7170143,30.5632496v0.0039005c-0.3067017,0.3071995-0.7333984,0.4983006-1.2038994,0.4983006H20.3301144V27.65135h33.1829987  c0.9412994-0.0023994,1.703701,0.7702007,1.7061996,1.7070007C55.2193146,29.8264503,55.0267143,30.2535496,54.7170143,30.5632496z"/></svg>