<svg xmlns="http://www.w3.org/2000/svg" viewBox="0 0 64 80" x="0px" y="0px"><title>chimney</title><g><path d="M61,52H58.802L54.97607,34.7832A.99987.99987,0,0,0,54,34H29V26h1a1,1,0,0,0,1-1V19a1,1,0,0,0-1-1H12a1,1,0,0,0-1,1v6a1,1,0,0,0,1,1h1v8H10a.99987.99987,0,0,0-.97607.7832L5.198,52H3a1,1,0,0,0-1,1v8a1,1,0,0,0,1,1H61a1,1,0,0,0,1-1V53A1,1,0,0,0,61,52ZM13,20H29v4H13Zm14,6v6H22a1,1,0,0,0,0,2h5V46H15V38h5a1,1,0,0,0,0-2H15V30h5a1,1,0,0,0,0-2H15V26ZM10.80225,36H13V47a1,1,0,0,0,1,1H28a1,1,0,0,0,1-1V36H53.19775l3.55579,16H7.24646ZM60,60H4V58h9a1,1,0,0,0,0-2H4V54H60Z"/><path d="M38,4h3a1,1,0,0,0,0-2H38a1,1,0,0,0,0,2Z"/><path d="M17,16a1,1,0,0,0,1-1V9a5.00588,5.00588,0,0,1,5-5h7a1,1,0,0,0,0-2H23a7.00787,7.00787,0,0,0-7,7v6A1,1,0,0,0,17,16Z"/><path d="M25,10a1,1,0,0,0-1,1v4a1,1,0,0,0,2,0V12h9a1,1,0,0,0,0-2Z"/><path d="M39,7a1,1,0,0,0-1-1H23a3.00328,3.00328,0,0,0-3,3v6a1,1,0,0,0,2,0V9a1.0013,1.0013,0,0,1,1-1H38A1,1,0,0,0,39,7Z"/><circle cx="34" cy="3" r="1"/><circle cx="17" cy="57" r="1"/><circle cx="18" cy="43" r="1"/><circle cx="22" cy="43" r="1"/><circle cx="21" cy="57" r="1"/></g>
</svg>