<svg fill="black" xmlns="http://www.w3.org/2000/svg" version="1.1" viewBox="-5.0 -10.0 110.0 135.0">
 <path d="m94.562 62.629c-1.293-3.3281-5.0352-4.9766-8.3633-3.6875l-20.633 8.1133c-0.21094-2.3438-1.6836-4.3828-3.8398-5.3164l-13.477-5.8711c-3.3867-4.2188-11.684-13.172-19.93-11.438l-10.359 1.0078-0.046876-2.8008h-0.003906c-0.011718-0.67188-0.55859-1.2109-1.2305-1.2109h-0.019532l-10.449 0.18359c-0.67969 0.011719-1.2227 0.57422-1.2109 1.2539l0.58203 33.535c0.011719 0.67187 0.5625 1.2109 1.2305 1.2109h0.019531l10.449-0.18359h0.003906c0.67969-0.011719 1.2188-0.57422 1.207-1.2539l-0.10938-6.332 4.3672-0.21875 21.449 12.965c2.4727 1.5195 5.3164 2.332 8.2148 2.3438 2.0234-0.007813 4.0273-0.39453 5.9062-1.1445l32.566-12.801h0.003906c3.3125-1.3047 4.9492-5.0352 3.6719-8.3555zm-86.539 12.5-0.53906-31.078 7.9883-0.13672 0.53906 31.074zm81.965-6.4336-32.566 12.801-0.003906-0.003906c-3.9141 1.6133-8.3633 1.2383-11.949-1.0117l-21.766-13.156c-0.20703-0.125-0.45312-0.1875-0.69922-0.17578l-4.6641 0.23047-0.33984-19.473 10.625-1.0352c0.050781-0.003906 0.097656-0.011719 0.14453-0.023438 7.2734-1.5898 15.418 7.8555 17.742 10.789 0.125 0.16016 0.28906 0.28125 0.47266 0.36328l13.762 6c1.6094 0.72266 2.5586 2.4102 2.3438 4.1602-3.3203 1.8203-9.793-0.73828-20.246-4.875-1.3242-0.52344-2.7188-1.0742-4.1797-1.6484-0.63281-0.25-1.3477 0.0625-1.5938 0.69531-0.25 0.63281 0.0625 1.3477 0.69531 1.5977 1.457 0.57031 2.8477 1.1211 4.1719 1.6445 8.4883 3.3594 14.293 5.6562 18.477 5.6562 1.543 0.050781 3.0703-0.375 4.3633-1.2188l22.324-8.7812c0.98047-0.38281 2.0742-0.35938 3.0391 0.070312 0.97656 0.42578 1.7461 1.2227 2.1289 2.2148 0.78906 2.0625-0.23047 4.3711-2.2852 5.1758zm-36.125-27.875 13.984 20.633c0.22656 0.33984 0.60938 0.54297 1.0195 0.54297 0.40625 0 0.78906-0.20312 1.0195-0.54297l13.977-20.633c0.27344-0.40234 0.28125-0.92969 0.023438-1.3438l-5.7461-9.1758c-0.22656-0.35938-0.62109-0.57812-1.043-0.57812h-16.465c-0.42187 0-0.81641 0.21875-1.043 0.57812l-5.75 9.1797v-0.003907c-0.25781 0.41406-0.25 0.94141 0.023437 1.3438zm7.1289 0.53906 4.1875 11.77-7.9805-11.77zm11.16-9.1797 2.2109 6.7148h-11l2.207-6.7148zm8.3672 9.1797-7.9648 11.766 4.1836-11.766zm-16.914 0h10.52l-5.2578 14.789zm17.016-2.4609h-3.6641l-2.2109-6.7148h1.668zm-19.305-6.7148h1.6641l-2.207 6.7148h-3.668zm12.395-5.1133 5.5781 0.19922 2.957 4.7305c0.22656 0.35938 0.62109 0.57812 1.043 0.57812 0.10938 0 0.21484-0.015625 0.32031-0.042969 0.52344-0.14062 0.89062-0.60156 0.91016-1.1445l0.19922-5.5781 4.7266-2.9609c0.45703-0.28516 0.67578-0.83984 0.53516-1.3633-0.14062-0.51953-0.60547-0.89062-1.1445-0.91016l-5.5742-0.19922-2.9609-4.7305c-0.28906-0.45703-0.83984-0.67578-1.3633-0.53516-0.51953 0.14062-0.89062 0.60547-0.91016 1.1445l-0.19922 5.5742-4.7266 2.9688c-0.46094 0.28516-0.67578 0.83984-0.53516 1.3594 0.13672 0.52344 0.60156 0.89453 1.1445 0.91406zm5.9805-3.4961h-0.003906c0.34766-0.21875 0.5625-0.59375 0.57812-1l0.078125-2.2227 1.1797 1.8828c0.21875 0.34766 0.59375 0.5625 1 0.57812l2.2227 0.078125-1.8828 1.1797 0.003907 0.003907c-0.34766 0.21484-0.5625 0.58984-0.57813 1l-0.082031 2.2266-1.1836-1.8906c-0.21484-0.34766-0.58984-0.5625-1-0.57422l-2.2227-0.078126zm-40.293 19.227 6.2188-1.4688 4.707 4.3164c0.39844 0.36328 0.98828 0.42969 1.4531 0.15234 0.46875-0.27344 0.69922-0.81641 0.57422-1.3438l-1.4727-6.2148 4.3203-4.7031c0.36719-0.39844 0.42969-0.98828 0.15625-1.457-0.27344-0.46484-0.82031-0.69922-1.3438-0.57422l-6.2109 1.4688-4.7109-4.3164c-0.39844-0.36719-0.98828-0.42969-1.4531-0.15625-0.46875 0.27344-0.69922 0.82031-0.57812 1.3477l1.4727 6.2188-4.3164 4.707v-0.003906c-0.35938 0.39844-0.42188 0.98437-0.14844 1.4453 0.26953 0.46484 0.80859 0.69922 1.332 0.58203zm5.3828-5.5547c0.27734-0.30078 0.38672-0.71875 0.29297-1.1133l-0.69922-2.9531 2.2383 2.0508c0.29688 0.27344 0.71484 0.38281 1.1133 0.28906l2.9492-0.69922-2.0508 2.2383c-0.27734 0.30078-0.38672 0.72266-0.28906 1.1172l0.69922 2.9492-2.2344-2.0469c-0.22656-0.20703-0.52344-0.32422-0.83203-0.32422-0.097656 0-0.19141 0.011719-0.28516 0.035156l-2.9531 0.69922z"/>
</svg>