<svg fill="white" xmlns="http://www.w3.org/2000/svg" data-name="Layer 1" viewBox="0 0 128 160" x="0px" y="0px"><title>64 web icon set 31 expanded</title><path d="M64,91.28809A14.34919,14.34919,0,1,0,49.52441,76.93945,14.429,14.429,0,0,0,64,91.28809Zm0-24.69727A10.3494,10.3494,0,1,1,53.52441,76.93945,10.42454,10.42454,0,0,1,64,66.59082Z"/><path d="M98.37988,0H29.62012A4.625,4.625,0,0,0,25,4.62012V45.37988A4.625,4.625,0,0,0,29.62012,50H37V60.12573a3.52888,3.52888,0,0,0-1.73535,2.25513L29.80957,84.92969a5.01825,5.01825,0,0,0,.9873,4.377c.93945,1.16016,2.5166,3.06055,4.2666,5.16992,2.88086,3.47168,7.5459,9.0957,8.69727,10.67578v19.67188c0,2.58984,1.66406,3.50879,3.08984,3.50879H81.15723a2.9462,2.9462,0,0,0,3.082-3.2666V105.38281c1.26758-1.78223,6.91113-8.67383,10.04395-12.501,1.19531-1.459,2.22949-2.72266,2.91992-3.57422a5.021,5.021,0,0,0,.9873-4.37793L92.72754,62.37891A3.52224,3.52224,0,0,0,91,60.13025V50h7.37988A4.625,4.625,0,0,0,103,45.37988V4.62012A4.625,4.625,0,0,0,98.37988,0ZM94.30371,85.87109a1.05639,1.05639,0,0,1-.208.918c-.6875.84766-1.71777,2.10645-2.90723,3.55957-10.94922,13.37207-10.94922,13.47754-10.94922,14.48145V124.333H47.76074V104.58789c0-1.01172,0-1.07129-9.61914-12.665-1.73828-2.09473-3.30371-3.98242-4.2373-5.13477a1.05019,1.05019,0,0,1-.207-.917L38.98907,63.9989,39,64a1.97913,1.97913,0,0,0,.62091-.10828l3.11346.73816L38.06934,83.918a5.07954,5.07954,0,0,0,1.08105,4.48438l8.0293,9.37207a1.99759,1.99759,0,0,0,2.43164.47852c.34277-.17578.69727-.38281,1.06152-.59668a5.68932,5.68932,0,0,1,2.24414-.96582H75.0918a5.648,5.648,0,0,1,2.23145.96191c.36425.21484.7207.42383,1.06445.60059a1.9995,1.9995,0,0,0,2.43262-.47852l8.02246-9.36523a5.07593,5.07593,0,0,0,1.08008-4.48535l-4.666-19.29395,3.11914-.73914A1.97875,1.97875,0,0,0,89,64l.00433-.00043ZM87,60.1059l-3.10547.73688a3.54332,3.54332,0,0,0-2.63477,4.27539l4.77441,19.74512a1.07147,1.07147,0,0,1-.22852.94434L78.8584,93.917a7.60029,7.60029,0,0,0-3.7666-1.22656H52.917A7.6401,7.6401,0,0,0,49.14258,93.918L42.1875,85.7998a1.06779,1.06779,0,0,1-.22949-.94336l4.77441-19.73828a3.54455,3.54455,0,0,0-2.63574-4.27637L41,60.10791V50H87Zm12-14.726A.621.621,0,0,1,98.37988,46H29.62012A.621.621,0,0,1,29,45.37988V4.62012A.621.621,0,0,1,29.62012,4H98.37988A.621.621,0,0,1,99,4.62012Z"/><path d="M64.55762,15.01953a8.12477,8.12477,0,0,0-6.08594,2.14941A7.72985,7.72985,0,0,0,59.5,29.30469v1.04395A2.66218,2.66218,0,0,0,62.167,33h3.666A2.66218,2.66218,0,0,0,68.5,30.34863v-1.0498a7.7926,7.7926,0,0,0,3.48535-6.93555A7.9124,7.9124,0,0,0,64.55762,15.01953Zm1.32129,11.18652.001.002a2.29169,2.29169,0,0,0-.52344.36035A2.65254,2.65254,0,0,0,64.5,28.51465V29h-1v-.48437a2.66861,2.66861,0,0,0-.88281-1.97168l-.04395-.03906a2.0006,2.0006,0,0,0-.5127-.33008A3.80168,3.80168,0,0,1,60,22.82715a3.7198,3.7198,0,0,1,1.2041-2.73633A4.09893,4.09893,0,0,1,64.291,19.00977a3.95927,3.95927,0,0,1,3.70215,3.59082A3.81654,3.81654,0,0,1,65.87891,26.20605Z"/><path d="M64.69238,39H63.43164a2,2,0,0,0,0,4h1.26074a2,2,0,0,0,0-4Z"/><path d="M65.26074,34H62.73926a2,2,0,0,0,0,4h2.52148a2,2,0,0,0,0-4Z"/><path d="M64,13a2.0001,2.0001,0,0,0,2-2V9a2,2,0,0,0-4,0v2A2.0001,2.0001,0,0,0,64,13Z"/><path d="M75.0293,14.53516A1.99979,1.99979,0,0,0,72.20117,11.707l-1.41406,1.41406a1.99979,1.99979,0,1,0,2.82813,2.82813Z"/><path d="M77.5,20.833h-2a2,2,0,0,0,0,4h2a2,2,0,0,0,0-4Z"/><path d="M52.167,20.5h-2a2,2,0,0,0,0,4h2a2,2,0,0,0,0-4Z"/><path d="M57.11523,12.88477,55.70117,11.4707A1.99979,1.99979,0,0,0,52.873,14.29883l1.41406,1.41406a1.99979,1.99979,0,0,0,2.82813-2.82812Z"/></svg>