<svg fill="White" xmlns="http://www.w3.org/2000/svg" data-name="Layer 21" viewBox="0 0 100 125" x="0px" y="0px"><title>23. Linux</title><path d="M52.8,36.89c2.63,0,5.44-3,6.24-3.89s2.36-2.85,2.19-4.14c-.08-.58-.28-2.12-8.33-2.91h-.19c-8.05.78-8.26,2.33-8.33,2.91-.18,1.29,1.47,3.33,2.19,4.14S50.17,36.89,52.8,36.89Zm0-8.94a23.66,23.66,0,0,1,6.39,1.32c-.47,1.43-4.16,5.62-6.39,5.62s-6-4.29-6.41-5.61A23.09,23.09,0,0,1,52.8,28Z"/><path d="M81.12,69.06a5.36,5.36,0,0,0-2.36.56c.06-.93.11-1.81.14-2.58,0,0,0-.09,0-.13v-.16c0-1.88,0-3.16,0-3.41V62.11c0-9.73-11.33-25.53-12.9-27.67L64.56,21.71c0-4-1.16-7.09-3.41-9.32A12.71,12.71,0,0,0,52.81,9a12.69,12.69,0,0,0-8.35,3.39c-2.26,2.23-3.4,5.36-3.42,9.32L39.59,34.44C38,36.58,26.7,52.38,26.7,62.11v1.23c0,.23-.05,1.39,0,3.1-3.51-1.36-7.48-2.59-9.3.11-2,3,1.45,6.63,4.23,9.55A13.81,13.81,0,0,1,24,79c.07.46-.89.85-2.15,1.31A6.84,6.84,0,0,0,19,81.85a2.1,2.1,0,0,0-.49,2c.41,1.41,2.2,3.24,12.44,6.21a27.75,27.75,0,0,0,3.35.76,11.54,11.54,0,0,0,1.94.16,11.74,11.74,0,0,0,2-.19,11,11,0,0,0,2,.19h25.1c.3,0,.59,0,.87,0s.56,0,.84,0a11.68,11.68,0,0,0,9.43-4.81,28,28,0,0,0,1.86-2.89h0c5.23-9.28,5.23-11.85,4.54-13.14A2.1,2.1,0,0,0,81.12,69.06Zm-52.42-7c0-9.57,12.53-26.52,12.66-26.69a1,1,0,0,0,.19-.48L43,21.88v-.11c0-3.42,1-6.1,2.81-7.95a10.85,10.85,0,0,1,7-2.82h0a10.86,10.86,0,0,1,6.95,2.82c1.86,1.85,2.8,4.53,2.8,8a.45.45,0,0,0,0,.11l1.48,13.06a1.06,1.06,0,0,0,.19.48c.13.17,12.67,17.12,12.67,26.69v4.24c0,1.15-.11,2.58-.25,4.15-.54.18-.93.23-1.1,0a14.05,14.05,0,0,1-.31-3.74c-.06-3.7-.13-8.23-2.87-9.51-1.26-5.06-2.9-8.82-4.94-11.35a1,1,0,1,0-1.55,1.25c1.76,2.2,3.21,5.45,4.36,9.81a5.24,5.24,0,0,0-3.15,2.36C65.34,50.5,59.61,44,52.8,44,45,44,38.64,52.49,38,63.25c-1.7-1.54-2.79-2-3.58-2.12,1.26-6.52,3-11.13,5.3-14a1,1,0,0,0-.15-1.4,1,1,0,0,0-1.41.15c-2.69,3.34-4.68,8.81-6,16.59a5.23,5.23,0,0,0-.33,2c-.17,1.12-.33,2.27-.48,3.47a10.37,10.37,0,0,1-2.6-.78q0-.49,0-.93ZM55,78.52a30.33,30.33,0,0,0,.58,3.39A13.75,13.75,0,0,0,56,83.37,8.89,8.89,0,0,1,52.8,84a9.42,9.42,0,0,1-5.23-1.66,11.69,11.69,0,0,0-1.31-9.19,26.5,26.5,0,0,0-2-2.82c-1.72-2.19-3.15-3.87-4.35-5.15,0-.06,0-.12,0-.18,0-10.48,5.77-19,12.86-19,6.42,0,11.74,7,12.7,16.08-.41.82-.79,1.66-1.14,2.46a13.93,13.93,0,0,1-1.76,3.31c-.41.24-1.13-.5-2-1.48a6.88,6.88,0,0,0-2.51-2,2.09,2.09,0,0,0-2.06.31C54.86,65.57,53.85,67.93,55,78.52ZM38.26,88.77a9.36,9.36,0,0,1-2.19.22,11.49,11.49,0,0,1-1.43-.12l-.8-.16c-.76-.15-1.53-.32-2.31-.55C20.66,85,20.45,83.36,20.45,83.3a.43.43,0,0,1,.08-.13,6.11,6.11,0,0,1,2-1c1.58-.58,3.73-1.37,3.44-3.47-.14-1-1.15-2.13-2.92-4-2.17-2.28-5.14-5.4-4-7.06A2,2,0,0,1,20.81,67c1.65,0,4,.9,6,1.67l.32.13.72.28,1,.39a8.69,8.69,0,0,0,2.26.59A2.26,2.26,0,0,0,31.9,70a2.16,2.16,0,0,0,1.33-.91,6.19,6.19,0,0,0,.59-3.58c0-.26,0-.52,0-.79A3.68,3.68,0,0,1,34,63.23a.31.31,0,0,1,.08-.11h0c.06,0,.9-.21,3.92,2.9.32.33.67.71,1,1.12s.73.82,1.14,1.29c.77.9,1.61,1.93,2.57,3.14a26.86,26.86,0,0,1,1.82,2.62A9.76,9.76,0,0,1,45.83,81,8.61,8.61,0,0,1,45.57,82a8.78,8.78,0,0,1-.37,1,8.9,8.9,0,0,1-.89,1.7A9.67,9.67,0,0,1,38.26,88.77ZM42.8,89A11.84,11.84,0,0,0,46,85.82a13.08,13.08,0,0,0,.9-1.58A11.16,11.16,0,0,0,52.8,86a10.92,10.92,0,0,0,4.08-.82A11.59,11.59,0,0,0,60.46,89Zm33.81-6.68A25.66,25.66,0,0,1,74.88,85c-.07.1-.16.18-.24.28a9.77,9.77,0,0,1-3.88,3,9.56,9.56,0,0,1-4.5.71,9.84,9.84,0,0,1-1.2-.15,9.63,9.63,0,0,1-6.37-4.52,9.17,9.17,0,0,1-.46-.88,9.53,9.53,0,0,1-.38-.93,8.64,8.64,0,0,1-.32-1A26.19,26.19,0,0,1,57,78.3c-1.23-11.26.21-12.07.27-12.1h0l.14,0a6.15,6.15,0,0,1,1.68,1.49c1.14,1.24,2.69,2.93,4.52,1.86.72-.42,1.27-1.38,2-3,.18-.39.37-.8.58-1.27s.29-.67.45-1c.28-.63.59-1.27.9-1.88.95-1.82,2-3.38,3.19-3.53a1.7,1.7,0,0,1,.45,0c2,.41,2,4.71,2.07,7.86a13.27,13.27,0,0,0,.47,4.49,2.33,2.33,0,0,0,.24.41,2.37,2.37,0,0,0,2.47.91,6.8,6.8,0,0,0,1-.28c.37-.13.73-.28,1.07-.43l.29-.14a6.29,6.29,0,0,1,2.13-.7.61.61,0,0,1,.15,0S82.16,72.46,76.61,82.32Z"/></svg>