<svg fill="White" xmlns="http://www.w3.org/2000/svg" version="1.1" viewBox="-5.0 -10.0 110.0 135.0">
 <path d="m68.898 84.484c0.82812 0 1.5 0.67188 1.5 1.5s-0.67188 1.5-1.5 1.5h-56.77c-1.957 0-3.7422-0.80469-5.0312-2.0977-1.293-1.2891-2.0977-3.0703-2.0977-5.0352v-8.3164c0-0.82812 0.67188-1.5 1.5-1.5h3.2422v-33.168c0-0.82813 0.67187-1.5 1.5-1.5 0.82812 0 1.5 0.67187 1.5 1.5v33.168h74.516v-50.906c0-1.125-0.46484-2.1562-1.2109-2.9023l-0.066406-0.070312c-0.73438-0.70703-1.7383-1.1406-2.8359-1.1406h-66.293c-1.125 0-2.1562 0.46484-2.9023 1.2109-0.74609 0.74609-1.2109 1.7773-1.2109 2.9023v6.1094c0 0.82812-0.67188 1.5-1.5 1.5s-1.5-0.67188-1.5-1.5v-6.1094c0-1.9453 0.80469-3.7266 2.0898-5.0156 1.2969-1.293 3.0742-2.0977 5.0195-2.0977h66.293c1.9023 0 3.6484 0.76562 4.9297 2.0039l0.09375 0.085938c1.2852 1.2852 2.0898 3.0664 2.0898 5.0234v50.906h3.2422c0.82812 0 1.5 0.67188 1.5 1.5v8.3164c0 1.9609-0.80078 3.7461-2.0938 5.0391l-0.09375 0.085937c-1.2852 1.2383-3.0312 2.0078-4.9414 2.0078h-13.273c-0.82812 0-1.5-0.67188-1.5-1.5s0.67188-1.5 1.5-1.5h13.273c1.1055 0 2.1094-0.4375 2.8477-1.1445l0.066406-0.070313c0.75-0.75 1.2148-1.7812 1.2148-2.918v-6.8164h-29.879l-0.77344 2.2109c-0.35156 1.0078-0.80469 1.9961-1.4727 2.7773-0.79688 0.92969-1.8359 1.5352-3.2461 1.5352h-13.262c-1.4062 0-2.4492-0.60547-3.2461-1.5352-0.66797-0.77734-1.1211-1.7656-1.4727-2.7773l-0.77344-2.2109h-29.879v6.8164c0 1.1328 0.46484 2.168 1.2148 2.918 0.74219 0.75 1.7773 1.2148 2.9141 1.2148zm-19.93-47.453c-0.039062-1.7031-0.45703-3.3555-1.1953-4.8477-1.0078-2.0312-2.6172-3.7695-4.6836-4.9219-0.71875-0.40234-0.98047-1.3125-0.57812-2.0312 0.40234-0.71875 1.3125-0.98047 2.0312-0.57812 2.2695 1.2656 4.1016 3.0859 5.375 5.2188 0.50391-1.1094 1.2852-2.3281 2.5352-3.582 2.9844-2.9844 5.4453-3.3125 7.375-3.5703l0.16016-0.019531c0.82031-0.10547 1.5703 0.46875 1.6758 1.2891l0.011719 0.24219c-0.003906 0.90625-0.14062 2.0703-0.66797 3.3945-0.52344 1.3125-1.418 2.7773-2.9297 4.2891-2.3555 2.3555-4.6367 3.0469-6.25 3.3633 0.078125 0.54297 0.12109 1.0977 0.13672 1.6523l0.039062-0.019532c2.457-1.2109 4.8125-1.2773 6.8906-0.63672 2.0391 0.62891 3.7852 1.9375 5.0859 3.5117 0.625 0.75391 1.1523 1.5742 1.5664 2.4141 1.2734 2.582 1.6016 5.3047 1.207 7.9648-0.42188 2.8516-1.6836 5.6289-3.4961 8.0664-1.7617 2.3711-3.6445 4.0391-5.8242 4.8828-2.1055 0.8125-4.4141 0.84375-7.0625-0.019531-2.6484 0.86328-4.957 0.83203-7.0625 0.019531-2.1797-0.84375-4.0625-2.5117-5.8242-4.8828-1.8125-2.4375-3.0742-5.2148-3.4961-8.0664-0.39453-2.6562-0.066406-5.3828 1.207-7.9609 0.41406-0.83984 0.94531-1.6641 1.5664-2.4141 1.3047-1.5703 3.0508-2.8828 5.0898-3.5117 2.0781-0.64062 4.4336-0.57422 6.8906 0.63672l0.23828 0.12109zm9.4375-11.008c-1.1211 0.32031-2.3984 0.94922-3.8359 2.3828-1.3086 1.3047-1.9375 2.5781-2.2812 3.6641 1.082-0.34375 2.3672-0.98437 3.6641-2.2812 1.2031-1.2031 1.8945-2.3125 2.2734-3.2695l0.17578-0.49609zm-14.027 34.297c1.5508 0.59766 3.3359 0.55859 5.4766-0.21875 0.32031-0.11328 0.67969-0.125 1.0195 0 2.1445 0.77734 3.9258 0.82031 5.4766 0.21875 1.6094-0.62109 3.0703-1.9531 4.5-3.875 1.5273-2.0547 2.5859-4.3672 2.9336-6.7188 0.30859-2.0859 0.058594-4.207-0.92578-6.2031-0.30859-0.625-0.71094-1.25-1.1914-1.8281-0.96094-1.1602-2.2227-2.1211-3.6562-2.5625-1.3945-0.42969-2.9922-0.375-4.6875 0.46094-0.64062 0.31641-1.3086 0.75-1.9883 1.3125-0.54297 0.46484-1.3594 0.48438-1.9258 0.011719-0.68359-0.56641-1.3555-1.0078-2.0039-1.3242-1.6953-0.83594-3.293-0.89062-4.6875-0.46094-1.4375 0.44141-2.6953 1.4023-3.6602 2.5625-0.47656 0.57813-0.88281 1.2031-1.1914 1.8281-0.98438 1.9961-1.2344 4.1211-0.92578 6.2031 0.34766 2.3516 1.4062 4.668 2.9336 6.7227 1.4297 1.9219 2.8906 3.25 4.5 3.875zm-34.637-28.879c0-0.82812 0.67187-1.5 1.5-1.5 0.82812 0 1.5 0.67188 1.5 1.5v0.22656c0 0.82812-0.67188 1.5-1.5 1.5-0.82813 0-1.5-0.67188-1.5-1.5zm49.207 42.098h-17.902l0.42969 1.2266c0.24609 0.70703 0.53906 1.3711 0.91797 1.8125 0.24609 0.28906 0.56641 0.48047 0.97266 0.48047h13.262c0.40625 0 0.72266-0.19141 0.97266-0.48047 0.37891-0.44141 0.67188-1.1094 0.91797-1.8125z"/>
</svg>