<svg xmlns="http://www.w3.org/2000/svg" version="1.1" viewBox="-5.0 -10.0 110.0 135.0">
 <path d="m60.434 46.441c0.9375 0.36719 1.8984 0.65625 2.8828 0.85938 0.72266 0.15234 1.2422 0.78906 1.2422 1.5273h0.003906v3.9023h4.9023v-3.9023c0-0.78125 0.57422-1.4414 1.3477-1.5469 2.1523-0.46484 4.1992-1.3203 6.043-2.5312 0.61719-0.40234 1.4336-0.31641 1.957 0.20312l2.7617 2.7617 3.4648-3.4688-2.7617-2.7617c-0.53906-0.53906-0.60938-1.3945-0.16406-2.0156 1.1602-1.6953 2.0898-4.0625 2.5117-6.0859h0.003906c0.14844-0.72266 0.78516-1.2422 1.5234-1.2422v-0.003906h3.9023v-4.9023h-3.9023c-0.77734 0-1.4414-0.57422-1.5469-1.3477-0.46484-2.1523-1.3203-4.1992-2.5273-6.043-0.40625-0.61719-0.32031-1.4336 0.20312-1.957l2.7578-2.7617-3.4648-3.4648-2.7617 2.7578c-0.53906 0.54297-1.3945 0.61328-2.0156 0.16406-1.6953-1.1602-4.0625-2.0898-6.0859-2.5117h-0.003907c-0.72266-0.15234-1.2383-0.78906-1.2383-1.5273h-0.003906v-3.8984h-4.9023v3.8984c0 0.78125-0.57812 1.4414-1.3516 1.5508-2.1523 0.46094-4.1992 1.3203-6.0391 2.5273-0.61719 0.40234-1.4375 0.32031-1.957-0.20312l-2.7617-2.7578-3.4688 3.4648 2.7617 2.7617c0.54297 0.53906 0.60938 1.3945 0.16406 2.0156-1.1602 1.6953-2.0898 4.0625-2.5117 6.0859-0.15234 0.72656-0.78906 1.2422-1.5273 1.2422v0.003906h-3.9023v4.9023h3.9023c0.78125 0 1.4414 0.57812 1.5469 1.3477 0.17578 0.80859 0.40625 1.6016 0.6875 2.375l2.5781-2.5781c2.9648-2.9648 2.9805-4.7773 2.9961-6.5625 0.019531-2.3672 0.039062-4.7031 3.6016-8.2617 4.1758-4.168 10.609-5.0664 15.77-2.1992 0.48828 0.27344 0.79297 0.78906 0.79688 1.3477 0.003906 0.55859-0.28906 1.0781-0.77344 1.3633l-8.457 4.8828v4.9375l4.2695 2.4648 8.6055-4.9688h-0.003907c0.49609-0.28516 1.1055-0.28125 1.5938 0.015625 0.48438 0.29688 0.77344 0.83594 0.74609 1.4023 0.035156 3.5391-1.3594 6.9414-3.8633 9.4375-3.5625 3.5625-5.8945 3.582-8.2617 3.6016-1.7852 0.015624-3.5977 0.03125-6.5625 2.9961zm-43.715 18.516 1.6094 2.2383 11.684-8.3984c2.3438-1.7344 5.2969-2.4297 8.168-1.918l21.777 3.5625c4.6445 0.76172 6.918 6.0234 5.4336 9.8789 1.4258-0.52344 2.8594-1.3438 4.375-2.4297l13.594-9.7695c4.7617-3.4219 12.023-0.64844 13.012 3.6914 0.39453 1.7383-0.19531 3.543-2.2773 5.0391l-26.73 19.211c-2.3438 1.7344-5.3008 2.4297-8.1719 1.918l-19.73-3.2266c-2.0547-0.37109-4.1719 0.125-5.8477 1.3672l-1.1094 0.79688 1.6562 2.3008h-0.003906c0.24609 0.33984 0.34375 0.76562 0.26953 1.1758-0.070312 0.41406-0.30469 0.77734-0.64844 1.0156l-6.9336 4.793v0.003906c-0.625 0.43359-1.4766 0.34766-2.0078-0.20312l-20.883-21.746c-0.32031-0.33203-0.47656-0.78516-0.42969-1.2422 0.050781-0.45703 0.29687-0.87109 0.67578-1.1289l10.316-7.3438c0.34375-0.24219 0.77344-0.33594 1.1875-0.26172 0.41797 0.078125 0.78125 0.32422 1.0156 0.67578zm3.4258 4.7656 10.543 14.668c1.7109-1.2305 2.8594-2.0977 4.9961-2.5977 1.4062-0.32031 2.8594-0.36328 4.2812-0.11719l19.73 3.2305h-0.003906c2.0586 0.37109 4.1758-0.125 5.8516-1.3711l26.73-19.211c1.332-0.95703 1.3516-1.8516 0.48828-2.8125-1.6211-1.8047-5.2227-2.5625-7.5859-0.86328l-13.594 9.7695c-3.7617 2.7031-7.4531 4.2227-11.98 3.5l-10.543-1.7266h-0.003906c-0.41016-0.058594-0.78125-0.28516-1.0234-0.62109-0.24609-0.33594-0.34766-0.75781-0.28125-1.168s0.29688-0.77734 0.63672-1.0195c0.33984-0.24219 0.76172-0.33594 1.168-0.26562l10.422 1.707c1.1758-0.035157 1.9375-0.54297 2.3359-1.2617 1.0977-1.9727-0.078125-5.5859-2.8594-6.043l-21.777-3.5625 0.003907-0.003906c-2.0547-0.37109-4.1719 0.125-5.8516 1.3711zm10.559 20.027-15.645-21.77-7.6094 5.418 18.715 19.488zm17.008-51.5 0.003906 0.003906c-0.43359-0.96875-0.79297-1.9688-1.0703-2.9922h-4.2383c-0.86328 0-1.5625-0.69922-1.5625-1.5625v-8.0273c0-0.86328 0.69922-1.5625 1.5625-1.5625h4.2383c0.46484-1.707 1.1445-3.3477 2.0234-4.8828l-2.9961-2.9961c-0.60938-0.60938-0.60938-1.5977 0-2.2109l5.6758-5.6758c0.60938-0.60938 1.5977-0.60938 2.2109 0l2.9961 2.9961c1.5352-0.875 3.1758-1.5547 4.8828-2.0234v-4.2344c0-0.86328 0.69922-1.5625 1.5625-1.5625h8.0273c0.41406 0 0.8125 0.16406 1.1055 0.45703 0.29297 0.29297 0.45703 0.69141 0.45703 1.1055v4.2383c1.707 0.46484 3.3477 1.1445 4.8828 2.0234l2.9961-3c0.60938-0.60938 1.5977-0.60938 2.2109 0l5.6719 5.6758c0.61328 0.60938 0.61328 1.6016 0 2.2109l-2.9961 2.9961c0.87891 1.5352 1.5586 3.1758 2.0234 4.8828h4.2383c0.41406 0 0.8125 0.16406 1.1055 0.45703 0.29297 0.29297 0.45703 0.69141 0.45703 1.1055v8.0273c0 0.41406-0.16406 0.8125-0.45703 1.1055-0.29297 0.29297-0.69141 0.45703-1.1055 0.45703h-4.2383c-0.46484 1.707-1.1445 3.3477-2.0234 4.8828l2.9961 2.9961h0.003907c0.60938 0.61328 0.60938 1.6016 0 2.2109l-5.6758 5.6758c-0.61328 0.60938-1.6016 0.60938-2.2109 0l-2.9961-2.9961c-1.5352 0.875-3.1758 1.5547-4.8828 2.0234v4.2383-0.003907c0 0.41797-0.16406 0.8125-0.45703 1.1055-0.29297 0.29297-0.69141 0.45703-1.1055 0.45703h-8.0273c-0.86328 0-1.5625-0.69922-1.5625-1.5625v-4.2383c-1.1562-0.31641-2.2852-0.73047-3.375-1.2383l-6.0664 6.0664c-0.51562 0.51562-1.3203 0.60547-1.9375 0.21875-3.8008-1.9375-6.8945-5.0234-8.8359-8.8242-0.30469-0.60156-0.19141-1.332 0.28516-1.8086l-0.003906-0.003906 6.207-6.207zm19.504-20.445c1.1484-0.16016 2.3125-0.12109 3.4453 0.10937l-6.3906 3.6914c-0.48047 0.27734-0.77734 0.79297-0.77734 1.3477l-0.003907 6.7344c0 0.59766 0.34375 1.1445 0.87891 1.4062l5.7344 3.3086c0.48828 0.28125 1.0938 0.27734 1.5781-0.011719l6.6484-3.8398v0.003907c-0.46875 1.6562-1.3555 3.1641-2.5742 4.375-2.668 2.668-4.3594 2.6836-6.0781 2.6992-2.4258 0.019532-4.8906 0.042969-8.75 3.8984l-10.32 10.324c-2.4922-1.4609-4.5781-3.5273-6.0664-6.0078l10.352-10.352c3.8594-3.8594 3.8789-6.3203 3.8984-8.75 0.015626-1.7188 0.027344-3.4102 2.6992-6.0781h0.003907c1.543-1.5508 3.5547-2.5547 5.7227-2.8594z" fill-rule="evenodd"/>
</svg>