<svg fill="white" xmlns="http://www.w3.org/2000/svg" xmlns:xlink="http://www.w3.org/1999/xlink" version="1.1" x="0px" y="0px" viewBox="0 0 100 125" style="enable-background:new 0 0 100 100;" xml:space="preserve"><style type="text/css">
	.st0{fill-rule:evenodd;clip-rule:evenodd;}
</style><g><g><g><g><path class="st0" d="M34.5,76.7h-3.3c-1,0-1.9-0.9-1.9-1.9V69c-1.6-0.4-3-1-4.3-1.8l-4.1,4.1      c-0.7,0.7-2,0.7-2.7,0l-4.7-4.7c-0.3-0.3-0.5-0.8-0.6-1.3c0-0.5,0.2-1.1,0.5-1.4l4.1-4.1c-0.7-1.3-1.4-2.8-1.8-4.3l-5.6,0      c-1.1,0-1.9-0.8-1.9-1.9V47c0-1.1,0.8-1.9,1.9-1.9l5.7,0c0.5-1.6,1.1-3,1.8-4.3l-4.1-4.1c-0.3-0.3-0.5-0.8-0.6-1.3      c0-0.5,0.2-1.1,0.5-1.4l4.7-4.7c0.7-0.7,2-0.7,2.7,0l4.1,4.1c1.4-0.8,2.9-1.4,4.3-1.8v-5.8c0-1,0.9-1.9,1.9-1.9h3.4      c0.7,0,1.2,0.5,1.2,1.2c0,0.7-0.5,1-1.2,1h-2.9v6.3c0,0.5-0.4,1-1,1.2c-1.8,0.4-3.6,1.2-5.3,2.2c-0.5,0.3-1.1,0.2-1.5-0.1      l-4.4-4.4l-4.1,4.1l4.4,4.4c0.4,0.4,0.5,1,0.1,1.5c-1,1.5-1.8,3.3-2.2,5.3c-0.1,0.5-0.6,0.9-1.2,0.9h-6.2V53h6.2      c0.5,0,1,0.4,1.2,0.9c0.5,2,1.2,3.7,2.2,5.3c0.3,0.5,0.3,1.1-0.1,1.5l-4.4,4.5l4,4.1l4.4-4.4c0.4-0.4,1-0.5,1.5-0.1      c1.6,1,3.4,1.8,5.3,2.2c0.5,0.1,0.9,0.6,0.9,1.2v6.3h2.9c0.7,0,1.2,0.5,1.2,1.2S35.2,76.7,34.5,76.7L34.5,76.7z M19.2,69.6      L19.2,69.6L19.2,69.6z"/></g><g><path class="st0" d="M34.5,61.4c-6.2,0-11.2-5-11.2-11.2c0-6.1,5-11.2,11.2-11.2c0.7,0,1.2,0.5,1.2,1.2      c0,0.7-0.5,1.2-1.2,1.2c-4.8,0-8.8,3.9-8.8,8.8c0,4.8,3.9,8.8,8.8,8.8c0.7,0,1.2,0.5,1.2,1.2S35.2,61.4,34.5,61.4L34.5,61.4z"/></g><g><path class="st0" d="M41.4,86.1c-2.2,0-4.2-0.9-5.8-2.5c-1.5-1.6-2.3-3.7-2.2-5.9V22.6      c-0.1-2.2,0.7-4.2,2.2-5.8c1.5-1.6,3.5-2.5,5.8-2.5c3.9,0,7.3,2.9,8,6.7c2.1-1,4.6-1,6.8,0.2c1.9,1,3.3,2.7,4,4.7      c0.5,1.6,0.5,3.3,0.1,4.8c2.4,0.1,4.6,1.4,6.1,3.3c1.3,1.8,1.8,3.9,1.4,6c-0.3,1.6-1,3.1-2.2,4.3c2.2,1.2,3.6,3.4,3.6,5.9      c0,2.5-1.4,4.7-3.6,5.9c1.2,1.2,1.9,2.7,2.2,4.3c0.3,2.1-0.1,4.2-1.4,6c-1.5,2-3.7,3.1-6.1,3.3c1.1,3.7-0.5,7.8-4,9.5      c-2.2,1.1-4.7,1.2-6.9,0.2C48.7,83.3,45.4,86.1,41.4,86.1L41.4,86.1z M41.4,16.7c-1.6,0-3,0.6-4.1,1.7c-1.1,1.1-1.6,2.6-1.6,4.1      v55.3c-0.1,1.6,0.5,3.1,1.6,4.2c1.1,1.1,2.5,1.7,4,1.7c3.1,0,5.6-2.5,5.6-5.6c0-0.2,0-0.3,0-0.5c-0.1-0.5,0.1-1,0.5-1.2      c0.4-0.3,1-0.2,1.4,0.1c1.8,1.4,4.2,1.6,6.1,0.7c2.8-1.4,3.9-4.8,2.5-7.6c-0.1-0.1-0.1-0.1-0.1-0.2c-0.1-0.1-0.1-0.3-0.2-0.4      c-0.2-0.4-0.1-0.9,0.1-1.3c0.3-0.3,0.7-0.5,1.2-0.4c2.2,0.5,4.4-0.3,5.8-2.2c1.8-2.5,1.2-6.1-1.3-7.9c-0.2-0.1-0.3-0.3-0.4-0.3      c-0.5-0.2-0.7-0.7-0.7-1.2s0.4-0.9,0.9-1c2.9-0.7,3.9-2.8,3.9-4.4c0-1.6-1-3.6-3.9-4.4c-0.5-0.1-0.7-0.5-0.9-1      c-0.1-0.5,0.1-0.9,0.5-1.2c0.1-0.1,0.3-0.2,0.4-0.3c0.1-0.1,0.1-0.1,0.2-0.1c2.5-1.8,3.1-5.4,1.3-7.9c-1.4-1.8-3.6-2.7-5.8-2.2      c-0.5,0.1-0.9-0.1-1.2-0.4c-0.3-0.3-0.3-0.8-0.1-1.2c0.1-0.1,0.1-0.3,0.2-0.4c0.1-0.1,0.1-0.1,0.1-0.2c0.7-1.4,0.8-2.9,0.3-4.3      c-0.5-1.4-1.5-2.6-2.8-3.3c-2-1-4.4-0.7-6.1,0.7c-0.4,0.3-1,0.3-1.4,0.1c-0.4-0.3-0.7-0.7-0.5-1.2c0-0.1,0-0.3,0-0.5      C47.1,19.2,44.5,16.7,41.4,16.7L41.4,16.7z"/></g><g><g><path class="st0" d="M75.7,89.9c-3.1,0-5.6-2.5-5.6-5.6c0-2.7,1.9-5,4.5-5.5V67.8h-9.9c-0.7,0-1.2-0.5-1.2-1.2       s0.5-1.2,1.2-1.2h11.1c0.7,0,1.2,0.5,1.2,1.2v12.1c2.5,0.5,4.5,2.8,4.5,5.5C81.3,87.3,78.8,89.9,75.7,89.9L75.7,89.9z        M75.7,80.9c-1.8,0-3.3,1.5-3.3,3.3c0,1.8,1.5,3.3,3.3,3.3s3.3-1.5,3.3-3.3C78.9,82.4,77.4,80.9,75.7,80.9z"/></g><g><path class="st0" d="M75.7,35.1H64.6c-0.7,0-1.2-0.5-1.2-1.2c0-0.7,0.5-1.2,1.2-1.2h9.9V21.7       c-2.5-0.5-4.5-2.8-4.5-5.5c0-3.1,2.5-5.6,5.6-5.6s5.6,2.5,5.6,5.6c0,2.7-1.9,5-4.5,5.5v12.2C76.8,34.5,76.3,35.1,75.7,35.1       L75.7,35.1z M75.7,13c-1.8,0-3.3,1.4-3.3,3.2c0,1.8,1.5,3.3,3.3,3.3s3.3-1.5,3.3-3.3C78.9,14.5,77.4,13,75.7,13z"/></g></g><g><g><path class="st0" d="M78.4,51.4H68c-0.7,0-1.2-0.5-1.2-1.2c0-0.7,0.5-1.2,1.2-1.2h10.5c0.7,0,1.2,0.5,1.2,1.2       C79.7,50.9,79.1,51.4,78.4,51.4L78.4,51.4z"/></g><g><path class="st0" d="M84.6,57.5c-4,0-7.3-3.3-7.3-7.3c0-3.9,3.3-7.2,7.3-7.2c4,0,7.3,3.3,7.3,7.2       C91.9,54.2,88.6,57.5,84.6,57.5z M84.6,45.4c-2.7,0-4.9,2.2-4.9,4.8c0,2.7,2.2,4.9,4.9,4.9s4.9-2.2,4.9-4.9       C89.5,47.5,87.2,45.4,84.6,45.4z"/></g></g><g><path class="st0" d="M49.9,65.1c-0.2,0-0.3-0.1-0.5-0.1c-0.6-0.3-0.8-1-0.5-1.6l5.7-12h-8.4      c-0.4,0-0.8-0.2-1-0.5c-0.2-0.3-0.3-0.7-0.1-1.2l6.5-13.6c0.3-0.6,1-0.8,1.6-0.5c0.6,0.3,0.8,1,0.5,1.6L48,49h8.4      c0.4,0,0.8,0.2,1,0.5c0.2,0.3,0.3,0.7,0.1,1.2l-6.5,13.7C50.7,64.8,50.3,65.1,49.9,65.1z"/></g></g></g></g></svg>