<svg xmlns="http://www.w3.org/2000/svg" version="1.1" viewBox="-5.0 -10.0 110.0 135.0">
 <path d="m55.734 31.391c1.1719 0.35938 2.2852 0.82031 3.3672 1.3945l4.9766-2.7461c0.37891-0.21094 0.83984-0.13281 1.1328 0.16016l4.5898 4.5898c0.32031 0.32031 0.36719 0.81641 0.13281 1.1875l-2.7188 4.9219c0.57422 1.082 1.0352 2.1953 1.3945 3.3672l5.457 1.5742c0.41797 0.12109 0.6875 0.5 0.6875 0.91406h0.003906v6.4883c0 0.46484-0.33203 0.85156-0.76953 0.9375l-5.3789 1.5547c-0.35938 1.168-0.82031 2.2852-1.3945 3.3672l2.7461 4.9766c0.21094 0.37891 0.13281 0.83984-0.16016 1.1328l-4.5898 4.5898c-0.32031 0.32031-0.81641 0.36719-1.1875 0.13281l-4.9219-2.7188c-1.082 0.57422-2.1953 1.0352-3.3672 1.3945l-1.5742 5.457c-0.12109 0.41797-0.5 0.6875-0.91406 0.6875v0.003906h-6.4883c-0.46484 0-0.85156-0.33203-0.9375-0.76953l-1.5547-5.3789c-1.1719-0.35938-2.2852-0.82031-3.3672-1.3945l-4.9766 2.7461c-0.37891 0.21094-0.83984 0.13281-1.1328-0.16016l-4.5898-4.5898c-0.32031-0.32422-0.36719-0.81641-0.13281-1.1875l2.7188-4.9219c-0.57422-1.082-1.0352-2.1953-1.3945-3.3672l-5.457-1.5742c-0.41797-0.12109-0.6875-0.5-0.6875-0.91406h-0.003906v-6.4883c0-0.46484 0.33203-0.85156 0.76953-0.9375l5.3789-1.5547c0.35938-1.1719 0.82031-2.2852 1.3945-3.3672l-2.7461-4.9766c-0.21094-0.37891-0.13281-0.83984 0.16016-1.1328l4.5898-4.5898c0.32031-0.32031 0.81641-0.36719 1.1875-0.13281l4.9258 2.7188c1.082-0.57422 2.1953-1.0352 3.3672-1.3945l1.5742-5.457c0.12109-0.41797 0.5-0.6875 0.91406-0.6875v-0.003906h6.4883c0.46484 0 0.85156 0.33203 0.9375 0.76953zm-20.062-11.062-0.25781-0.46875-8.2266-8.2266c-0.32812-0.32812-0.83984-0.36719-1.2109-0.11719-1.125 0.70703-8.6289 4.9258-8.918 5.2148-0.28906 0.28906-4.5078 7.7891-5.2148 8.918-0.25391 0.37109-0.21484 0.88281 0.11719 1.2109l8.2266 8.2266c0.32812 0.32422 0.80859 0.36719 1.2109 0.11719 1.125-0.70703 8.6289-4.9258 8.918-5.2148 0.28906-0.28906 4.5078-7.793 5.2148-8.918 0.14453-0.23437 0.19922-0.47656 0.14062-0.74219zm-7.5078-5.0195-1.4492-1.4492-4.1055 7.0703 6.832 6.832 4.1055-7.0703zm-4.2812-0.375-3.1641 5.4531-5.4531 3.168 3.168-5.4531zm-9.6953 11.449 6.832 6.832 7.0703-4.1055-6.832-6.832zm6.5078 8.9688c-0.011718-0.003906-0.023437-0.003906-0.039062-0.007812zm-1.582 4 0.19531 0.42188c0.29688 1.2148 2.6133 9.6172 2.6172 9.9805l-0.035156 0.26562-2.582 9.7383c-0.085938 0.44141-0.47266 0.77734-0.9375 0.77734h-8.3398c-0.48828 0-3.293 0.03125-3.5352-0.035156-0.34766-0.089844-0.60156-0.36719-0.68359-0.69531-0.28125-1.0977-2.6289-9.7305-2.6289-10.012l0.035156-0.28125 2.582-9.7383c0.082031-0.44141 0.46875-0.77344 0.9375-0.77344h11.637c0.28906 0 0.55469 0.12891 0.73828 0.35156zm-9.082 1.5586h-2.0547l2.0977 7.9023h9.6641l-2.0977-7.9023zm-3.293 2.7617-1.6172 6.0938 1.6172 6.0938 1.6172-6.0938zm12.375-4.3203 0.023438 0.03125c-0.007813-0.011718-0.015625-0.019531-0.023438-0.03125zm-11.137 19.277 9.6641-0.003906 2.0977-7.9023h-9.6641zm12.352 5.6992-0.46875 0.25781-8.2266 8.2266c-0.32812 0.32812-0.36719 0.83984-0.11719 1.2109 0.70703 1.125 4.9258 8.6289 5.2148 8.918 0.28906 0.28906 7.7891 4.5078 8.918 5.2148 0.37109 0.25391 0.88281 0.21484 1.2109-0.11719l8.2266-8.2266c0.32422-0.32812 0.36719-0.80859 0.11719-1.2109-0.70703-1.125-4.9258-8.6289-5.2148-8.918-0.28906-0.28516-7.793-4.5078-8.918-5.2148-0.23437-0.14453-0.47656-0.19922-0.74219-0.14062zm-5.0195 7.5078-1.4531 1.4531 7.0703 4.1055 6.832-6.832-7.0703-4.1055zm-0.375 4.2812 5.4531 3.1641 3.168 5.4531-5.4531-3.168zm11.449 9.6953 6.832-6.832-4.1055-7.0703-6.832 6.832zm8.9648-6.5078c-0.003906 0.011718-0.003906 0.023437-0.007812 0.039062zm3.8008 1.8086c0.15234-0.23828 0.35547-0.35938 0.625-0.42578 1.2148-0.29688 9.6172-2.6133 9.9805-2.6172l0.26562 0.035157 9.7383 2.582c0.44141 0.085938 0.77734 0.47266 0.77734 0.9375v8.3398c0 0.48828 0.03125 3.293-0.035156 3.5352-0.09375 0.34766-0.36719 0.60156-0.69531 0.68359-1.0977 0.28125-9.7305 2.6289-10.012 2.6289l-0.28125-0.035156-9.7383-2.582c-0.44141-0.085937-0.77734-0.47266-0.77734-0.9375v-11.637zm1.7617 8.8555v2.0547l7.9023-2.0977v-9.6641l-7.9023 2.0977zm2.7617 3.293 6.0938 1.6172 6.0938-1.6172-6.0938-1.6172zm14.957-1.2383-0.003906-9.6641-7.9023-2.0977v9.6641zm5.6992-12.352 0.25781 0.46875 8.2266 8.2266c0.32812 0.32812 0.83984 0.36719 1.2109 0.11719 1.125-0.70703 8.6289-4.9258 8.918-5.2148 0.28906-0.28906 4.5078-7.7891 5.2148-8.918 0.25391-0.37109 0.21484-0.88281-0.11719-1.2109l-8.2266-8.2266c-0.32812-0.32422-0.80859-0.36719-1.2109-0.11719-1.125 0.70703-8.6289 4.9258-8.918 5.2148-0.28516 0.28906-4.5078 7.793-5.2148 8.918-0.14453 0.23437-0.19922 0.47656-0.14062 0.74219zm7.5078 5.0195 1.4531 1.4531 4.1055-7.0703-6.832-6.832-4.1055 7.0703zm4.2812 0.375 3.1641-5.4531 5.4531-3.168-3.168 5.4531zm9.6953-11.449-6.832-6.832-7.0703 4.1055 6.832 6.832zm-6.5078-8.9688c0.011718 0.003906 0.023437 0.003906 0.039062 0.007812zm1.8086-3.7969c-0.23828-0.15234-0.35938-0.35547-0.42578-0.625-0.29688-1.2148-2.6133-9.6172-2.6172-9.9805l0.035157-0.26562 2.582-9.7383c0.085938-0.44141 0.47266-0.77734 0.9375-0.77734h8.3398c0.48828 0 3.293-0.03125 3.5352 0.035156 0.34766 0.089844 0.60156 0.36719 0.68359 0.69531 0.28125 1.0977 2.6289 9.7305 2.6289 10.012l-0.035156 0.28125-2.582 9.7383c-0.085937 0.44141-0.47266 0.77734-0.9375 0.77734h-11.637zm8.8555-1.7617h2.0547l-2.0977-7.9023h-9.6641l2.0977 7.9023zm3.293-2.7617 1.6172-6.0938-1.6172-6.0938-1.6172 6.0938zm-1.2383-14.957-9.6641 0.003906-2.0977 7.9023h9.6641zm-12.352-5.6992 0.46875-0.25781 8.2266-8.2266c0.32812-0.32812 0.36719-0.83984 0.11719-1.2109-0.70703-1.125-4.9258-8.6289-5.2148-8.918-0.28906-0.28906-7.7891-4.5078-8.918-5.2148-0.37109-0.25391-0.88281-0.21484-1.2109 0.11719l-8.2266 8.2266c-0.32422 0.32812-0.36719 0.80859-0.11719 1.2109 0.70703 1.125 4.9258 8.6289 5.2148 8.918 0.28906 0.28906 7.793 4.5078 8.918 5.2148 0.23437 0.14453 0.47656 0.19922 0.74219 0.14062zm5.0195-7.5078 1.4531-1.4531-7.0703-4.1055-6.832 6.832 7.0703 4.1055zm0.375-4.2812-5.4531-3.1641-3.1641-5.4531 5.4531 3.168zm-11.449-9.6953-6.832 6.832 4.1055 7.0703 6.832-6.832zm-8.9648 6.5078c0.003906-0.011718 0.003906-0.023437 0.007812-0.039062zm-4.0039-1.582-0.42188 0.19531c-1.2148 0.29688-9.6172 2.6133-9.9805 2.6172l-0.26562-0.035156-9.7383-2.582c-0.46484-0.11328-0.77344-0.46484-0.77734-0.9375v-11.633c0-0.46484 0.33594-0.85547 0.77734-0.9375 1.2969-0.29297 9.5781-2.6133 9.9805-2.6172l0.26562 0.035156 9.7383 2.582c0.44141 0.082031 0.77344 0.46875 0.77344 0.9375v11.637c0 0.28906-0.12891 0.55469-0.35156 0.73828zm-1.5586-9.082v-2.0547l-7.9023 2.0977v9.6641l7.9023-2.0977zm-2.7617-3.293-6.0938-1.6172-6.0938 1.6172 6.0938 1.6172zm4.3203 12.375-0.03125 0.023438c0.011718-0.007813 0.019531-0.015625 0.03125-0.023438zm-19.27-11.137v9.6641l7.9023 2.0977-0.003906-9.6641zm9.707 37.559-3.8906 8.1055c-0.22656 0.47266-0.027343 1.043 0.44922 1.2695 0.47266 0.22656 1.043 0.027344 1.2695-0.44922l3.8945-8.1055c0.22656-0.47266 0.027344-1.043-0.44922-1.2695-0.47656-0.22266-1.043-0.023438-1.2734 0.44922zm3.7344 8.332 3.7656-2.8398c0.42187-0.31641 0.50391-0.91406 0.1875-1.3359l-3.8906-3.5391c-0.39062-0.35156-0.99219-0.32031-1.3438 0.066406-0.35156 0.39062-0.32422 0.99219 0.066407 1.3438l2.9102 2.6328-2.8477 2.1484c-0.42188 0.31641-0.50391 0.91406-0.1875 1.3359 0.32031 0.42187 0.91797 0.50781 1.3398 0.1875zm-8.4883-1.5195-2.8477-2.1484 2.9102-2.6328c0.39062-0.35156 0.41797-0.95312 0.066407-1.3438-0.35156-0.39062-0.95313-0.41797-1.3438-0.066406l-3.7109 3.3594c-0.47656 0.39844-0.51562 1.1211 0.007812 1.5156l3.7656 2.8398c0.42187 0.31641 1.0195 0.23438 1.3359-0.1875 0.32031-0.42188 0.23438-1.0195-0.18359-1.3359zm3.668-15.801c-7.4297 0-13.453 6.0234-13.453 13.453s6.0234 13.453 13.453 13.453 13.453-6.0234 13.453-13.453-6.0234-13.453-13.453-13.453zm8.1602 5.293c-4.5078-4.5078-11.816-4.5078-16.32 0-4.5078 4.5078-4.5078 11.816 0 16.324 4.5078 4.5078 11.816 4.5078 16.32 0 4.5078-4.5117 4.5078-11.816 0-16.324zm-1.4414-8.0664c-0.66016-0.27344-1.332-0.50781-2.0078-0.69531-0.30859-0.085937-0.56641-0.32422-0.66016-0.65234l-1.5234-5.2695h-5.0586l-1.5117 5.2344c-0.082031 0.32031-0.32812 0.59375-0.67188 0.6875-1.1992 0.33203-2.8164 0.97266-3.8828 1.6055-0.28516 0.17969-0.65234 0.20312-0.96875 0.027344l-4.8047-2.6523-3.5742 3.5742 2.6523 4.8047c0.15234 0.28125 0.16406 0.62891-0.007812 0.92969-0.69531 1.2227-1.25 2.5664-1.625 3.9219-0.085938 0.30859-0.32422 0.56641-0.65234 0.66016l-5.2695 1.5234v5.0586l5.2344 1.5117c0.32031 0.082031 0.59375 0.32812 0.6875 0.67188 0.33203 1.1992 0.96875 2.8164 1.6055 3.8828 0.17969 0.28516 0.20312 0.65234 0.027343 0.96875l-2.6523 4.8047 3.5742 3.5742 4.8047-2.6523c0.28125-0.15234 0.62891-0.16406 0.92969 0.007812 1.2227 0.69141 2.5703 1.25 3.9219 1.6289 0.30859 0.085937 0.56641 0.32422 0.66016 0.65234l1.5234 5.2695h5.0586l1.5117-5.2344c0.082032-0.32031 0.32813-0.59375 0.67188-0.6875 1.1992-0.33203 2.8164-0.96875 3.8828-1.6055 0.28516-0.17969 0.65234-0.20312 0.96875-0.027344l4.8047 2.6523 3.5742-3.5742-2.6523-4.8047c-0.15234-0.28125-0.16406-0.62891 0.007813-0.92969 0.69531-1.2227 1.25-2.5664 1.6289-3.9219 0.085938-0.30859 0.32422-0.56641 0.65234-0.66016l5.2695-1.5234v-5.0586l-5.2344-1.5117c-0.32031-0.082032-0.59375-0.32812-0.6875-0.67188-0.33203-1.1992-0.96875-2.8164-1.6055-3.8828-0.17969-0.28516-0.20312-0.65234-0.027343-0.96875l2.6523-4.8047-3.5742-3.5742-4.8047 2.6523c-0.28125 0.15234-0.62891 0.16406-0.92969-0.007813-0.61719-0.35156-1.2578-0.66016-1.918-0.93359z" fill-rule="evenodd"/>
</svg>