<svg xmlns="http://www.w3.org/2000/svg" version="1.1" viewBox="-5.0 -10.0 110.0 135.0">
 <path d="m47.051 29.727c0-2.9297-2.0664-5.3086-4.6055-5.3086-2.5391 0-4.6016 2.3828-4.6016 5.3086 0 2.9258 2.0664 5.3086 4.6016 5.3086 2.5391 0 4.6055-2.3828 4.6055-5.3086zm-6.082 0c0-1.1641 0.69141-2.1836 1.4766-2.1836 0.78906 0 1.4805 1.0195 1.4805 2.1836 0 1.1641-0.69141 2.1836-1.4805 2.1836-0.78906 0-1.4766-1.0195-1.4766-2.1836z"/>
 <path d="m57.551 35.039c2.5391 0 4.6016-2.3828 4.6016-5.3086 0-2.9297-2.0664-5.3086-4.6016-5.3086-2.5391 0-4.6055 2.3828-4.6055 5.3086s2.0664 5.3086 4.6055 5.3086zm0-7.4961c0.78906 0 1.4766 1.0195 1.4766 2.1836 0 1.1641-0.69141 2.1836-1.4766 2.1836-0.78906 0-1.4805-1.0195-1.4805-2.1836 0-1.1641 0.69141-2.1836 1.4805-2.1836z"/>
 <path d="m67.316 58.516h-6.4023v-4.6289c4.2305-2.0859 7.2812-6.2031 7.8555-11.082h5.1406c0.86328 0 1.5625-0.69922 1.5625-1.5625v-11.891c0-0.86328-0.69922-1.5625-1.5625-1.5625h-5.1484c-0.59375-4.5039-3.6914-8.2188-7.8477-9.707v-6.5273c0-0.86328-0.69922-1.5625-1.5625-1.5625-0.86328 0-1.5625 0.69922-1.5625 1.5625v5.8633c-0.30078-0.023438-0.60156-0.046875-0.90625-0.046875h-13.773c-0.30469 0-0.60547 0.023437-0.90625 0.046875v-5.8633c0-0.86328-0.69922-1.5625-1.5625-1.5625s-1.5625 0.69922-1.5625 1.5625v6.5273c-4.1562 1.4883-7.2539 5.2031-7.8477 9.707h-5.1484c-0.86328 0-1.5625 0.69922-1.5625 1.5625v11.891c0 0.86328 0.69922 1.5625 1.5625 1.5625h5.1406c0.57812 4.875 3.625 8.9922 7.8555 11.078v4.6289h-6.4023c-6.2461 0-11.328 5.082-11.328 11.328v18.602c0 0.86328 0.69922 1.5625 1.5625 1.5625h54.168c0.86328 0 1.5625-0.69922 1.5625-1.5625v-18.602c0-6.2461-5.082-11.328-11.328-11.328zm5.0352-18.832h-3.4727v-8.7656h3.4727zm-44.703-8.7695h3.4727v8.7656h-3.4727zm6.5977 10.215v-11.762c0-4.8906 3.9766-8.8672 8.8672-8.8672h13.773c4.8906 0 8.8672 3.9766 8.8672 8.8672v11.762c0 6.125-4.9844 11.109-11.109 11.109h-9.2891c-6.125 0-11.109-4.9844-11.109-11.109zm7.9648 13.871c1.0156 0.23047 2.0625 0.36328 3.1484 0.36328h9.2891c1.082 0 2.1328-0.13281 3.1445-0.36328v3.5156h-15.582zm-17.73 14.844c0-3.9883 2.8633-7.3203 6.6406-8.0547v25.09h-6.6406v-17.039zm9.7656-8.2031h31.512v25.242h-31.512zm41.273 25.242h-6.6406v-25.09c3.7773 0.73047 6.6406 4.0664 6.6406 8.0547v17.039z"/>
 <path d="m57.551 69.738h-15.105c-0.86328 0-1.5625 0.69922-1.5625 1.5625v7.9219c0 0.86328 0.69922 1.5625 1.5625 1.5625h15.105c0.86328 0 1.5625-0.69922 1.5625-1.5625v-7.9219c0-0.86328-0.69922-1.5625-1.5625-1.5625zm-1.5625 7.918h-11.98v-4.7969h11.98z"/>
 <path d="m57.301 44.93c0.20703-0.27344 0.32031-0.60547 0.32031-0.94531v-4.7812c0-0.86328-0.69922-1.5625-1.5625-1.5625h-12.117c-0.86328 0-1.5625 0.69922-1.5625 1.5625v4.7812c0 0.34375 0.11328 0.67578 0.32031 0.94531 1.9219 2.5195 4.5156 3.9062 7.3008 3.9062s5.3789-1.3867 7.3008-3.9062zm-11.797-4.1641h8.9922v2.6641c-2.5352 2.9531-6.457 2.9531-8.9922 0z"/>
</svg>