<svg fill="white" xmlns="http://www.w3.org/2000/svg" version="1.1" viewBox="-5.0 -10.0 110.0 135.0">
 <path d="m50 0c-11.902 0-22.684 1.5078-30.613 4.0156-3.9648 1.2539-7.2227 2.7461-9.5977 4.5195-2.375 1.7734-3.9688 3.9648-3.9688 6.4961v69.938c0 2.5273 1.5938 4.7188 3.9688 6.4961 2.375 1.7734 5.6328 3.2695 9.5977 4.5234 7.9297 2.5078 18.711 4.0117 30.613 4.0117s22.672-1.5078 30.602-4.0117c3.9648-1.2539 7.2188-2.7461 9.5938-4.5234 2.375-1.7734 3.9805-3.9648 3.9805-6.4961l0.003907-69.938c0-2.5273-1.6055-4.7188-3.9805-6.4961-2.375-1.7734-5.6289-3.2656-9.5938-4.5195-7.9297-2.5078-18.703-4.0156-30.605-4.0156zm0 3.125c11.637 0 22.176 1.4961 29.668 3.8672 3.7461 1.1836 6.7227 2.5977 8.6602 4.0469 1.9375 1.4492 2.7227 2.8008 2.7227 3.9922s-0.78516 2.543-2.7227 3.9922c-1.9375 1.4492-4.9141 2.8633-8.6602 4.0469-7.4961 2.3711-18.035 3.875-29.668 3.875-11.637 0-22.176-1.5078-29.668-3.875-3.7461-1.1836-6.7266-2.5977-8.6641-4.0469-1.9375-1.4492-2.7227-2.8008-2.7227-3.9922s0.78516-2.543 2.7227-3.9922c1.9375-1.4492 4.918-2.8633 8.6641-4.0469 7.4961-2.3711 18.035-3.8672 29.668-3.8672zm41.055 17.715v17.504c0 0.074219-0.003907 0.14844-0.007813 0.22656-0.003906 0.054688-0.011719 0.10547-0.019531 0.16016 0 0.003906-0.003906 0.011719-0.003906 0.019531-0.003907 0.042969-0.011719 0.082031-0.023438 0.12109-0.011719 0.054687-0.019531 0.10938-0.035156 0.16406-0.003906 0.011719-0.007813 0.019532-0.011719 0.03125-0.019531 0.066406-0.035156 0.14062-0.058594 0.20703 0 0.003906 0 0.007812-0.003906 0.011718-0.023437 0.074219-0.054687 0.14844-0.085937 0.22656s-0.066407 0.15234-0.10547 0.23047c0 0.003906-0.003907 0.011718-0.007813 0.011718-0.03125 0.066406-0.066406 0.12891-0.10547 0.19531-0.011719 0.019531-0.019532 0.03125-0.03125 0.046875-0.31641 0.54688-0.80078 1.125-1.4883 1.7305-0.88672 0.77734-2.082 1.5664-3.5586 2.3203-0.019531 0.007813-0.035156 0.019531-0.054687 0.023437-0.13281 0.066407-0.26562 0.13672-0.39844 0.20313-0.12891 0.0625-0.26172 0.12891-0.39453 0.1875-0.023437 0.011718-0.046875 0.023437-0.074218 0.035156-0.25 0.11719-0.51172 0.23047-0.77344 0.34375-0.17578 0.078125-0.35547 0.15234-0.53906 0.23047-0.24609 0.10156-0.49219 0.20313-0.74609 0.30078-0.34766 0.13672-0.70703 0.26953-1.0742 0.40234-0.011719 0.003906-0.023437 0.011718-0.042969 0.019531-0.36719 0.13281-0.74219 0.26172-1.125 0.38672-0.011718 0.003906-0.023437 0.007812-0.035156 0.011718-5.5625 1.832-12.973 3.1992-21.445 3.7734l0.011718-0.003906c-0.007812 0.003906-0.019531 0.003906-0.03125 0.007812-2.8359 0.19141-5.7773 0.29688-8.7969 0.29688-11.516 0-21.949-1.4766-29.43-3.8047h0.003906c-0.023438-0.011719-0.050781-0.019532-0.078125-0.03125-0.92578-0.28906-1.8047-0.58984-2.6289-0.90234-0.050781-0.019532-0.10156-0.042969-0.14844-0.058594-0.10938-0.042969-0.21484-0.082031-0.32031-0.125-0.21094-0.082031-0.42188-0.16797-0.62891-0.25391-0.15625-0.0625-0.30859-0.12891-0.46094-0.19141-0.14844-0.0625-0.29297-0.12891-0.4375-0.19141-0.33203-0.14844-0.65234-0.29688-0.96484-0.44922-0.046875-0.023437-0.09375-0.046874-0.14062-0.066406-0.097656-0.046875-0.19922-0.10156-0.29688-0.14844-0.082031-0.042969-0.16016-0.082031-0.23828-0.125-0.11719-0.0625-0.23047-0.12109-0.34375-0.18359-0.050781-0.023437-0.097656-0.054687-0.14844-0.078125-0.46484-0.25781-0.89844-0.51562-1.2969-0.77734-0.019532-0.011718-0.039063-0.03125-0.058594-0.042968-0.27344-0.18359-0.53125-0.36328-0.77344-0.54688-1.3828-1.0469-2.1562-2.0391-2.4805-2.9375 0-0.003906-0.003907-0.007812-0.003907-0.011718-0.011719-0.035156-0.027343-0.070313-0.035156-0.10547v-0.003906c-0.003906-0.011719-0.007813-0.019531-0.007813-0.03125-0.007812-0.03125-0.015624-0.058594-0.023437-0.089844-0.03125-0.10938-0.054687-0.21484-0.074219-0.32422 0-0.003906-0.003906-0.011718-0.003906-0.019531-0.007812-0.054687-0.015625-0.11328-0.019531-0.16797 0-0.019531-0.003907-0.035156-0.007813-0.054687-0.003906-0.074219-0.007812-0.14453-0.007812-0.21484v-17.496c0.26953 0.23047 0.55078 0.45703 0.84375 0.67578 2.375 1.7734 5.6328 3.2656 9.5977 4.5195 7.9297 2.5078 18.711 4.0273 30.613 4.0273 11.902 0 22.672-1.5195 30.602-4.0273 3.9648-1.2539 7.2188-2.7461 9.5938-4.5195 0.29688-0.22266 0.58203-0.45312 0.85547-0.6875zm-15.445 11.148c-3.2539 0-5.9258 2.6758-5.9258 5.9297 0 3.2539 2.6719 5.9258 5.9258 5.9258s5.918-2.6719 5.918-5.9258c0-3.2539-2.6641-5.9297-5.918-5.9297zm-55.457 2.9648h-0.003906c-0.72656-0.058594-1.3984 0.39844-1.6172 1.0938-0.125 0.39844-0.085938 0.82812 0.10547 1.1953 0.19531 0.36719 0.52734 0.64453 0.92188 0.76953 8.2031 2.5664 19.086 3.9688 30.441 3.9688 3.0391 0 6.0703-0.097657 9.043-0.29688v-0.003906c0.41797-0.027344 0.80469-0.22266 1.0742-0.53516 0.27344-0.3125 0.41016-0.72266 0.37891-1.1367-0.027344-0.41797-0.21875-0.80469-0.53125-1.0781-0.31641-0.27344-0.72656-0.41016-1.1406-0.37891-2.9023 0.19531-5.8555 0.30078-8.8242 0.30078-11.094 0-21.75-1.4062-29.508-3.832l0.003906 0.003907c-0.11328-0.035157-0.23047-0.058594-0.34766-0.066407zm55.457 0.16016c1.5664 0 2.8047 1.2383 2.8047 2.8047 0 1.5664-1.2383 2.8008-2.8047 2.8008s-2.8008-1.2383-2.8008-2.8008c0-1.5664 1.2383-2.8047 2.8008-2.8047zm15.445 9.0391v17.504c0 1.1914-0.78516 2.543-2.7227 3.9922-1.9375 1.4492-4.9141 2.8633-8.6602 4.0469-7.4961 2.3711-18.035 3.875-29.668 3.875-11.637 0-22.176-1.5078-29.668-3.875-3.7461-1.1836-6.7266-2.5977-8.6641-4.0469-1.9375-1.4492-2.7227-2.8008-2.7227-3.9922l-0.003907-17.492c0.26953 0.23047 0.55078 0.45703 0.84375 0.67578 0.050782 0.035156 0.10547 0.074218 0.15625 0.10938 0.074219 0.054687 0.15234 0.11328 0.23047 0.16797 0.0625 0.046874 0.12891 0.089843 0.19141 0.13281 0.09375 0.066406 0.1875 0.12891 0.28516 0.19141 0.082031 0.054688 0.16406 0.10938 0.24609 0.16016 0.082031 0.054688 0.16797 0.10938 0.25391 0.16016 0.070312 0.042969 0.13672 0.085937 0.20703 0.12891 0.10156 0.0625 0.20703 0.125 0.3125 0.1875 0.054687 0.035156 0.11328 0.066406 0.17188 0.097656 0.13281 0.074219 0.26562 0.15234 0.39844 0.23047 0.03125 0.019531 0.0625 0.03125 0.089843 0.046875 0.14453 0.078125 0.29688 0.16016 0.44531 0.23828 0.066406 0.035156 0.13281 0.070313 0.20312 0.10547 0.13281 0.066406 0.26172 0.13281 0.39844 0.20312 0.039063 0.019531 0.082032 0.042969 0.12109 0.0625 0.15625 0.074219 0.3125 0.15234 0.46875 0.22656 0.007812 0.003907 0.015625 0.003907 0.019531 0.011719 0.19922 0.09375 0.39844 0.1875 0.60547 0.27734 0.003906 0 0.007812 0 0.007812 0.003906 0.10156 0.046875 0.21094 0.09375 0.3125 0.13672 0.10547 0.046875 0.20703 0.089844 0.3125 0.13281 1.3203 0.55859 2.7617 1.082 4.3281 1.5703l0.007812-0.003906c0.019531 0.007812 0.042969 0.011719 0.066406 0.019531 7.9062 2.4609 18.59 3.9531 30.375 3.9531 7.6992 0 14.918-0.64062 21.207-1.7656 0.10547-0.019531 0.21094-0.042969 0.31641-0.058594 0.16016-0.03125 0.32031-0.054687 0.48047-0.085937 0.019532-0.003907 0.042969-0.007813 0.0625-0.011719 0.24219-0.046875 0.48047-0.09375 0.71875-0.14062 0.46094-0.089844 0.91406-0.18359 1.3594-0.27734 0.007812 0 0.011718 0 0.023437-0.003906 0.57031-0.12109 1.1328-0.24609 1.6836-0.37891 0.054687-0.011719 0.10156-0.03125 0.15625-0.042969 1.6211-0.38672 3.1562-0.80859 4.5938-1.2617 0.019531-0.003906 0.03125-0.011719 0.046875-0.019531 0.48047-0.15234 0.94922-0.30859 1.4062-0.46875 0.023437-0.007812 0.046875-0.019531 0.074218-0.03125 0.33984-0.11719 0.67578-0.24219 1-0.36328 1.7734-0.66406 3.375-1.3867 4.7773-2.1719 0.11719-0.066406 0.23438-0.13281 0.34766-0.19922 0.035157-0.023437 0.074219-0.042969 0.10938-0.0625 0.03125-0.019531 0.0625-0.035156 0.089843-0.054687 0.625-0.37109 1.207-0.75781 1.7422-1.1602 0.29688-0.22266 0.58203-0.44922 0.85547-0.68359zm-15.445 11.145c-3.2539 0-5.9258 2.6758-5.9258 5.9297 0 3.2539 2.6719 5.9297 5.9258 5.9297s5.918-2.6758 5.918-5.9297c0-3.2539-2.6641-5.9297-5.918-5.9297zm-55.457 2.9648-0.003906 0.003906c-0.72656-0.058594-1.3984 0.39844-1.6172 1.0977-0.125 0.39453-0.085938 0.82422 0.10938 1.1914 0.19141 0.36719 0.52344 0.64453 0.91797 0.76562 8.2031 2.5664 19.086 3.9688 30.441 3.9688 3.0391 0 6.0703-0.097656 9.043-0.30078 0.41797-0.027343 0.80469-0.21875 1.0742-0.53125 0.27344-0.31641 0.41016-0.72656 0.37891-1.1406-0.027344-0.41406-0.21875-0.80078-0.53125-1.0742-0.31641-0.27344-0.72656-0.40625-1.1406-0.37891-2.9023 0.19531-5.8555 0.30078-8.8242 0.30078-11.094 0-21.75-1.4062-29.508-3.832h0.003906c-0.11328-0.035156-0.23047-0.054687-0.34766-0.066406zm55.457 0.16016c1.5664 0 2.8047 1.2383 2.8047 2.8008 0 1.5664-1.2383 2.8008-2.8047 2.8008s-2.8008-1.2383-2.8008-2.8008c0-1.5664 1.2383-2.8008 2.8008-2.8008zm15.445 9.0352v17.504c0 1.1914-0.78516 2.543-2.7227 3.9922s-4.9141 2.8672-8.6602 4.0508c-7.4961 2.3711-18.035 3.875-29.668 3.875-11.637 0-22.176-1.5039-29.668-3.875-3.7461-1.1836-6.7266-2.6016-8.6641-4.0508s-2.7227-2.8008-2.7227-3.9922v-17.496c0.26953 0.23047 0.55078 0.45703 0.84375 0.67578 2.375 1.7734 5.6328 3.2656 9.5977 4.5195 7.9297 2.5078 18.711 4.0156 30.613 4.0156s22.672-1.5078 30.602-4.0156c3.9648-1.2539 7.2188-2.7461 9.5938-4.5195 0.29688-0.22266 0.58203-0.45312 0.85547-0.6875zm-15.598 11.148c-3.1836 0.082031-5.7734 2.7227-5.7734 5.9258 0 3.2539 2.6719 5.9297 5.9258 5.9297s5.918-2.6758 5.918-5.9297-2.6641-5.9258-5.918-5.9258h-0.15234zm-55.305 2.9648-0.003906 0.011719c-0.72656-0.058593-1.3984 0.39453-1.6172 1.0898-0.125 0.39844-0.085938 0.82812 0.10547 1.1953 0.19531 0.37109 0.52734 0.64453 0.92188 0.76953 8.2031 2.5664 19.086 3.9688 30.441 3.9688 3.0391 0 6.0703-0.10156 9.043-0.30078v-0.003907c0.41797-0.027343 0.80469-0.21875 1.0742-0.53516 0.27344-0.3125 0.41016-0.72266 0.37891-1.1367-0.027344-0.41406-0.21875-0.80078-0.53125-1.0742-0.31641-0.27344-0.72656-0.41016-1.1406-0.37891-2.9023 0.19531-5.8555 0.30078-8.8242 0.30078-11.094 0-21.75-1.4062-29.508-3.832l0.003906 0.003907c-0.11328-0.035157-0.23047-0.058594-0.34766-0.066407zm55.457 0.16016c1.5664 0 2.8047 1.2383 2.8047 2.8008 0 1.5664-1.2383 2.8047-2.8047 2.8047s-2.8008-1.2383-2.8008-2.8047 1.2383-2.8008 2.8008-2.8008z"/>
</svg>