<svg xmlns="http://www.w3.org/2000/svg" version="1.1" viewBox="-5.0 -10.0 110.0 135.0">
 <path d="m28.891 17.113c6.0586-0.074219 12.105 0.51953 18.035 1.7695 5.0664 1.1953 8.2109 3.043 8.2227 5.2617v51.711c0 3.2539-5.6836 5-11.91 5.9219-4.668 0.64844-9.3672 1.0156-14.082 1.1016-0.39844 0-0.050781 0.007813-0.27344 0.007813-0.21875 0 0.12891 0-0.27344-0.007813h0.003906c-4.707-0.085937-9.4102-0.45312-14.078-1.1016-6.2188-0.92188-11.902-2.6641-11.902-5.9219v-51.711c0.019532-2.2148 3.1562-4.0625 8.2227-5.2617v-0.003906c5.9297-1.25 11.977-1.8438 18.035-1.7695zm0 52.531c-1.6797 0-3.125 1.1836-3.4531 2.832-0.32812 1.6484 0.55078 3.2969 2.1016 3.9375 1.5508 0.64453 3.3398 0.10156 4.2734-1.293 0.93359-1.3945 0.75-3.2578-0.4375-4.4453-0.65625-0.66016-1.5508-1.0312-2.4844-1.0312zm0.91406 2.6016c-0.43359-0.4375-1.1211-0.50391-1.6328-0.16016-0.51562 0.33984-0.71484 1-0.48047 1.5703 0.23828 0.57422 0.84375 0.89844 1.4492 0.77734 0.60938-0.12109 1.043-0.65234 1.043-1.2734 0.003906-0.33984-0.13281-0.67188-0.37891-0.91406zm-0.91406-15.016c0.61719 0 1.1484-0.4375 1.2695-1.0391 0.11719-0.60547-0.20703-1.2148-0.77734-1.4492-0.57031-0.23438-1.2266-0.035157-1.5703 0.47656-0.33984 0.51562-0.27344 1.1992 0.16406 1.6328 0.24219 0.24609 0.57031 0.38281 0.91406 0.37891zm2.4844 1.1914c1.1836-1.1875 1.3672-3.043 0.43359-4.4336-0.92969-1.3945-2.7148-1.9336-4.2617-1.293-1.5469 0.64063-2.4258 2.2891-2.1016 3.9297 0.32813 1.6445 1.7695 2.8281 3.4453 2.8281 0.93359 0 1.8281-0.37109 2.4844-1.0312zm-2.4844-23.227c-1.6797 0-3.1211 1.1836-3.4492 2.832-0.32812 1.6445 0.55078 3.293 2.1016 3.9336 1.5508 0.64453 3.3398 0.10156 4.2695-1.293 0.93359-1.3984 0.75-3.2578-0.4375-4.4414-0.65625-0.66016-1.5508-1.0312-2.4844-1.0312zm0.91406 2.5977c-0.43359-0.4375-1.1211-0.50391-1.6367-0.16016s-0.71484 1-0.47656 1.5742c0.23438 0.57031 0.84375 0.89453 1.4492 0.77734 0.60547-0.12109 1.043-0.65234 1.043-1.2734 0.003906-0.34375-0.13281-0.67188-0.37891-0.91797zm51.723-11.766c0-0.55078-0.39062-1.0273-0.92969-1.1328-0.54297-0.10938-1.0859 0.18359-1.2969 0.69141-0.21094 0.51172-0.035156 1.0977 0.42578 1.4062 0.45703 0.30859 1.0703 0.24609 1.4609-0.14063 0.21875-0.21875 0.33984-0.51562 0.33984-0.82422zm1.2305-2.3906c0.82422 0.82422 1.1641 2.0156 0.90234 3.1484-0.25781 1.1367-1.0859 2.0586-2.1875 2.4375v5.2148c0 0.60938-0.49609 1.1094-1.1094 1.1094h-4.043c-0.085937 0.20312-0.21094 0.39062-0.37109 0.55078l-2.7109 2.7109h5.2891l5.0977-3.8789c-0.70312-1.8281 0.046875-3.8984 1.7617-4.8516 1.7109-0.95312 3.8633-0.50391 5.0508 1.0547 1.1875 1.5586 1.0469 3.7539-0.32812 5.1523-1.375 1.3945-3.5664 1.5664-5.1445 0.40234l-5.3242 4.0508c-0.20312 0.1875-0.47266 0.29297-0.75391 0.29297h-4.9102c0.066407 0.18359 0.12891 0.36719 0.19141 0.55078h4.0586-0.003906c0.45703 0.003907 0.89453 0.18359 1.2188 0.50781l0.007813 0.007812h-0.003907c0.32422 0.32031 0.50391 0.75781 0.50781 1.2148v2.6953h9.707-0.003906c0.55078-1.875 2.3984-3.0586 4.3359-2.7812 1.9336 0.27734 3.3711 1.9375 3.3711 3.8945 0 1.9531-1.4375 3.6133-3.3711 3.8906-1.9375 0.27734-3.7852-0.90625-4.3359-2.7812h-9.707v2.6953h0.003906c-0.003906 0.45703-0.18359 0.89453-0.50781 1.2188l-0.007812 0.007813c-0.32422 0.32031-0.75781 0.50391-1.2148 0.50391h-4.0586c-0.0625 0.18359-0.125 0.36719-0.19141 0.55078h4.9141c0.28125 0 0.55078 0.10547 0.75391 0.29688l5.3164 4.043c1.5742-1.1562 3.7578-0.98438 5.1289 0.40625 1.3672 1.3906 1.5078 3.5781 0.32422 5.1328-1.1836 1.5508-3.3281 2-5.0312 1.0508-1.707-0.94922-2.457-3.0078-1.7578-4.832l-5.0938-3.8789h-5.2891l2.7109 2.7109v-0.003907c0.16016 0.16016 0.28516 0.34766 0.37109 0.55078h4.0469c0.61328 0.003906 1.1055 0.5 1.1055 1.1133v5.2109c1.5586 0.53906 2.5 2.1289 2.2266 3.7539-0.27734 1.6289-1.6836 2.8203-3.3359 2.8203-1.6484 0-3.0586-1.1914-3.332-2.8203-0.27734-1.625 0.66406-3.2148 2.2227-3.7539v-4.1055h-3.6289l-5.0586 5.0586c-0.03125 0.03125-0.0625 0.058593-0.097656 0.085937-0.68359 0.58984-1.707 0.55469-2.3477-0.085937l-2.8711-2.8711c-0.41406 0.21094-0.84375 0.40625-1.2891 0.59375-0.44531 0.18359-0.88672 0.34766-1.3242 0.49219v4.0586l0.003906-0.003906c-0.003906 0.95703-0.77734 1.7305-1.7305 1.7305h-3.8086c-0.61328 0-1.1094-0.49609-1.1094-1.1094v-9.6367c0-0.61328 0.49609-1.1094 1.1094-1.1094 6.0273-0.058594 10.883-4.9609 10.883-10.988 0-6.0312-4.8555-10.934-10.883-10.992-0.29297 0-0.57812-0.11719-0.78516-0.32422-0.20703-0.20703-0.32422-0.49219-0.32422-0.78516v-9.6406c0-0.29297 0.11719-0.57422 0.32422-0.78516 0.20703-0.20703 0.49219-0.32422 0.78516-0.32422h3.8086c0.45703 0 0.89453 0.18359 1.2188 0.50781l0.007813 0.007812h-0.003907c0.32422 0.32031 0.50391 0.75781 0.50781 1.2148v4.0547c0.44141 0.14453 0.88281 0.30859 1.3242 0.49219 0.44141 0.18359 0.87109 0.37891 1.2891 0.59375l2.8711-2.8711h-0.003906c0.32422-0.32422 0.76172-0.50391 1.2188-0.50391 0.46094 0 0.89844 0.17969 1.2227 0.50391l5.0586 5.0586h3.6289v-4.1055c-0.97266-0.33594-1.7383-1.0977-2.082-2.0703-0.33984-0.97266-0.22266-2.0469 0.32422-2.9219 0.54687-0.87109 1.4648-1.4492 2.4883-1.5664 1.0234-0.11328 2.043 0.24219 2.7734 0.97266zm6.2539 9.8867c-0.003907-0.82031-0.58203-1.5234-1.3828-1.6836-0.80469-0.15625-1.6055 0.27344-1.918 1.0273-0.31641 0.75781-0.050782 1.6289 0.63281 2.0859 0.67969 0.45312 1.5859 0.36328 2.1641-0.21484 0.32422-0.32422 0.50391-0.75781 0.50391-1.2148zm-7.8242 35.5c0.39062-0.39063 0.44922-1.0039 0.14062-1.4609s-0.89453-0.63672-1.4062-0.42578c-0.50781 0.21484-0.79688 0.75391-0.69141 1.2969 0.10938 0.54297 0.58203 0.92969 1.1367 0.93359 0.30859 0 0.60156-0.125 0.82031-0.34375zm7.3203-7.1016c0.57813-0.57812 0.66797-1.4883 0.21484-2.168-0.45312-0.67969-1.3281-0.94531-2.082-0.63281-0.75781 0.3125-1.1875 1.1172-1.0273 1.9219 0.16016 0.80078 0.86328 1.3789 1.6836 1.3789 0.45312 0.003906 0.89062-0.17969 1.2109-0.5zm6.6406-14.805c0-0.82031-0.57813-1.5234-1.3789-1.6836-0.80469-0.16016-1.6055 0.26953-1.9219 1.0273-0.3125 0.75391-0.046875 1.625 0.63281 2.082 0.67969 0.45312 1.5859 0.36328 2.1641-0.21484 0.32422-0.32031 0.50391-0.75781 0.50391-1.2109zm-34.727-20.633h-2.2109v7.4688c6.8398 0.57422 12.098 6.2969 12.098 13.164 0 6.8633-5.2578 12.586-12.098 13.16v7.4648h2.2109v-4.3906c0-0.5 0.33594-0.9375 0.82031-1.0703 1.2656-0.33984 2.4844-0.84375 3.6211-1.4922 0.44141-0.27734 1.0117-0.21484 1.3789 0.15234l3.1055 3.1055 4.6914-4.6914-3.1055-3.1055h-0.003906c-0.35156-0.35156-0.42578-0.89844-0.17578-1.3359 0.65625-1.1406 1.1641-2.3594 1.5078-3.6328 0.12109-0.49609 0.56641-0.85156 1.082-0.85156h4.3906v-6.6328l-4.3945 0.003906c-0.50391 0-0.94141-0.33594-1.0742-0.82031-0.33984-1.2656-0.83984-2.4844-1.4922-3.6211-0.27734-0.44141-0.21094-1.0117 0.15625-1.3789l3.1055-3.1055-4.6914-4.6914-3.1055 3.1055c-0.35547 0.35547-0.90234 0.42969-1.3359 0.17969-1.1406-0.65625-2.3594-1.1641-3.6328-1.5078-0.5-0.12109-0.85156-0.56641-0.85156-1.082v-4.3945zm-2.2109 28.621c3.9883-0.55078 6.9609-3.9609 6.9609-7.9883 0-4.0312-2.9727-7.4414-6.9609-7.9922zm6.1641-0.71875v0.003906c2.9414-2.9414 3.8242-7.3672 2.2305-11.211s-5.3438-6.3516-9.5039-6.3516c-0.29687 0-0.57812 0.11719-0.78516 0.32422-0.20703 0.20703-0.32422 0.48828-0.32422 0.78516v18.355c0 0.61328 0.49609 1.1094 1.1094 1.1094 2.7305 0.003906 5.3477-1.0781 7.2734-3.0117zm-11.445-9.9648c-1.8711 1.0547-3.8945 1.8125-6 2.2461-5.9297 1.25-11.977 1.8438-18.035 1.7695-6.0586 0.074219-12.105-0.51953-18.035-1.7695-2.1055-0.42969-4.1328-1.1875-6.0078-2.2461v14.191c0 1.0508 2.4844 2.168 6.5078 3.1172 5.7617 1.2109 11.641 1.7852 17.531 1.707 5.8867 0.078125 11.766-0.49609 17.531-1.707 4.0195-0.94922 6.5078-2.0625 6.5078-3.1172zm-48.078-3.0352c0 1.0508 2.4883 2.168 6.5078 3.1172 5.7617 1.2109 11.641 1.7852 17.531 1.707 5.8867 0.078124 11.766-0.49609 17.531-1.707 4.0195-0.94922 6.5039-2.0625 6.5078-3.1172v-14.195c-1.8711 1.0586-3.8945 1.8164-6 2.2461-5.9297 1.2539-11.977 1.8477-18.035 1.7695-6.0586 0.078125-12.105-0.51562-18.035-1.7695-2.1055-0.42969-4.1289-1.1875-6-2.2461v14.195zm0-17.23v0.007812c0 1.0508 2.4883 2.168 6.5078 3.1172 5.7617 1.2109 11.641 1.7852 17.531 1.707 5.8867 0.078125 11.766-0.49609 17.531-1.707 4.0156-0.94922 6.5039-2.0625 6.5078-3.1172v-0.007812c0-1.0508-2.4922-2.168-6.5078-3.1133-5.7656-1.2109-11.645-1.7852-17.531-1.707-5.8906-0.078126-11.77 0.49609-17.531 1.707-4.0156 0.94922-6.5039 2.0625-6.5078 3.1133zm0 37.484v14.211c0 1.7578 4.7773 2.9531 10.008 3.7266l0.003906 0.003906c4.5664 0.63672 9.1641 0.99609 13.773 1.0859h0.25391 0.25391c4.6094-0.089844 9.2109-0.44922 13.777-1.0859 5.2305-0.77344 10.008-1.9688 10.008-3.7266v-14.211c-1.8711 1.0586-3.8945 1.8164-6 2.2461-5.9297 1.25-11.977 1.8438-18.035 1.7695-6.0586 0.078125-12.109-0.51562-18.039-1.7656-2.1055-0.43359-4.1328-1.1914-6.0039-2.25z" fill-rule="evenodd"/>
</svg>