<svg fill="white" xmlns="http://www.w3.org/2000/svg" xmlns:xlink="http://www.w3.org/1999/xlink" version="1.1" x="0px" y="0px" viewBox="-3.2 -6.4 70.4 86.4" enable-background="new 0 0 64 64" xml:space="preserve"><g><path d="M52,34c-3.976,0-8,1.374-8,4v9h-8.142c-0.364-1.399-1.459-2.494-2.858-2.858V32h12c5.514,0,10-4.486,10-10   c0-5.841-5.036-10.57-10.986-9.948C42.02,7.203,37.292,4,32,4s-10.02,3.203-12.014,8.052C14.032,11.434,9,16.16,9,22   c0,5.514,4.486,10,10,10h12v12.142c-1.399,0.364-2.494,1.459-2.858,2.858H20v-9c0-2.626-4.024-4-8-4s-8,1.374-8,4v18   c0,2.626,4.024,4,8,4s8-1.374,8-4v-7h8.142c0.447,1.72,2,3,3.858,3s3.411-1.28,3.858-3H44v7c0,2.626,4.024,4,8,4s8-1.374,8-4V38   C60,35.374,55.976,34,52,34z M11,22c0-4.411,3.589-8,8-8c0.472,0,0.949,0.046,1.459,0.14c0.491,0.089,0.969-0.192,1.128-0.663   C23.101,9.005,27.285,6,32,6s8.899,3.005,10.413,7.477c0.16,0.47,0.641,0.753,1.128,0.663C44.051,14.046,44.528,14,45,14   c4.411,0,8,3.589,8,8s-3.589,8-8,8H19C14.589,30,11,26.411,11,22z M18,44c0,0.705-2.278,2-6,2s-6-1.295-6-2v-3.268   C7.542,41.57,9.778,42,12,42s4.458-0.43,6-1.268V44z M6,46.732C7.542,47.57,9.778,48,12,48s4.458-0.43,6-1.268V50   c0,0.705-2.278,2-6,2s-6-1.295-6-2V46.732z M12,36c3.722,0,6,1.295,6,2s-2.278,2-6,2s-6-1.295-6-2S8.278,36,12,36z M12,58   c-3.722,0-6-1.295-6-2v-3.268C7.542,53.57,9.778,54,12,54s4.458-0.43,6-1.268V56C18,56.705,15.722,58,12,58z M32,50   c-1.103,0-2-0.897-2-2s0.897-2,2-2s2,0.897,2,2S33.103,50,32,50z M58,50c0,0.705-2.278,2-6,2s-6-1.295-6-2v-3.268   C47.542,47.57,49.778,48,52,48s4.458-0.43,6-1.268V50z M58,44c0,0.705-2.278,2-6,2s-6-1.295-6-2v-3.268   C47.542,41.57,49.778,42,52,42s4.458-0.43,6-1.268V44z M52,36c3.722,0,6,1.295,6,2s-2.278,2-6,2s-6-1.295-6-2S48.278,36,52,36z    M52,58c-3.722,0-6-1.295-6-2v-3.268C47.542,53.57,49.778,54,52,54s4.458-0.43,6-1.268V56C58,56.705,55.722,58,52,58z"/></g></svg>