<svg fill="white" xmlns="http://www.w3.org/2000/svg" version="1.1" viewBox="-5.0 -10.0 110.0 135.0">
 <path d="m91.543 17.578h-83.086c-0.83594 0-1.5977 0.34375-2.1484 0.89453-0.55078 0.55078-0.89453 1.3125-0.89453 2.1484v58.758c0 0.83594 0.34375 1.5977 0.89453 2.1484 0.55078 0.55078 1.3125 0.89453 2.1484 0.89453h83.09c0.83594 0 1.5977-0.34375 2.1484-0.89453 0.55078-0.55078 0.89453-1.3125 0.89453-2.1484v-45.137h-32.555c-0.36719 0-0.71875-0.0625-1.0547-0.18359-0.33203-0.12109-0.64062-0.30469-0.92578-0.55078l-5.9531-5.0898c-0.074218-0.0625-0.14844-0.10938-0.22656-0.13672-0.074219-0.027344-0.16406-0.042969-0.26953-0.042969l-43.301 0.003907c-0.63281 0-1.1445-0.51172-1.1445-1.1445 0-0.63281 0.51172-1.1445 1.1445-1.1445h43.305c0.37109 0 0.71875 0.0625 1.0547 0.18359 0.33203 0.12109 0.64063 0.30469 0.92578 0.55078l5.9531 5.0898c0.074219 0.0625 0.14844 0.10938 0.22656 0.13672 0.074219 0.027344 0.16406 0.042969 0.26953 0.042969h32.555l-0.003906-11.336c0-0.83594-0.34375-1.5977-0.89453-2.1484-0.55469-0.55469-1.3164-0.89453-2.1523-0.89453zm-55.266 27.242c-0.63281 0-1.1445-0.51172-1.1445-1.1445 0-0.63281 0.51172-1.1445 1.1445-1.1445h13.621c0.63281 0 1.1445 0.51172 1.1445 1.1445 0 0.63281-0.51172 1.1445-1.1445 1.1445zm0-5.1406c-0.63281 0-1.1445-0.51172-1.1445-1.1445 0-0.63281 0.51172-1.1445 1.1445-1.1445h13.621c0.63281 0 1.1445 0.51172 1.1445 1.1445 0 0.63281-0.51172 1.1445-1.1445 1.1445zm0-5.1367c-0.63281 0-1.1445-0.51172-1.1445-1.1445 0-0.63281 0.51172-1.1445 1.1445-1.1445h13.621c0.63281 0 1.1445 0.51172 1.1445 1.1445 0 0.63281-0.51172 1.1445-1.1445 1.1445zm24.859 44.797c-0.63281 0-1.1445-0.51172-1.1445-1.1445 0-0.63281 0.51172-1.1445 1.1445-1.1445h18.094c0.63281 0 1.1445 0.51172 1.1445 1.1445 0 0.63281-0.51172 1.1445-1.1445 1.1445zm9.4609-3.6523c-0.63281 0-1.1445-0.51172-1.1445-1.1445 0-0.63281 0.51172-1.1445 1.1445-1.1445h8.6328c0.63281 0 1.1445 0.51172 1.1445 1.1445 0 0.63281-0.51172 1.1445-1.1445 1.1445zm-9.4609-5.5742c-0.63281 0-1.1445-0.51172-1.1445-1.1445s0.51172-1.1445 1.1445-1.1445h18.094c0.63281 0 1.1445 0.51172 1.1445 1.1445s-0.51172 1.1445-1.1445 1.1445zm9.4609-3.6523c-0.63281 0-1.1445-0.51172-1.1445-1.1445 0-0.63281 0.51172-1.1445 1.1445-1.1445h8.6328c0.63281 0 1.1445 0.51172 1.1445 1.1445 0 0.63281-0.51172 1.1445-1.1445 1.1445zm-9.4609-5.5781c-0.63281 0-1.1445-0.51172-1.1445-1.1445 0-0.63281 0.51172-1.1445 1.1445-1.1445h18.094c0.63281 0 1.1445 0.51172 1.1445 1.1445 0 0.63281-0.51172 1.1445-1.1445 1.1445zm9.4609-3.6523c-0.63281 0-1.1445-0.51172-1.1445-1.1445 0-0.63281 0.51172-1.1445 1.1445-1.1445h8.6328c0.63281 0 1.1445 0.51172 1.1445 1.1445 0 0.63281-0.51172 1.1445-1.1445 1.1445zm13.117 15.508h4.9766c0.63281 0 1.1445 0.51172 1.1445 1.1445v4.9766c0 0.63281-0.51172 1.1445-1.1445 1.1445h-4.9766c-0.63281 0-1.1445-0.51172-1.1445-1.1445v-4.9766c0-0.63281 0.51172-1.1445 1.1445-1.1445zm3.832 2.2891v2.6875h-2.6875v-2.6875zm-3.832-11.516h4.9766c0.63281 0 1.1445 0.51172 1.1445 1.1445v4.9766c0 0.63281-0.51172 1.1445-1.1445 1.1445h-4.9766c-0.63281 0-1.1445-0.51172-1.1445-1.1445v-4.9766c0-0.63281 0.51172-1.1445 1.1445-1.1445zm3.832 2.2852v2.6914h-2.6875v-2.6914zm-3.832-11.512h4.9766c0.63281 0 1.1445 0.51172 1.1445 1.1445v4.9766c0 0.63281-0.51172 1.1445-1.1445 1.1445h-4.9766c-0.63281 0-1.1445-0.51172-1.1445-1.1445v-4.9805c0-0.62891 0.51172-1.1406 1.1445-1.1406zm3.832 2.2852v2.6875h-2.6875v-2.6875zm-71.059-7.5977c1.0117 0.69531 2.2383 1.1055 3.5547 1.1055 1.7344 0 3.3008-0.70312 4.4375-1.8398 0.87891-0.87891 1.5-2.0195 1.7344-3.293h2.5273c-0.25781 1.9648-1.1641 3.7266-2.4961 5.0625-1.5859 1.5859-3.7812 2.5703-6.2031 2.5703-2.0117 0-3.8633-0.67578-5.3438-1.8125zm-3.4062 0.17188c-1.1367-1.4805-1.8125-3.332-1.8125-5.3438 0-2.4219 0.98047-4.6172 2.5703-6.2031 1.332-1.332 3.0938-2.2383 5.0586-2.4961v2.5273c-1.2734 0.23438-2.4141 0.85547-3.293 1.7344-1.1367 1.1367-1.8398 2.707-1.8398 4.4375 0 1.3203 0.40625 2.543 1.1055 3.5547zm13.133-6.4883c-0.23438-1.2734-0.85547-2.4141-1.7344-3.293-0.87891-0.87891-2.0195-1.5-3.293-1.7344v-2.5273c1.9648 0.25781 3.7266 1.1641 5.0625 2.4961 1.3359 1.332 2.2383 3.0977 2.4961 5.0625zm-3.3516-1.6797c0.72266 0.72266 1.168 1.7188 1.168 2.8203s-0.44531 2.1016-1.168 2.8203c-0.72266 0.72266-1.7188 1.168-2.8203 1.168-1.1016 0-2.1016-0.44531-2.8203-1.168-0.72266-0.72266-1.168-1.7188-1.168-2.8203s0.44531-2.1016 1.168-2.8203c0.72266-0.72266 1.7188-1.168 2.8203-1.168 1.1016 0 2.1016 0.44531 2.8203 1.168zm-2.8203-8.2383c3.0547 0 5.8203 1.2383 7.8203 3.2383 2.0039 2.0039 3.2383 4.7656 3.2383 7.8203s-1.2383 5.8203-3.2383 7.8203c-2.0039 2.0039-4.7656 3.2383-7.8203 3.2383-3.0547 0-5.8203-1.2383-7.8203-3.2383-2.0039-2-3.2383-4.7656-3.2383-7.8203s1.2383-5.8203 3.2383-7.8203 4.7656-3.2383 7.8203-3.2383zm17.664 24.34h5.5156c0.63281 0 1.1445 0.51172 1.1445 1.1445v19.32c0 0.63281-0.51172 1.1445-1.1445 1.1445h-5.5156c-0.63281 0-1.1445-0.51172-1.1445-1.1445v-19.324c0.003906-0.62891 0.51172-1.1406 1.1445-1.1406zm4.375 2.2852v17.035h-3.2305v-17.035zm-13.57 6.0781h5.5156c0.63281 0 1.1445 0.51172 1.1445 1.1445v10.957c0 0.63281-0.51172 1.1445-1.1445 1.1445h-5.5156c-0.63281 0-1.1445-0.51172-1.1445-1.1445l0.003906-10.957c0-0.63281 0.51172-1.1445 1.1406-1.1445zm4.375 2.2852v8.668l-3.2305 0.003907v-8.668zm-13.566-5.5156h5.5156c0.63281 0 1.1445 0.51172 1.1445 1.1445v14.188c0 0.63281-0.51172 1.1445-1.1445 1.1445h-5.5156c-0.63281 0-1.1445-0.51172-1.1445-1.1445v-14.188c0-0.63281 0.51172-1.1445 1.1445-1.1445zm4.3711 2.2852v11.902h-3.2305v-11.902zm-13.566 4.2031h5.5156c0.63281 0 1.1445 0.51172 1.1445 1.1445v7.6992c0 0.63281-0.51172 1.1445-1.1445 1.1445l-5.5156-0.003906c-0.63281 0-1.1445-0.51172-1.1445-1.1445v-7.6992c0-0.62891 0.51172-1.1406 1.1445-1.1406zm4.3711 2.2891v5.4102h-3.2305v-5.4102zm41.348-21.387 4.8711-4.1211c-0.13672-0.36719-0.21094-0.76172-0.21094-1.1758 0-0.92969 0.37891-1.7734 0.98828-2.3828 0.60937-0.60938 1.4531-0.98828 2.3828-0.98828s1.7734 0.37891 2.3828 0.98828c0.59766 0.59766 0.96875 1.4141 0.98828 2.3164l3.707 1.25c0.082031-0.10156 0.16797-0.19922 0.25781-0.28906 0.60937-0.60938 1.4531-0.98828 2.3828-0.98828 0.64844 0 1.2539 0.18359 1.7656 0.5l4.7617-3.8086c-0.11719-0.34375-0.17969-0.71094-0.17969-1.0938 0-0.92969 0.37891-1.7734 0.98828-2.3828 0.60937-0.60938 1.4531-0.98828 2.3828-0.98828s1.7734 0.37891 2.3828 0.98828c0.60938 0.60938 0.98828 1.4531 0.98828 2.3828 0 0.92969-0.37891 1.7734-0.98828 2.3828-0.60937 0.60938-1.4531 0.98828-2.3828 0.98828-0.64844 0-1.2539-0.18359-1.7656-0.5l-4.7617 3.8086c0.11719 0.34375 0.17969 0.71094 0.17969 1.0938 0 0.92969-0.37891 1.7734-0.98828 2.3828-0.60937 0.60938-1.4531 0.98828-2.3828 0.98828s-1.7734-0.37891-2.3828-0.98828c-0.59375-0.59375-0.96875-1.4141-0.98828-2.3164l-3.707-1.25c-0.082031 0.10156-0.16797 0.19922-0.25781 0.28906-0.60937 0.60938-1.4531 0.98828-2.3828 0.98828-0.61328 0-1.1875-0.16406-1.6836-0.44922l-4.8711 4.1211c0.13672 0.36719 0.21094 0.76172 0.21094 1.1758 0 0.92969-0.37891 1.7734-0.98828 2.3828s-1.4531 0.98828-2.3828 0.98828c-0.92969 0-1.7734-0.37891-2.3828-0.98828s-0.98828-1.4531-0.98828-2.3828c0-0.92969 0.37891-1.7734 0.98828-2.3828s1.4531-0.98828 2.3828-0.98828c0.61328 0 1.1875 0.16406 1.6836 0.44922zm28.227-10.555c0.19531 0.19531 0.31641 0.46484 0.31641 0.76562s-0.12109 0.57031-0.31641 0.76562c-0.19531 0.19531-0.46484 0.31641-0.76562 0.31641-0.30078 0-0.57031-0.12109-0.76563-0.31641-0.19531-0.19531-0.31641-0.46484-0.31641-0.76562s0.12109-0.57031 0.31641-0.76562c0.19531-0.19531 0.46484-0.31641 0.76563-0.31641 0.30078-0.003907 0.57031 0.12109 0.76562 0.31641zm-9.7148 7.7695c0.19531 0.19531 0.31641 0.46484 0.31641 0.76562s-0.12109 0.57031-0.31641 0.76562c-0.19531 0.19531-0.46484 0.31641-0.76562 0.31641-0.30078 0-0.57031-0.12109-0.76562-0.31641-0.19531-0.19531-0.31641-0.46484-0.31641-0.76562s0.12109-0.57031 0.31641-0.76562c0.19531-0.19531 0.46484-0.31641 0.76562-0.31641 0.30078 0 0.57031 0.12109 0.76562 0.31641zm-9.7148-3.2773c0.19531 0.19531 0.31641 0.46484 0.31641 0.76563 0 0.30078-0.12109 0.57031-0.31641 0.76562-0.19531 0.19531-0.46484 0.31641-0.76562 0.31641s-0.57031-0.12109-0.76562-0.31641c-0.19531-0.19531-0.31641-0.46484-0.31641-0.76562 0-0.30078 0.12109-0.57031 0.31641-0.76563 0.19531-0.19531 0.46484-0.31641 0.76562-0.31641s0.57031 0.12109 0.76562 0.31641zm-9.7148 8.2188c0.19531 0.19531 0.31641 0.46484 0.31641 0.76563 0 0.30078-0.12109 0.57031-0.31641 0.76562-0.19531 0.19531-0.46484 0.31641-0.76562 0.31641-0.30078 0-0.57031-0.12109-0.76562-0.31641-0.19531-0.19531-0.31641-0.46484-0.31641-0.76562 0-0.30078 0.12109-0.57031 0.31641-0.76563 0.19531-0.19531 0.46484-0.31641 0.76562-0.31641 0.30078-0.003906 0.57031 0.11719 0.76562 0.31641zm12.414-28.625c0.375 0 0.71484 0.15234 0.96094 0.39844 0.24609 0.24609 0.39844 0.58594 0.39844 0.96094s-0.15234 0.71484-0.39844 0.96094c-0.24609 0.24609-0.58594 0.39844-0.96094 0.39844s-0.71484-0.15234-0.96094-0.39844-0.39844-0.58594-0.39844-0.96094 0.15234-0.71484 0.39844-0.96094 0.58594-0.39844 0.96094-0.39844zm-2.5781-1.2188c0.66016-0.66016 1.5703-1.0664 2.5742-1.0664 1.0078 0 1.918 0.41016 2.5742 1.0664 0.66016 0.66016 1.0664 1.5703 1.0664 2.5742 0 1.0078-0.41016 1.918-1.0664 2.5781-0.66016 0.66016-1.5703 1.0664-2.5742 1.0664-1.0078 0-1.918-0.41016-2.5742-1.0664-0.66016-0.66016-1.0664-1.5703-1.0664-2.5781 0-1.0039 0.40625-1.918 1.0664-2.5742zm12.309 1.2188c0.375 0 0.71484 0.15234 0.96094 0.39844s0.39844 0.58594 0.39844 0.96094-0.15234 0.71484-0.39844 0.96094-0.58594 0.39844-0.96094 0.39844-0.71484-0.15234-0.96094-0.39844-0.39844-0.58594-0.39844-0.96094 0.15234-0.71484 0.39844-0.96094 0.58594-0.39844 0.96094-0.39844zm-2.5781-1.2188c0.66016-0.66016 1.5703-1.0664 2.5781-1.0664 1.0078 0 1.918 0.41016 2.5742 1.0664 0.66016 0.66016 1.0664 1.5703 1.0664 2.5742 0 1.0078-0.41016 1.918-1.0664 2.5781-0.66016 0.66016-1.5703 1.0664-2.5742 1.0664-1.0078 0-1.918-0.41016-2.5781-1.0664-0.66016-0.66016-1.0664-1.5703-1.0664-2.5781 0-1.0039 0.41016-1.918 1.0664-2.5742zm12.309 1.2188c0.375 0 0.71484 0.15234 0.96094 0.39844 0.24609 0.24609 0.39844 0.58594 0.39844 0.96094s-0.15234 0.71484-0.39844 0.96094c-0.24609 0.24609-0.58594 0.39844-0.96094 0.39844s-0.71484-0.15234-0.96094-0.39844-0.39844-0.58594-0.39844-0.96094 0.15234-0.71484 0.39844-0.96094c0.25-0.24609 0.58594-0.39844 0.96094-0.39844zm-2.5742-1.2188c0.66016-0.66016 1.5703-1.0664 2.5742-1.0664 1.0078 0 1.918 0.41016 2.5742 1.0664 0.66016 0.66016 1.0664 1.5703 1.0664 2.5742 0 1.0078-0.40625 1.918-1.0664 2.5781s-1.5703 1.0664-2.5742 1.0664c-1.0078 0-1.918-0.41016-2.5742-1.0664-0.66016-0.66016-1.0664-1.5703-1.0664-2.5781 0-1.0039 0.40625-1.918 1.0664-2.5742zm-75.77-6.625h83.09c1.4648 0 2.8008 0.59766 3.7656 1.5664 0.96484 0.96484 1.5625 2.2969 1.5625 3.7656v58.758c0 1.4648-0.59766 2.8008-1.5664 3.7656-0.96484 0.96484-2.3008 1.5664-3.7656 1.5664h-83.086c-1.4648 0-2.8008-0.60156-3.7656-1.5664-0.96875-0.96484-1.5664-2.2969-1.5664-3.7656v-58.758c0-1.4688 0.59766-2.8008 1.5664-3.7656 0.96484-0.96484 2.2969-1.5664 3.7656-1.5664z" fill-rule="evenodd"/>
</svg>