<svg fill="white" xmlns="http://www.w3.org/2000/svg" data-name="Layer 1" viewBox="0 0 100 125" x="0px" y="0px"><defs><style>
      .cls-1 {
        fill-rule: evenodd;
      }
    </style></defs><path class="cls-1" d="m82.341,12.258v6.888c0,.306.126.585.328.788.203.203.481.328.788.328h6.888l-8.004-8.004h0Zm-19.03,16.509V11.446c0-.307.126-.585.328-.788.203-.203.481-.328.788-.328h15.187v8.816c0,1.059.431,2.02,1.127,2.716.696.696,1.657,1.127,2.716,1.127h8.816v24.588c0,.306-.126.585-.328.788-.203.203-.481.328-.788.328h-13.985v-2.561h-.001c0-.628-.436-1.194-1.075-1.332l-4.433-.972c-.225-.759-.485-1.492-.778-2.199-.3-.724-.637-1.428-1.008-2.112l2.402-3.751c.393-.534.349-1.289-.135-1.772l-5.863-5.863-.002.002c-.443-.443-1.149-.535-1.697-.183l-1.272.815h0Zm-31.005,33.909c-.012.021-.025.041-.039.061l-1.709,2.669,4.315,4.315,3.559-2.28c.422-.287.99-.323,1.458-.046.801.474,1.639.894,2.507,1.255.834.346,1.682.634,2.54.859.532.091.981.496,1.102,1.055l.911,4.159h6.099l.911-4.159h.004c.106-.486.476-.897.992-1.028.893-.229,1.778-.527,2.647-.887.868-.36,1.705-.78,2.506-1.254.428-.253.98-.26,1.428.027l3.59,2.299,4.315-4.315-2.28-3.559c-.287-.422-.323-.99-.046-1.458.474-.802.895-1.639,1.255-2.507.346-.834.634-1.682.859-2.54.091-.532.496-.981,1.055-1.102l4.159-.911v-6.099l-4.159-.911v-.004c-.486-.106-.897-.476-1.028-.992-.229-.893-.527-1.778-.887-2.647-.36-.868-.78-1.705-1.254-2.506-.253-.428-.26-.98.027-1.427l2.299-3.59-4.315-4.315-2.372,1.519c-.048.035-.098.068-.151.097l-1.036.664c-.422.287-.99.323-1.458.046-.801-.474-1.639-.895-2.507-1.255-.834-.346-1.682-.634-2.54-.859-.532-.091-.981-.496-1.102-1.055l-.911-4.159h-6.099l-.911,4.159h-.004c-.106.486-.476.897-.992,1.028-.894.229-1.778.527-2.647.887-.868.36-1.705.78-2.506,1.254-.428.253-.98.26-1.427-.027l-3.59-2.299-4.315,4.315,2.28,3.559c.287.422.323.99.046,1.458-.474.801-.895,1.639-1.255,2.507-.346.834-.634,1.682-.859,2.54-.091.532-.496.981-1.055,1.102l-4.159.911v6.099l4.159.911v.004c.486.106.897.476,1.028.992.229.893.527,1.777.887,2.646.36.868.78,1.705,1.255,2.507.253.428.26.98-.027,1.428l-.551.861h0Zm-24.578-.268c.689.379,1.493.717,2.396,1.008,2.712.874,6.425,1.415,10.496,1.415,2.078,0,4.072-.142,5.89-.399l.045-.006c.538-.076,1.06-.163,1.565-.259l-.398.621c-.393.534-.349,1.289.135,1.772l3.19,3.19c-.9.344-1.989.645-3.224.89-2.086.414-4.552.653-7.203.653-3.803,0-7.218-.488-9.665-1.277-1.992-.642-3.225-1.344-3.227-1.953v-5.655h0Zm0-3.537c.002-.609,1.234-1.311,3.227-1.953,2.447-.789,5.862-1.277,9.665-1.277.663,0,1.247.011,1.751.031.499.02,1.04.054,1.62.102l4.347.953c.225.758.484,1.492.777,2.198.28.675.592,1.334.934,1.974-1.118.343-2.428.626-3.878.832l-.041.007c-1.673.235-3.535.366-5.51.366-3.803,0-7.218-.488-9.665-1.277-1.992-.642-3.225-1.344-3.227-1.953v-.002h0Zm25.783,18.376v.004c0,.61-1.233,1.312-3.227,1.955-2.447.789-5.862,1.277-9.664,1.277s-7.218-.488-9.664-1.277c-1.994-.643-3.227-1.345-3.227-1.955v-5.654c.689.379,1.493.717,2.396,1.008,2.712.874,6.425,1.415,10.496,1.415,2.822,0,5.469-.258,7.725-.706,1.877-.372,3.505-.885,4.766-1.499l.401.401v5.032h0Zm-25.783,9.194c.002.609,1.234,1.311,3.227,1.953,2.447.789,5.862,1.277,9.665,1.277s7.218-.488,9.665-1.277c1.994-.643,3.227-1.345,3.227-1.955v-5.654c-.689.379-1.493.717-2.396,1.008-2.712.874-6.425,1.415-10.495,1.415s-7.783-.541-10.495-1.415c-.903-.291-1.707-.629-2.396-1.008v5.654h0Zm28.51.04c-.028,1.91-1.98,3.489-5.123,4.502-2.712.874-6.425,1.415-10.496,1.415s-7.783-.541-10.496-1.415c-3.144-1.013-5.097-2.594-5.123-4.504v-.026s0-.013,0-.013v-.004s0-9.185,0-9.185v-9.189s0-.004,0-.004v-9.185s0-.013,0-.013v-.026c.027-1.91,1.979-3.491,5.123-4.504,2.712-.874,6.425-1.415,10.496-1.415.559,0,1.181.014,1.858.042.119.005.236.01.351.015v-6.839c0-.674.489-1.234,1.132-1.344l4.378-.959c.224-.758.484-1.491.777-2.198.3-.724.637-1.429,1.008-2.113l-2.449-3.823c-.352-.549-.261-1.255.183-1.697l-.002-.002,5.863-5.863c.483-.483,1.238-.528,1.772-.135l3.751,2.402c.683-.371,1.388-.707,2.112-1.008.707-.293,1.44-.553,2.199-.778l.972-4.433c.138-.639.703-1.076,1.332-1.075h0s8.291-.001,8.291-.001c.674,0,1.234.489,1.344,1.132l.959,4.378c.758.224,1.491.484,2.198.777.662.275,1.308.58,1.937.914V11.446c0-1.059.431-2.02,1.127-2.716.696-.696,1.657-1.127,2.716-1.127h16.55c.012,0,.023,0,.035,0h0c.012,0,.023,0,.035.001h0c.011,0,.021.001.032.002h.003s.001,0,.001,0h0s.031.003.031.003h.002s.001,0,.001,0c.011.001.022.002.033.004h.002s.032.005.032.005h0s.002,0,.002,0l.032.005h.002s.027.006.027.006h.004s.003.001.003.001l.028.006h.002s.003.001.003.001l.027.007h.003s.003.002.003.002l.028.008h.002s.003.001.003.001l.026.008h.003s.004.002.004.002l.025.008h.003s.004.002.004.002l.025.009h.002s.004.002.004.002l.023.009h.004s.004.003.004.003l.021.009.01.004.015.007.004.002.011.005h0s.015.007.015.007l.004.002.01.005h.002s.015.008.015.008h.003s.01.006.01.006h.002s.015.009.015.009h.002s.013.008.013.008l.015.008h0s.014.008.014.008l.014.008.014.009.014.009h.002s.012.009.012.009l.014.009h0s.013.009.013.009l.014.009h0s.013.01.013.01l.013.01.013.01.013.01h0s.013.01.013.01l.013.01h0s.012.011.012.011l.013.011.012.011h0s.012.011.012.011l.012.011.012.011.012.011.012.012.012.012,12.646,12.646c.013.013.027.027.039.041l.005.005.01.011.012.013v.002s.01.01.01.01h0s.011.014.011.014l.002.002.007.008.016.02.003.005.018.023h0c.013.017.025.034.037.051v.002s.019.026.019.026h0c.006.01.012.019.017.029h0s.017.029.017.029h0s.014.026.014.026v.003s.002.001.002.001h0s.012.024.012.024l.002.004v.002s.012.022.012.022l.003.006v.002s.008.015.008.015v.003c.01.019.018.038.026.058h0c.064.159.1.332.1.513v.012s0,25.94,0,25.94c0,1.059-.431,2.02-1.127,2.716-.696.696-1.657,1.127-2.716,1.127h-13.985v3.003c0,.674-.489,1.234-1.132,1.344l-4.377.959c-.224.758-.484,1.491-.777,2.198-.3.724-.637,1.429-1.008,2.113l2.449,3.823c.352.549.261,1.255-.183,1.697l.002.002-5.863,5.863c-.483.483-1.238.528-1.772.135l-3.751-2.402c-.683.371-1.388.707-2.112,1.008-.707.293-1.44.553-2.199.778l-.972,4.433c-.138.639-.703,1.076-1.332,1.075h0s-8.291.001-8.291.001c-.674,0-1.234-.489-1.344-1.132l-.959-4.377c-.758-.224-1.491-.484-2.198-.777-.724-.3-1.429-.637-2.113-1.008l-3.003,1.923v14.362c0,.014,0,.027,0,.041h0Zm35.788-55.606h16.262c.753,0,1.364-.611,1.364-1.364s-.611-1.364-1.364-1.364h-16.262c-.753,0-1.364.611-1.364,1.364s.611,1.364,1.364,1.364h0Zm3.797,6.848h12.465c.753,0,1.364-.611,1.364-1.364s-.611-1.364-1.364-1.364h-12.465c-.753,0-1.364.611-1.364,1.364s.611,1.364,1.364,1.364h0Zm-8.526-13.697h8.984c.753,0,1.364-.611,1.364-1.364s-.611-1.364-1.364-1.364h-8.984c-.753,0-1.364.611-1.364,1.364s.611,1.364,1.364,1.364h0Zm0-6.848h5.774c.753,0,1.364-.611,1.364-1.364s-.611-1.364-1.364-1.364h-5.774c-.753,0-1.364.611-1.364,1.364s.611,1.364,1.364,1.364h0Zm12.044,27.394h8.947c.753,0,1.364-.611,1.364-1.364s-.611-1.364-1.364-1.364h-8.947c-.753,0-1.364.611-1.364,1.364s.611,1.364,1.364,1.364h0Zm-43.531-.351c-.795,1.859-1.235,3.906-1.235,6.056,0,4.259,1.727,8.116,4.518,10.907,2.791,2.791,6.648,4.518,10.907,4.518s8.116-1.727,10.907-4.518c1.37-1.37,2.482-2.995,3.261-4.799.008-.017.015-.033.022-.05.795-1.86,1.235-3.907,1.235-6.057,0-4.259-1.727-8.116-4.518-10.907-2.791-2.791-6.648-4.518-10.907-4.518s-8.116,1.727-10.907,4.518c-1.369,1.369-2.482,2.995-3.261,4.798-.008.017-.015.035-.023.052h0Zm10.76,6.506c.756,0,1.441-.307,1.937-.803s.803-1.181.803-1.937-.307-1.441-.803-1.937c-.496-.496-1.181-.803-1.937-.803-.248,0-.488.033-.717.095l-1.565-1.565c-.247-.251-.591-.407-.971-.407h-3.974c.486-.749,1.049-1.444,1.678-2.072,1.996-1.996,4.653-3.33,7.615-3.646v5.942c0,.753.611,1.364,1.364,1.364h2.914c.121.21.269.403.44.574.496.496,1.181.803,1.937.803s1.441-.307,1.937-.803c.496-.496.803-1.181.803-1.937s-.307-1.441-.803-1.937c-.496-.496-1.181-.803-1.937-.803s-1.441.307-1.937.803c-.17.17-.319.363-.44.574h-1.55v-4.579c2.962.316,5.619,1.651,7.615,3.646,2.298,2.298,3.719,5.472,3.719,8.979,0,1.464-.248,2.87-.704,4.179h-4.746l-1.172-1.172c.062-.228.095-.469.095-.717,0-.756-.307-1.441-.803-1.937-.496-.496-1.181-.803-1.937-.803s-1.441.307-1.937.803c-.496.496-.803,1.181-.803,1.937s.307,1.441.803,1.937c.496.496,1.181.803,1.937.803.248,0,.488-.033.717-.095l1.565,1.565c.247.251.591.407.971.407h3.974c-.486.749-1.049,1.444-1.678,2.072-1.996,1.996-4.653,3.33-7.615,3.646v-5.942c0-.753-.611-1.364-1.364-1.364h-2.914c-.121-.21-.269-.403-.44-.574-.496-.496-1.181-.803-1.937-.803s-1.441.307-1.937.803c-.496.496-.803,1.181-.803,1.937s.307,1.441.803,1.937c.496.496,1.181.803,1.937.803s1.441-.307,1.937-.803c.17-.17.319-.363.44-.574h1.55v4.579c-2.962-.316-5.619-1.65-7.615-3.646-2.298-2.298-3.719-5.472-3.719-8.979,0-1.464.248-2.87.704-4.179h4.746l1.172,1.172c-.062.228-.095.469-.095.717,0,.756.307,1.441.803,1.937.496.496,1.181.803,1.937.803h0Zm.957-43.17c-.491-.568-.429-1.426.139-1.918s1.426-.429,1.918.139l3.455,4.001c.237.259.374.609.355.987-.02.4-.212.751-.5.985l-3.998,3.453c-.568.491-1.426.429-1.918-.139-.491-.568-.429-1.426.139-1.918l1.288-1.113c-8.093.331-15.586,3.216-21.643,7.902-7.036,5.444-12.136,13.317-13.992,22.441-.15.735-.868,1.21-1.603,1.06s-1.21-.868-1.06-1.603c1.989-9.779,7.454-18.216,14.993-24.049,6.675-5.164,14.975-8.287,23.928-8.491l-1.5-1.737h0Zm4.946,84.887c.491.568.429,1.426-.139,1.918-.568.491-1.426.429-1.918-.139l-3.454-4c-.237-.259-.374-.609-.355-.988.02-.399.211-.749.497-.984l4-3.455c.568-.491,1.426-.429,1.918.139s.429,1.426-.139,1.918l-1.288,1.113c8.093-.331,15.586-3.216,21.643-7.902,7.036-5.444,12.136-13.317,13.992-22.441.15-.735.868-1.21,1.603-1.06.735.15,1.21.868,1.06,1.603-1.989,9.778-7.454,18.216-14.993,24.049-6.675,5.164-14.975,8.287-23.928,8.491l1.5,1.737Z"/></svg>