<svg xmlns="http://www.w3.org/2000/svg" xmlns:xlink="http://www.w3.org/1999/xlink" version="1.1" x="0px" y="0px" viewBox="-17.5 -17.5 100 125" enable-background="new -17.5 -17.5 100 100" xml:space="preserve"><path d="M-10.209,29.718c1.907,0,3.458-1.552,3.458-3.459S-8.302,22.8-10.209,22.8c-1.907,0-3.459,1.552-3.459,3.459  S-12.116,29.718-10.209,29.718z M-10.209,24.3c1.08,0,1.958,0.879,1.958,1.959s-0.878,1.959-1.958,1.959  c-1.08,0-1.959-0.879-1.959-1.959S-11.289,24.3-10.209,24.3z"/><path d="M-8.095,63.635c-0.23-0.146-0.523-0.153-0.763-0.023c-0.239,0.132-0.388,0.384-0.388,0.657v10.656  c0,0.273,0.149,0.525,0.388,0.657c0.113,0.062,0.237,0.093,0.362,0.093c0.14,0,0.279-0.039,0.401-0.116l8.412-5.328  c0.217-0.138,0.349-0.377,0.349-0.634s-0.131-0.496-0.349-0.634L-8.095,63.635z M-7.746,73.562v-7.93l6.26,3.965L-7.746,73.562z"/><path d="M0.757-11.848h-11.645c-0.414,0-0.75,0.336-0.75,0.75s0.336,0.75,0.75,0.75H0.757c0.414,0,0.75-0.336,0.75-0.75  S1.171-11.848,0.757-11.848z"/><path d="M0.757-7.541h-11.645c-0.414,0-0.75,0.336-0.75,0.75s0.336,0.75,0.75,0.75H0.757c0.414,0,0.75-0.336,0.75-0.75  S1.171-7.541,0.757-7.541z"/><path d="M0.757-3.233h-11.645c-0.414,0-0.75,0.336-0.75,0.75s0.336,0.75,0.75,0.75H0.757c0.414,0,0.75-0.336,0.75-0.75  S1.171-3.233,0.757-3.233z"/><path d="M0.757,1.073h-11.645c-0.414,0-0.75,0.336-0.75,0.75s0.336,0.75,0.75,0.75H0.757c0.414,0,0.75-0.336,0.75-0.75  S1.171,1.073,0.757,1.073z"/><path d="M76.281,38.717c3.429,0,6.219-2.789,6.219-6.217c0-3.429-2.79-6.219-6.219-6.219c-2.404,0-4.489,1.374-5.523,3.375  l-6.813-4.437c0.321-0.75,0.5-1.574,0.5-2.439c0-1.007-0.246-1.956-0.673-2.798l6.964-3.994c1.026,2.025,3.123,3.42,5.545,3.42  c3.429,0,6.219-2.789,6.219-6.218c0-3.429-2.79-6.219-6.219-6.219s-6.218,2.79-6.218,6.219c0,0.47,0.057,0.926,0.156,1.366  l-7.282,4.176c-1.141-1.326-2.827-2.17-4.71-2.17c-3.429,0-6.219,2.79-6.219,6.219c0,0.708,0.125,1.386,0.344,2.021l-5.661,3.246  c-1.132-0.952-2.59-1.527-4.181-1.527c-3.128,0-5.746,2.218-6.368,5.164h-4.466c-0.006,0.006-0.012,0-0.02,0  c-7.006,0-7.701-7.227-8.252-19.011c-0.111-2.387-0.227-4.856-0.429-7.359c-0.297-3.676-1.693-6.466-4.149-8.293  C14.919-5.884,9.499-5.487,7.368-5.187v-8.402c0-1.92-1.562-3.482-3.481-3.482h-17.905c-1.919,0-3.481,1.562-3.481,3.482V4.316  c0,1.919,1.562,3.48,3.481,3.48H3.887c1.919,0,3.481-1.562,3.481-3.48v-7.984c1.739-0.26,6.986-0.766,10.563,1.893  c2.095,1.558,3.289,3.984,3.549,7.21c0.2,2.478,0.315,4.934,0.426,7.308c0.392,8.374,0.754,15.86,4.811,18.941L7.367,31.686v-9.049  c0-1.92-1.562-3.482-3.481-3.482H-14.02c-1.919,0-3.48,1.562-3.48,3.482v17.905c0,1.919,1.562,3.48,3.48,3.48H3.886  c1.919,0,3.481-1.562,3.481-3.48v-7.356l19.352-0.001c-4.057,3.081-4.42,10.568-4.812,18.941c-0.111,2.375-0.226,4.831-0.426,7.309  c-0.26,3.224-1.453,5.647-3.543,7.204c-3.567,2.658-8.828,2.156-10.569,1.897v-7.852c0-1.92-1.562-3.482-3.482-3.482H-14.02  c-1.919,0-3.48,1.563-3.48,3.482V78.59c0,1.92,1.562,3.481,3.48,3.481H3.886c1.92,0,3.482-1.562,3.482-3.481v-8.535  c0.697,0.099,1.736,0.207,2.974,0.207c2.538,0,5.856-0.46,8.486-2.415c2.456-1.826,3.852-4.616,4.148-8.291  c0.202-2.503,0.318-4.972,0.429-7.359c0.551-11.785,1.245-19.012,8.252-19.012h0.02h4.332c0.083,3.52,2.964,6.357,6.502,6.357  c1.598,0,3.061-0.581,4.194-1.539l5.424,2.875c-0.077,0.392-0.12,0.796-0.12,1.211c0,3.429,2.79,6.219,6.219,6.219  c1.729,0,3.294-0.711,4.422-1.854l7.564,4.009c-0.096,0.435-0.15,0.884-0.15,1.346c0,3.429,2.789,6.218,6.218,6.218  s6.219-2.789,6.219-6.218s-2.79-6.219-6.219-6.219c-2.432,0-4.535,1.406-5.557,3.445l-7.149-3.789  c0.549-0.927,0.87-2.004,0.87-3.157c0-0.863-0.178-1.685-0.496-2.433l6.804-4.323C71.786,37.339,73.873,38.717,76.281,38.717z   M76.281,8.472c2.602,0,4.719,2.117,4.719,4.719c0,2.602-2.117,4.718-4.719,4.718s-4.718-2.116-4.718-4.718  C71.563,10.588,73.68,8.472,76.281,8.472z M5.868,4.316c0,1.092-0.889,1.98-1.981,1.98h-17.905c-1.093,0-1.981-0.889-1.981-1.98  v-17.905c0-1.093,0.889-1.982,1.981-1.982H3.887c1.093,0,1.981,0.889,1.981,1.982V4.316z M-14.02,20.654H3.886  c1.093,0,1.981,0.889,1.981,1.982v4.344l-9.471,7.75l-3.344-3.649c-0.012-0.014-0.029-0.019-0.042-0.031  c-0.038-0.036-0.08-0.063-0.124-0.09c-0.041-0.025-0.079-0.049-0.123-0.065c-0.045-0.017-0.09-0.025-0.137-0.033  c-0.048-0.008-0.093-0.016-0.141-0.015c-0.047,0-0.092,0.011-0.14,0.021c-0.049,0.01-0.095,0.021-0.142,0.041  c-0.018,0.008-0.036,0.007-0.053,0.016L-16,35.208V22.637C-16,21.543-15.111,20.654-14.02,20.654z M-16,40.542v-3.639l8.337-4.382  l9.165,10.001H-14.02C-15.111,42.522-16,41.634-16,40.542z M3.886,42.522h-0.35l-6.125-6.685l8.457-6.919v11.623  C5.867,41.634,4.979,42.522,3.886,42.522z M5.868,78.59c0,1.093-0.889,1.981-1.982,1.981H-14.02c-1.092,0-1.98-0.889-1.98-1.981  V60.685c0-1.093,0.889-1.982,1.98-1.982H3.886c1.093,0,1.982,0.89,1.982,1.982V78.59z M76.281,47.09  c2.602,0,4.719,2.117,4.719,4.719s-2.117,4.718-4.719,4.718s-4.718-2.116-4.718-4.718S73.68,47.09,76.281,47.09z M76.281,27.781  c2.602,0,4.719,2.117,4.719,4.719c0,2.601-2.117,4.717-4.719,4.717s-4.718-2.116-4.718-4.717  C71.563,29.898,73.68,27.781,76.281,27.781z M58.228,18.062c2.602,0,4.718,2.117,4.718,4.719c0,2.602-2.116,4.718-4.718,4.718  s-4.719-2.116-4.719-4.718C53.509,20.178,55.626,18.062,58.228,18.062z M37.501,33.03c0-2.762,2.247-5.01,5.01-5.01  s5.011,2.248,5.011,5.01c0,2.764-2.248,5.012-5.011,5.012S37.501,35.794,37.501,33.03z M58.228,46.808  c-2.602,0-4.719-2.117-4.719-4.719s2.117-4.718,4.719-4.718s4.718,2.116,4.718,4.718S60.829,46.808,58.228,46.808z M63.191,38.36  c-1.135-1.508-2.935-2.489-4.964-2.489c-2.479,0-4.617,1.461-5.615,3.563l-4.851-2.57c0.788-1.077,1.26-2.399,1.26-3.834  c0-1.444-0.479-2.776-1.278-3.857l5.268-3.02c1.109,1.709,3.031,2.845,5.217,2.845c2.026,0,3.823-0.979,4.959-2.483l7.041,4.586  c-0.104,0.451-0.164,0.917-0.164,1.399c0,0.479,0.06,0.943,0.162,1.391L63.191,38.36z"/></svg>