<svg fill="white" xmlns="http://www.w3.org/2000/svg" version="1.1" viewBox="-5.0 -10.0 110.0 135.0">
 <path d="m48.27 10.375v-3.9219c0-0.9375 0.76172-1.7031 1.7031-1.7031 0.9375 0 1.7031 0.76172 1.7031 1.7031v3.9219c0 0.9375-0.76172 1.7031-1.7031 1.7031-0.9375 0-1.7031-0.76172-1.7031-1.7031zm18.152 18.152c0 0.9375 0.76172 1.7031 1.7031 1.7031h3.8125c0.9375 0 1.7031-0.76172 1.7031-1.7031 0-0.9375-0.76172-1.7031-1.7031-1.7031h-3.8125c-0.9375 0-1.7031 0.76172-1.7031 1.7031zm-3.6172-11.137c0.45312 0 0.88281-0.17578 1.2031-0.5l3.0078-3.0078c0.66406-0.66406 0.66406-1.7422 0-2.4062-0.32031-0.32031-0.75-0.5-1.2031-0.5s-0.88281 0.17578-1.2031 0.5l-3.0078 3.0078c-0.66406 0.66406-0.66406 1.7422 0 2.4062 0.32031 0.32031 0.75 0.5 1.2031 0.5zm28.562 36.484c0 3.1758-2.5859 5.7617-5.7617 5.7617-2.5234 0-4.7617-1.6602-5.5039-4.0586h-11.039v3.9102h8.4219c0.9375 0 1.7031 0.76172 1.7031 1.7031v5.0625c2.3984 0.74219 4.0586 2.9805 4.0586 5.5039 0 3.1758-2.5859 5.7617-5.7617 5.7617s-5.7617-2.5859-5.7617-5.7617c0-2.5234 1.6602-4.7617 4.0586-5.5039v-3.3594h-6.7188v7.2461c0 1.5469-1.2617 2.8086-2.8086 2.8086h-7.2461v6.7188h3.3594c0.74219-2.3984 2.9805-4.0586 5.5039-4.0586 3.1758 0 5.7617 2.5859 5.7617 5.7617 0 3.1758-2.5859 5.7617-5.7617 5.7617-2.5234 0-4.7617-1.6602-5.5039-4.0586h-5.0625c-0.9375 0-1.7031-0.76172-1.7031-1.7031v-8.4219h-3.9102v11.039c2.3984 0.74219 4.0586 2.9805 4.0586 5.5039 0 3.1758-2.5859 5.7617-5.7617 5.7617s-5.7617-2.5859-5.7617-5.7617c0-2.5234 1.6602-4.7617 4.0586-5.5039v-11.039h-3.9102v8.4219c0 0.9375-0.76172 1.7031-1.7031 1.7031h-5.0625c-0.74219 2.3984-2.9805 4.0586-5.5039 4.0586-3.1758 0-5.7617-2.5859-5.7617-5.7617 0-3.1758 2.5859-5.7617 5.7617-5.7617 2.5234 0 4.7617 1.6602 5.5039 4.0586h3.3594v-6.7188h-7.2461c-1.5469 0-2.8086-1.2578-2.8086-2.8086v-7.2461h-6.7188v3.3594c2.3984 0.74219 4.0586 2.9766 4.0586 5.5039 0 3.1758-2.5859 5.7617-5.7617 5.7617-3.1758 0-5.7617-2.5859-5.7617-5.7617 0-2.5234 1.6602-4.7617 4.0586-5.5039v-5.0625c0-0.9375 0.76172-1.7031 1.7031-1.7031h8.4219v-3.9102h-11.039c-0.74219 2.3984-2.9805 4.0586-5.5039 4.0586-3.1758 0-5.7617-2.5859-5.7617-5.7617s2.5859-5.7617 5.7617-5.7617c2.5234 0 4.7617 1.6602 5.5039 4.0586h11.039v-3.9102h-8.4219c-0.9375 0-1.7031-0.76172-1.7031-1.7031v-5.0625c-2.3984-0.74219-4.0586-2.9805-4.0586-5.5039 0-3.1758 2.5859-5.7617 5.7617-5.7617 3.1758 0 5.7617 2.5859 5.7617 5.7617 0 2.5234-1.6602 4.7617-4.0586 5.5039v3.3594h6.7188v-7.2461c0-1.5469 1.2578-2.8086 2.8086-2.8086h2.0078c-0.48828-1.5-0.73828-3.0664-0.73828-4.6641 0-8.2656 6.7227-14.988 14.988-14.988s14.988 6.7227 14.988 14.988c0 1.5938-0.24609 3.1602-0.73828 4.6641h2.0078c1.5469 0 2.8086 1.2578 2.8086 2.8086v7.2461h6.7188v-3.3594c-2.3984-0.74219-4.0586-2.9805-4.0586-5.5039 0-3.1758 2.5859-5.7617 5.7617-5.7617s5.7617 2.5859 5.7617 5.7617c0 2.5234-1.6602 4.7617-4.0586 5.5039v5.0625c0 0.9375-0.76172 1.7031-1.7031 1.7031h-8.4219v3.9102h11.039c0.74219-2.3984 2.9805-4.0586 5.5039-4.0586 3.1758 0 5.7617 2.5859 5.7617 5.7617zm-3.4023 0c0-1.3008-1.0586-2.3594-2.3594-2.3594s-2.3594 1.0586-2.3594 2.3594 1.0586 2.3594 2.3594 2.3594 2.3594-1.0586 2.3594-2.3594zm-10.477-15.52c1.3008 0 2.3594-1.0586 2.3594-2.3594 0-1.3008-1.0586-2.3594-2.3594-2.3594s-2.3594 1.0586-2.3594 2.3594c0 1.3008 1.0586 2.3594 2.3594 2.3594zm0 35.754c1.3008 0 2.3594-1.0586 2.3594-2.3594s-1.0586-2.3594-2.3594-2.3594-2.3594 1.0586-2.3594 2.3594 1.0586 2.3594 2.3594 2.3594zm-27.492 13.016c-1.3008 0-2.3594 1.0586-2.3594 2.3594s1.0586 2.3594 2.3594 2.3594c1.3008 0 2.3594-1.0586 2.3594-2.3594s-1.0586-2.3594-2.3594-2.3594zm-11.586-56.984c0 3.1797 1.2617 6.1445 3.5547 8.3477 1.3711 1.3203 2.1953 2.2734 2.7891 3.2383 0.35156-0.089843 0.71484-0.14453 1.0781-0.15625v-6.9727h-0.73438c-2.582 0-4.5273-1.8633-4.5273-4.332 0-2.3906 1.9453-4.332 4.332-4.332 2.4688 0 4.332 1.9492 4.332 4.5312v0.73047h1.5195v-0.73047c0-2.5859 1.8633-4.5312 4.332-4.5312 2.3906 0 4.332 1.9453 4.332 4.332 0 2.4688-1.9453 4.332-4.5273 4.332h-0.73438v6.9727c0.36328 0.011719 0.72656 0.0625 1.0781 0.15625 0.59375-0.96484 1.418-1.918 2.7891-3.2383 2.293-2.2031 3.5547-5.168 3.5547-8.3477 0-6.3867-5.1992-11.586-11.586-11.586-6.3867 0-11.586 5.1992-11.586 11.586zm6.4922-0.80469c-0.51172 0-0.92969 0.41797-0.92969 0.92969 0 0.86328 0.85938 0.92969 1.125 0.92969h0.73438v-0.73047c0-0.26562-0.066406-1.1289-0.92969-1.1289zm5.8516 12.23v-6.9688h-1.5195v6.9688zm-4.1914 9.8984c0.30469 1.082 1.3164 1.8672 2.457 1.8672h1.9414c1.1445 0 2.1523-0.78516 2.457-1.8672h-6.8594zm-1.5664-6.1328c-0.35156 0.29688-0.55078 0.72656-0.55078 1.1836 0 0.85156 0.69531 1.5469 1.5469 1.5469h8c0.85156 0 1.5469-0.69531 1.5469-1.5469 0-0.45703-0.19922-0.88672-0.55859-1.1875l-0.046875-0.035156c-0.27344-0.21094-0.60156-0.32422-0.94531-0.32422h-8c-0.34375 0-0.67188 0.11328-0.93359 0.31641zm9.8945-14.141c0.26562 0 1.125-0.066406 1.125-0.92969 0-0.51172-0.41797-0.92969-0.92969-0.92969-0.86328 0-0.92969 0.86328-0.92969 1.1289v0.73047zm-12.941 12.473c-0.17969-0.3125-0.41016-0.64062-0.70312-0.99609h-2.4531v22.398h22.402v-22.398h-2.4531c-0.29297 0.35547-0.52344 0.68359-0.70313 0.99609 0.59375 0.83984 0.90625 1.8203 0.90625 2.8516 0 1.5742-0.75391 3.0586-2.0273 3.9922 0.003906 0.089844 0.007812 0.17969 0.007812 0.26953 0 3.2852-2.6758 5.9609-5.9609 5.9609h-1.9414c-3.2852 0-5.9609-2.6758-5.9609-5.9609 0-0.089844 0.003906-0.17969 0.007812-0.26953-1.2695-0.93359-2.0273-2.4141-2.0273-3.9922 0-1.0312 0.3125-2.0117 0.90625-2.8516zm-3.8438-4.3984c-0.26953-0.34766-0.51953-0.70312-0.75-1.0625h-3.0273v31.332h31.332v-31.332h-3.0273c-0.23047 0.35938-0.48437 0.71484-0.75 1.0625h0.19141c1.3906 0 2.5234 1.1328 2.5234 2.5234v24.16c0 1.3906-1.1328 2.5234-2.5234 2.5234h-24.16c-1.3906 0-2.5234-1.1328-2.5234-2.5234v-24.16c0-1.3906 1.1328-2.5234 2.5234-2.5234zm-15.602-5.6328c-1.3008 0-2.3594 1.0586-2.3594 2.3594 0 1.3008 1.0586 2.3594 2.3594 2.3594 1.3008 0 2.3594-1.0586 2.3594-2.3594 0-1.3008-1.0586-2.3594-2.3594-2.3594zm-5.7617 20.234c0-1.3008-1.0586-2.3594-2.3594-2.3594-1.3008 0-2.3594 1.0586-2.3594 2.3594 0 1.3008 1.0586 2.3594 2.3594 2.3594 1.3008 0 2.3594-1.0586 2.3594-2.3594zm5.7617 15.52c-1.3008 0-2.3594 1.0586-2.3594 2.3594 0 1.3008 1.0586 2.3594 2.3594 2.3594 1.3008 0 2.3594-1.0586 2.3594-2.3594 0-1.3008-1.0586-2.3594-2.3594-2.3594zm9.6133 9.6133c-1.3008 0-2.3594 1.0586-2.3594 2.3594s1.0586 2.3594 2.3594 2.3594c1.3008 0 2.3594-1.0586 2.3594-2.3594s-1.0586-2.3594-2.3594-2.3594zm35.754 4.7148c1.3008 0 2.3594-1.0586 2.3594-2.3594s-1.0586-2.3594-2.3594-2.3594c-1.3008 0-2.3594 1.0586-2.3594 2.3594s1.0586 2.3594 2.3594 2.3594zm-39.809-53.484h3.7539c0.9375 0 1.7031-0.76172 1.7031-1.7031 0-0.9375-0.76172-1.7031-1.7031-1.7031h-3.7539c-0.9375 0-1.7031 0.76172-1.7031 1.7031 0 0.9375 0.76172 1.7031 1.7031 1.7031zm7.8711-13.336c0.32031 0.32031 0.75 0.5 1.2031 0.5s0.88281-0.17578 1.2031-0.5c0.32031-0.32031 0.5-0.75 0.5-1.2031s-0.17578-0.88281-0.5-1.2031l-2.7578-2.7578c-0.32031-0.32031-0.75-0.5-1.2031-0.5s-0.88281 0.17578-1.2031 0.5c-0.66406 0.66406-0.66406 1.7422 0 2.4062z"/>
</svg>