<svg xmlns="http://www.w3.org/2000/svg" version="1.1" viewBox="-5.0 -10.0 110.0 135.0">
 <path d="m12.562 0.0039062c-6.8672 0-12.562 5.6914-12.562 12.559v74.879c0 6.8477 5.5664 12.559 12.434 12.559h34.383c6.8672 0 12.562-5.6914 12.562-12.559v-10.879h17.184v6.5156c-1.8281 0.61719-3.125 2.3945-3.125 4.418 0 2.5703 2.043 4.7148 4.6797 4.6953 2.6641-0.019531 4.6953-2.125 4.6953-4.6953 0-2.0195-1.3086-3.8047-3.1211-4.4141l-0.007812-8.0859c-0.003906-0.86328-0.70703-1.5586-1.5703-1.5547h-18.742v-2.7148c1.3477-1.5781 1.832-3.1484 1.0508-5.0703-0.21484-0.52734-0.74609-1.625-0.41016-3.1484l15.242 0.023438c0.65625 1.8086 2.4062 3.0977 4.4258 3.0977 2.5703 0 4.6836-2.0781 4.6836-4.6953 0-2.5703-2.0703-4.6992-4.6836-4.6797-2.082 0.011719-3.793 1.3047-4.4453 3.1172l-14.023 0.007812c1.043-1.9844 2.5039-2.3906 2.9805-2.6172 0.69922-0.32031 1.6562-0.86719 2.2383-2.0742 0.40234-0.82422 0.60547-1.8047 0.69531-3.1289h26.617v11.215c-1.8203 0.61719-3.1172 2.3984-3.1289 4.4141-0.011719 2.668 2.125 4.6797 4.6953 4.6797 2.5703 0 4.6953-2.0391 4.6797-4.6797-0.011719-2.0234-1.3203-3.832-3.125-4.4062v-23.941c1.8086-0.65234 3.125-2.4414 3.125-4.4648 0-2.5703-2.0352-4.6914-4.6797-4.6836-2.6133 0.003906-4.6953 2.1133-4.6953 4.6836 0 2.0195 1.332 3.8047 3.1406 4.4609l-0.011718 9.5977h-26.621c-0.089844-1.3164-0.29297-2.2891-0.69141-3.1133-0.55469-1.2031-1.5352-1.7578-2.2383-2.0781-0.27344-0.19531-1.8594-0.46875-2.9805-2.6172l14.055 0.023438c0.65234 1.8086 2.3945 3.1211 4.4141 3.1055 2.668-0.023437 4.6836-2.1133 4.6836-4.6836 0-2.5703-2.0781-4.6914-4.6836-4.6914-2.0742 0-3.7734 1.3242-4.4297 3.1328l-15.238-0.003907c-0.28516-1.2773-0.003907-2.1094 0.40625-3.1484 0.84766-1.9336 0.19922-3.5039-1.043-5.0977l-0.007812-2.6016h18.742c0.86719 0.003906 1.5703-0.69922 1.5703-1.5703l0.011718-8.1562c1.8086-0.65234 3.1172-2.3945 3.1172-4.4141 0-2.5703-2.0156-4.707-4.6953-4.6953-2.668 0.011719-4.6797 2.125-4.6797 4.6953 0 2.0234 1.3164 3.8047 3.125 4.457v6.5586h-17.184v-10.957c0-6.8477-5.5781-12.559-12.445-12.559zm0 3.125h34.371c5.1328 0 9.3164 4.2812 9.3164 9.4375v13.633c-0.98828-0.89062-2.5312-1.4062-3.125-1.293v-12.445c0-3.5469-2.7695-6.207-6.1914-6.207h-34.371c-3.5156 0-6.3125 2.7344-6.3125 6.207v75.086c0 3.4258 2.5195 6.2031 6.1836 6.2031h34.383c3.4219 0 6.3086-2.5859 6.3086-6.2031v-12.449c1.2305 0.023438 2.3555-0.69922 3.125-1.293v13.637c0 5.1328-4.3008 9.4336-9.4336 9.4336h-34.383c-5.1328 0-9.3086-4.2773-9.3086-9.4336v-74.879c0-5.1328 4.3047-9.4375 9.4375-9.4375zm34.371 6.2539c1.8281 0 3.0664 1.4102 3.0664 3.0781 0 5.332-0.007812 8.9453-0.007812 13.289-2.2148 0.46484-5.7773-1.293-6.707-2.4258-0.76953-0.73438-0.89453-2.9453-2.8711-3.8633-1.0859-0.625-3.3164-0.75391-4.4727-0.72266 0-3.2852-2.6445-6.25-6.2539-6.2344-3.5898 0.019532-6.25 2.8125-6.25 6.25v62.492c0 3.5195 2.8164 6.25 6.25 6.25s6.2539-2.7539 6.2812-6.2461c1.7109 0.046875 3.3594-0.16406 4.4453-0.71094 1.1641-0.57031 1.7695-1.6289 2.082-2.3594 0.55469-2.6055 5.8906-4.5742 7.5039-3.8984v13.258c0 1.668-1.3555 3.0781-3.1836 3.0781l-34.383 0.007812c-1.6562 0-3.0586-1.2383-3.0586-3.0781v-75.086c0-1.793 1.4688-3.0781 3.1875-3.0781zm32.754 3.125c0 0.79688-0.6875 1.5547-1.5703 1.5547-0.88281 0-1.543-0.78516-1.5547-1.5547 0.96875-2.3672 2.2812-1.3398 3.125 0zm-50 3.125c1.4727-0.019531 3.1406 1.1094 3.1172 3.3555-1.293 0.28516-2.6172 0.92188-3.3242 2.7109-0.55078 1.3438-0.95312 2.0703-2.918 3.0547v-5.9961c0-1.6836 1.3672-3.1016 3.125-3.125zm23.293 12.355c1.082 0.03125 4.9961 3.832 4.6836 4.7969-1.0625 2.1211-1.3672 4.8633 0.12109 7.8906 1.7109 4.5234 3.7031 4.5156 5.6328 5.7891 0.88281 1.5195 0.80078 6.2344 0.042969 7.1172-0.75 0.5625-3.9336 1.0273-5.6719 5.7539-2.1758 4.3555-0.26562 7.2148-0.10156 8.0625-0.082031 1.2109-3.8516 4.6953-4.6719 4.6094-1.168-0.29297-3.3672-2.0352-8.0273-0.03125-2.9414 1.0859-4.6797 2.7617-5.6719 5.5234-0.38281 0.74609-5.1211 0.86719-6.5742 0.17188-0.35547-0.21875-0.79688-2.0508-1.7891-3.043-1.1094-1.3047-2.6602-2.1953-4.3828-2.7695v-9.3633c9.5117 7.4883 25.031 1.0898 24.992-12.656 0.007812-9.1367-7.6016-15.473-15.629-15.465-3.4648-0.011719-6.7617 1.0938-9.3672 3.1328l0.03125-9.332c4.3867-1.5781 5.1289-3.8203 6.0391-5.7422 0.54688-0.76562 5.5117-0.65625 6.332-0.21094 0.66797 0.30859 0.61328 1.7109 2.3672 3.6484 4.5859 3.7461 8.8242 3.625 11.652 2.1133zm42.34 4.832c0.88281 0 1.5547 0.73438 1.5547 1.5547 0 0.82812-0.67578 1.5703-1.5547 1.5703-0.88281 0-1.5703-0.73828-1.5703-1.5703 0-0.82812 0.6875-1.5547 1.5703-1.5547zm-15.633 4.6797c0.88281 0 1.5508 0.75781 1.5586 1.5703 0.007812 0.82031-0.67969 1.5547-1.5586 1.5547-0.83984-0.007812-1.5703-0.67578-1.5703-1.5547 0-0.88281 0.75781-1.5703 1.5703-1.5703zm-43.73 0.007812c7.2656 0.003907 12.539 6.1367 12.469 12.477 0.03125 6.9648-5.7812 12.512-12.438 12.496-3.7148-0.023438-6.9648-1.6055-9.4258-4.25v-16.453c2.5898-2.9688 5.8906-4.2031 9.3945-4.2734zm43.73 21.875c0.88281 0 1.5547 0.71875 1.5586 1.5547 0.007812 0.88281-0.71484 1.5703-1.5586 1.5703-0.83984 0-1.5703-0.6875-1.5703-1.5703-0.011719-0.82031 0.6875-1.5547 1.5703-1.5547zm17.188 7.8086c-0.019531 0.83984-0.67578 1.5703-1.5547 1.5703-0.88281 0-1.5703-0.75781-1.5703-1.5703 0-0.88281 0.73828-1.5586 1.5703-1.5586 0.88281 0 1.5742 0.73828 1.5547 1.5586zm-70.312 8.0664c1.5156 0.69141 2.3867 1.582 2.9844 3.2422 0.88672 1.957 2.4609 2.3203 3.2617 2.5234 0.011718 2.0391-1.418 3.3398-3.1211 3.3516-1.6953 0.011719-3.125-1.3672-3.125-3.125zm51.555 10.688c0.82031-0.011718 1.5703 0.67578 1.5703 1.5547 0 0.88281-0.73828 1.5781-1.5703 1.5703-0.83984-0.003906-1.5547-0.6875-1.5547-1.5703s0.74219-1.5469 1.5547-1.5547z"/>
 </svg>