<svg fill="white"  xmlns="http://www.w3.org/2000/svg" version="1.1" viewBox="-5.0 -10.0 110.0 135.0">
 <path d="m30.621 58.141c-4.8828-0.27344-9.4453 2.4258-11.562 6.832-2.1172 4.4062-1.3711 9.6562 1.8906 13.297 3.2617 3.6445 8.3984 4.9609 13.012 3.3398 4.6133-1.6172 7.793-5.8594 8.0625-10.742 0.36328-6.6602-4.7383-12.359-11.402-12.727zm-18.145 21.742v-34.027c0-0.66406 0.53906-1.1992 1.1992-1.1992h10.703c0.66406 0 1.1992 0.53516 1.1992 1.1992v10.551c2.3867-0.75391 4.9297-0.87891 7.3789-0.36328v-24.652c0-0.66016 0.53906-1.1992 1.1992-1.1992h10.703c0.66016 0 1.1992 0.53906 1.1992 1.1992v48.488h7.3789v-42.305c0-0.66406 0.53516-1.2031 1.1992-1.2031h10.699c0.66406 0 1.1992 0.53906 1.1992 1.2031v42.309h7.4844v-3.418c0-0.66016 0.53906-1.1992 1.1992-1.1992 0.66406 0 1.2031 0.53906 1.2031 1.1992v3.4141h8.3086v-3.4141c0-0.66016 0.53516-1.1992 1.1992-1.1992 0.66016 0 1.1992 0.53906 1.1992 1.1992v3.4141l3.9727 0.003906c0.62891 0.039063 1.1211 0.5625 1.1211 1.1953s-0.49219 1.1562-1.1211 1.1992h-53.156c-2.5156 1.6641-5.4883 2.5-8.5039 2.3945-3.0117-0.10938-5.918-1.1562-8.3086-2.9961l-2.6016 2.3516c0.26562 0.22656 0.42188 0.55859 0.42578 0.90625 0.003907 0.34766-0.14453 0.68359-0.40234 0.91406l-6.5078 5.8008c-2.3125 2.0625-6.332 0-6.4414-3.3242-0.054688-1 0.34375-1.9727 1.0859-2.6484l3.8125-3.3984h-2.4453c-0.63281-0.042969-1.1211-0.56641-1.1211-1.1992s0.48828-1.1562 1.1211-1.1953zm10.699-22.469c-3.5234 1.8711-6.1172 5.1094-7.1719 8.957-1.0586 3.8477-0.48047 7.957 1.5977 11.363l-2.3711 2.1484h-0.35156l-0.003906-32.828h8.3086l0.003906 10.359zm57.391-45.02c-1.5547 0-3.0273 0.71094-3.9961 1.9297-0.96484 1.2227-1.3242 2.8164-0.96875 4.332l-11.723 5.8945c-1.0312-1.2227-2.5781-1.8906-4.1797-1.8008-1.5977 0.085938-3.0625 0.92188-3.9531 2.25l-11.172-4.1289c0.17969-1.5625-0.37109-3.1211-1.4961-4.2227-1.1211-1.1016-2.6914-1.625-4.25-1.4141-1.5586 0.20703-2.9336 1.125-3.7266 2.4844-0.79297 1.3594-0.91406 3.0078-0.32812 4.4688l-12.406 8.8633c-2.0781-1.8008-5.2109-1.6328-7.082 0.38672l-5.5703-3.1289c-0.27734-0.17578-0.61719-0.23047-0.9375-0.15234-0.32031 0.082031-0.59375 0.28906-0.75391 0.57812-0.16406 0.28906-0.19922 0.62891-0.097657 0.94531 0.097657 0.31641 0.32031 0.57422 0.61719 0.71875l5.5703 3.125v0.003906c-0.44141 1.582-0.09375 3.2812 0.93359 4.5664 1.0312 1.2812 2.6172 1.9883 4.2578 1.8984 1.6406-0.089844 3.1406-0.96484 4.0234-2.3516s1.043-3.1172 0.42969-4.6406l12.406-8.8633v-0.003907c1.1055 0.96094 2.5664 1.3984 4.0195 1.2031 1.4492-0.19141 2.7461-1 3.5586-2.2148l11.176 4.1328c-0.17188 1.4922 0.32422 2.9844 1.3555 4.082 1.0312 1.0938 2.4922 1.6758 3.9961 1.5898 1.5-0.082031 2.8906-0.82422 3.793-2.0273 0.90234-1.2031 1.2305-2.7422 0.89062-4.2109l11.719-5.8984c1.6172 1.9258 4.3984 2.3828 6.5469 1.0781 2.1484-1.3008 3.0273-3.9766 2.0703-6.3008l4.7656-3.4375 1.1133 1.5469 3.2305-6.1484-6.8555 1.1133 1.1133 1.5469-4.7695 3.4375h0.003906c-0.92578-0.79688-2.1055-1.2344-3.3242-1.2305zm-18.668 13.535c-0.77344-0.77344-1.9375-1.0039-2.9453-0.58594-1.0117 0.42188-1.6719 1.4062-1.6719 2.5s0.66016 2.082 1.6719 2.5c1.0078 0.42188 2.1719 0.1875 2.9453-0.58594 1.0586-1.0547 1.0586-2.7695 0-3.8281zm-20.48-7.5703c0.64062 0.64062 0.91797 1.5547 0.74219 2.4414-0.17578 0.88672-0.78516 1.625-1.6211 1.9727-0.83203 0.34375-1.7852 0.25-2.5352-0.25-0.75391-0.50391-1.2031-1.3477-1.2031-2.25 0-1.0938 0.65625-2.082 1.668-2.5 1.0117-0.41797 2.1758-0.1875 2.9492 0.58594zm-20.477 14.633c-0.77344-0.77344-1.9375-1.0078-2.9492-0.58594-1.0117 0.41797-1.6719 1.4062-1.6719 2.5s0.66016 2.082 1.6719 2.5c1.0117 0.41797 2.1758 0.1875 2.9492-0.58594 1.0547-1.0586 1.0547-2.7695 0-3.8281zm61.539-17.41c0.64062 0.63672 0.91797 1.5547 0.74219 2.4414-0.17578 0.88672-0.78125 1.625-1.6172 1.9727-0.83594 0.34766-1.7891 0.25391-2.5391-0.24609-0.75391-0.50391-1.2031-1.3477-1.207-2.25 0.003906-1.0938 0.66406-2.0781 1.6719-2.4961 1.0117-0.42188 2.1758-0.19141 2.9492 0.58203zm-6.0703 14.262v-2.6992h8.3086v2.6992h0.003906c0 0.66016 0.53516 1.1992 1.1992 1.1992 0.66016 0 1.1992-0.53906 1.1992-1.1992v-3.9023c0-0.66406-0.53906-1.1992-1.1992-1.1992h-10.699c-0.66406 0-1.2031 0.53516-1.2031 1.1992v3.9023c0 0.66016 0.53906 1.1992 1.2031 1.1992 0.66016 0 1.1992-0.53906 1.1992-1.1992zm8.3125 3.7578v6.957c0 0.66406 0.53516 1.2031 1.1992 1.2031 0.66016 0 1.1992-0.53906 1.1992-1.2031v-6.957c0-0.66406-0.53906-1.2031-1.1992-1.2031-0.66406 0-1.1992 0.53906-1.1992 1.2031zm0 10.719v6.9648-0.003906c0 0.66406 0.53516 1.1992 1.1992 1.1992 0.66016 0 1.1992-0.53516 1.1992-1.1992v-6.9688c0-0.66016-0.53906-1.1992-1.1992-1.1992-0.66406 0-1.1992 0.53906-1.1992 1.1992zm0 10.719v6.9609c0 0.66406 0.53516 1.1992 1.1992 1.1992 0.66016 0 1.1992-0.53516 1.1992-1.1992v-6.9688c0-0.66406-0.53906-1.1992-1.1992-1.1992-0.66406 0-1.1992 0.53516-1.1992 1.1992zm0 10.719v6.9648-0.007812c0 0.66406 0.53516 1.1992 1.1992 1.1992 0.66016 0 1.1992-0.53516 1.1992-1.1992v-6.9648c0-0.66406-0.53906-1.1992-1.1992-1.1992-0.66406 0-1.1992 0.53516-1.1992 1.1992zm-8.3086 6.9648-0.003906-6.9727c0-0.66406-0.53516-1.1992-1.1992-1.1992-0.66016 0-1.1992 0.53516-1.1992 1.1992v6.9648-0.003906c0 0.66406 0.53906 1.1992 1.1992 1.1992 0.66406 0 1.1992-0.53516 1.1992-1.1992zm0-10.719-0.003906-6.9727c0-0.66406-0.53516-1.1992-1.1992-1.1992-0.66016 0-1.1992 0.53516-1.1992 1.1992v6.9688c0 0.66406 0.53906 1.1992 1.1992 1.1992 0.66406 0 1.1992-0.53516 1.1992-1.1992zm0-10.719-0.003906-6.9727c0-0.66016-0.53516-1.1992-1.1992-1.1992-0.66016 0-1.1992 0.53906-1.1992 1.1992v6.9648c0 0.66406 0.53906 1.1992 1.1992 1.1992 0.66406 0 1.1992-0.53516 1.1992-1.1992zm0-10.719-0.003906-6.9648c0-0.66406-0.53516-1.2031-1.1992-1.2031-0.66016 0-1.1992 0.53906-1.1992 1.2031v6.957c0 0.66406 0.53906 1.2031 1.1992 1.2031 0.66406 0 1.1992-0.53906 1.1992-1.2031zm-20.586 39.316h8.3086l0.003906-41.113h-8.3125zm-15.105 0c1.3086-1.4492 2.3086-3.1523 2.9375-5v5zm2.9375-14.352c-1.3672-3.9883-4.3984-7.1875-8.3086-8.7617v-24.18h8.3086zm-13.645-2.2578c2.8789 0 5.4727 1.7344 6.5742 4.3945 1.1016 2.6562 0.49219 5.7188-1.543 7.7539s-5.0977 2.6406-7.7539 1.5391c-2.6602-1.1016-4.3945-3.6953-4.3945-6.5703 0-1.8906 0.75-3.6992 2.0859-5.0312 1.332-1.3359 3.1445-2.0859 5.0312-2.0859zm-6.7266 0.39062c2.7227-2.7188 6.8125-3.5352 10.367-2.0625 3.5508 1.4727 5.8711 4.9414 5.8711 8.7852 0 3.8477-2.3203 7.3164-5.8711 8.7891-3.5547 1.4727-7.6445 0.65625-10.367-2.0625-3.7109-3.7148-3.7109-9.7344 0-13.449zm-4.2812 16.008 0.35156 0.39062-2.3984 2.168-0.34766-0.39453zm-2.9453 5.1914-2.1641-2.4062-5.625 5.0117c-1.1172 1.0156 1.0664 3.3867 2.1875 2.3906z" fill-rule="evenodd"/>
</svg>