<svg xmlns="http://www.w3.org/2000/svg" version="1.1" viewBox="-5.0 -10.0 110.0 135.0">
 <path d="m72.656 67.188h-56.828c-5.2852-0.007812-9.5703-4.293-9.5781-9.5781v-41.781c0.007812-5.2852 4.293-9.5703 9.5781-9.5781h42.531c0.86328 0 1.5625 0.69922 1.5625 1.5625s-0.69922 1.5625-1.5625 1.5625h-42.531c-3.5625 0-6.4531 2.8906-6.4531 6.4531v41.781c0 1.7109 0.67969 3.3516 1.8906 4.5625s2.8516 1.8906 4.5625 1.8906h56.828c3.5625 0 6.4531-2.8906 6.4531-6.4531v-8.9375c0-0.86328 0.69922-1.5625 1.5625-1.5625s1.5625 0.69922 1.5625 1.5625v8.9375c-0.007813 5.2852-4.293 9.5703-9.5781 9.5781z"/>
 <path d="m80.672 56.844h-72.859c-0.86328 0-1.5625-0.69922-1.5625-1.5625s0.69922-1.5625 1.5625-1.5625h72.859c0.86328 0 1.5625 0.69922 1.5625 1.5625s-0.69922 1.5625-1.5625 1.5625z"/>
 <path d="m25.266 62.141h-5.25c-0.86328 0-1.5625-0.69922-1.5625-1.5625s0.69922-1.5625 1.5625-1.5625h5.25c0.86328 0 1.5625 0.69922 1.5625 1.5625s-0.69922 1.5625-1.5625 1.5625z"/>
 <path d="m74.469 44.797c-5.1133 0-10.02-2.0312-13.637-5.6484-3.6133-3.6172-5.6445-8.5234-5.6445-13.637 0-5.1172 2.0352-10.02 5.6523-13.637 3.6172-3.6133 8.5234-5.6445 13.641-5.6406 5.1133 0.003906 10.016 2.0391 13.633 5.6562 3.6133 3.6211 5.6406 8.5273 5.6367 13.641-0.003906 5.1094-2.0391 10.012-5.6523 13.625-3.6172 3.6133-8.5195 5.6406-13.629 5.6406zm0-35.422c-4.2852 0-8.3945 1.7031-11.426 4.7305-3.0273 3.0312-4.7305 7.1406-4.7305 11.426s1.7031 8.3945 4.7305 11.426c3.0312 3.0273 7.1406 4.7305 11.426 4.7305s8.3945-1.7031 11.426-4.7305c3.0273-3.0312 4.7305-7.1406 4.7305-11.426-0.003906-4.2852-1.707-8.3906-4.7383-11.418-3.0273-3.0312-7.1328-4.7344-11.418-4.7383z"/>
 <path d="m74.469 38.672c-5.3242 0-10.121-3.207-12.156-8.125s-0.90625-10.578 2.8594-14.34 9.4258-4.8828 14.344-2.8398c4.9141 2.0391 8.1172 6.8398 8.1094 12.164-0.007812 7.2617-5.8945 13.141-13.156 13.141zm0-23.172c-4.0586 0-7.7148 2.4453-9.2695 6.1914-1.5508 3.75-0.69141 8.0625 2.1758 10.934 2.8711 2.8672 7.1836 3.7266 10.934 2.1758 3.7461-1.5547 6.1914-5.2109 6.1914-9.2695-0.007812-5.5352-4.4961-10.023-10.031-10.031z"/>
 <path d="m60.594 93.75h-32.688c-1.9453 0.089844-3.8438-0.61719-5.2539-1.9609-1.4062-1.3477-2.2031-3.207-2.2031-5.1562 0-1.9492 0.79688-3.8086 2.2031-5.1562 1.4102-1.3438 3.3086-2.0508 5.2539-1.9609h32.688c3.8008 0.17969 6.793 3.3125 6.793 7.1172 0 3.8047-2.9922 6.9375-6.793 7.1172zm-32.688-11.109c-1.1016-0.070313-2.1836 0.32031-2.9883 1.0781-0.80469 0.75391-1.2617 1.8086-1.2617 2.9141 0 1.1055 0.45703 2.1602 1.2617 2.9141 0.80469 0.75781 1.8867 1.1484 2.9883 1.0781h32.688c2.1094-0.13281 3.75-1.8789 3.75-3.9922 0-2.1133-1.6406-3.8594-3.75-3.9922z"/>
 <path d="m57.672 82.641c-0.76953 0.011719-1.4336-0.53906-1.5625-1.2969l-2.7344-15.453c-0.078125-0.41797 0.019531-0.84766 0.26953-1.1914 0.24609-0.34766 0.62109-0.57422 1.043-0.63672 0.41016-0.074219 0.82812 0.019531 1.168 0.25781 0.33984 0.23828 0.57031 0.59766 0.64453 1.0078l2.7344 15.438c0.074219 0.41016-0.019531 0.82812-0.25781 1.168-0.23828 0.33984-0.59766 0.57031-1.0078 0.64453z"/>
 <path d="m30.812 82.641h-0.28125c-0.41016-0.074219-0.76953-0.30469-1.0078-0.64453-0.23828-0.33984-0.33203-0.75781-0.25781-1.168l2.7344-15.438c0.14844-0.86328 0.96484-1.4453 1.8281-1.2969s1.4453 0.96484 1.2969 1.8281l-2.7812 15.422c-0.12891 0.74609-0.77344 1.293-1.5312 1.2969z"/>
 <path d="m85.406 23.25h-21.875c-0.86328 0-1.5625-0.69922-1.5625-1.5625s0.69922-1.5625 1.5625-1.5625h21.875c0.86328 0 1.5625 0.69922 1.5625 1.5625s-0.69922 1.5625-1.5625 1.5625z"/>
 <path d="m85.406 30.938h-21.875c-0.86328 0-1.5625-0.69922-1.5625-1.5625s0.69922-1.5625 1.5625-1.5625h21.875c0.86328 0 1.5625 0.69922 1.5625 1.5625s-0.69922 1.5625-1.5625 1.5625z"/>
 <path d="m78.312 38.016c-0.86328 0-1.5625-0.69922-1.5625-1.5625v-21.875c0-0.86328 0.69922-1.5625 1.5625-1.5625s1.5625 0.69922 1.5625 1.5625v21.875c0 0.41406-0.16406 0.8125-0.45703 1.1055-0.29297 0.29297-0.69141 0.45703-1.1055 0.45703z"/>
 <path d="m70.641 38.016c-0.86328 0-1.5625-0.69922-1.5625-1.5625v-21.875c0-0.86328 0.69922-1.5625 1.5625-1.5625s1.5625 0.69922 1.5625 1.5625v21.875c0 0.41406-0.16406 0.8125-0.45703 1.1055-0.29297 0.29297-0.69141 0.45703-1.1055 0.45703z"/>
 <path d="m28.203 49.344c-0.26562 0-0.52344-0.070312-0.75-0.20312-3.4844-1.9219-10.75-8.5312-11.688-13.75-0.47266-2.1875 0.039063-4.4766 1.4062-6.25 0.89062-1.125 2.2344-1.8008 3.6719-1.8438 2.9062 0 5.75 2.125 7.3594 3.625 1.5625-1.5625 4.4688-3.625 7.3594-3.625 1.4414 0.042969 2.7852 0.72266 3.6719 1.8594 1.3789 1.7695 1.8945 4.0625 1.4062 6.25-0.92188 5.2188-8.2031 11.828-11.672 13.75-0.23438 0.125-0.5 0.19141-0.76562 0.1875zm-7.3594-18.875c-0.50781 0.054688-0.96484 0.32422-1.2656 0.73438-0.75781 1.0508-1.0273 2.3789-0.73438 3.6406 0.64062 3.5938 6.0625 8.9375 9.375 11.109 3.2969-2.1719 8.7188-7.5156 9.375-11.109 0.28125-1.25 0.007812-2.5625-0.75-3.5938-0.30469-0.41406-0.76953-0.67969-1.2812-0.73438-2.4375 0-5.5938 3.0156-6.0781 3.6562-0.32031 0.39844-0.80078 0.63281-1.3125 0.64062-0.50391-0.007812-0.97656-0.25781-1.2656-0.67188-0.46875-0.65625-3.625-3.6719-6.0625-3.6719z"/>
 <path d="m50.781 30.469h-2.875c-0.86328 0-1.5625-0.69922-1.5625-1.5625s0.69922-1.5625 1.5625-1.5625h2.875c0.86328 0 1.5625 0.69922 1.5625 1.5625s-0.69922 1.5625-1.5625 1.5625z"/>
 <path d="m52.5 36.766h-4.5938c-0.86328 0-1.5625-0.69922-1.5625-1.5625s0.69922-1.5625 1.5625-1.5625h4.5938c0.86328 0 1.5625 0.69922 1.5625 1.5625s-0.69922 1.5625-1.5625 1.5625z"/>
 <path d="m56.547 43.047h-8.6406c-0.86328 0-1.5625-0.69922-1.5625-1.5625s0.69922-1.5625 1.5625-1.5625h8.6406c0.86328 0 1.5625 0.69922 1.5625 1.5625s-0.69922 1.5625-1.5625 1.5625z"/>
 <path d="m65.625 49.344h-17.719c-0.86328 0-1.5625-0.69922-1.5625-1.5625s0.69922-1.5625 1.5625-1.5625h17.719c0.86328 0 1.5625 0.69922 1.5625 1.5625s-0.69922 1.5625-1.5625 1.5625z"/>
 <path d="m52.641 17.391h-44.828c-0.86328 0-1.5625-0.69922-1.5625-1.5625s0.69922-1.5625 1.5625-1.5625h44.828c0.86328 0 1.5625 0.69922 1.5625 1.5625s-0.69922 1.5625-1.5625 1.5625z"/>
 <path d="m50.75 23.75h-33.562c-0.86328 0-1.5625-0.69922-1.5625-1.5625s0.69922-1.5625 1.5625-1.5625h33.562c0.86328 0 1.5625 0.69922 1.5625 1.5625s-0.69922 1.5625-1.5625 1.5625z"/>
</svg>